G04 #@! TF.GenerationSoftware,KiCad,Pcbnew,9.0.2*
G04 #@! TF.CreationDate,2025-06-24T21:37:24-04:00*
G04 #@! TF.ProjectId,Shortywithdisplay,53686f72-7479-4776-9974-68646973706c,rev?*
G04 #@! TF.SameCoordinates,Original*
G04 #@! TF.FileFunction,Copper,L1,Top*
G04 #@! TF.FilePolarity,Positive*
%FSLAX46Y46*%
G04 Gerber Fmt 4.6, Leading zero omitted, Abs format (unit mm)*
G04 Created by KiCad (PCBNEW 9.0.2) date 2025-06-24 21:37:24*
%MOMM*%
%LPD*%
G01*
G04 APERTURE LIST*
G04 Aperture macros list*
%AMRoundRect*
0 Rectangle with rounded corners*
0 $1 Rounding radius*
0 $2 $3 $4 $5 $6 $7 $8 $9 X,Y pos of 4 corners*
0 Add a 4 corners polygon primitive as box body*
4,1,4,$2,$3,$4,$5,$6,$7,$8,$9,$2,$3,0*
0 Add four circle primitives for the rounded corners*
1,1,$1+$1,$2,$3*
1,1,$1+$1,$4,$5*
1,1,$1+$1,$6,$7*
1,1,$1+$1,$8,$9*
0 Add four rect primitives between the rounded corners*
20,1,$1+$1,$2,$3,$4,$5,0*
20,1,$1+$1,$4,$5,$6,$7,0*
20,1,$1+$1,$6,$7,$8,$9,0*
20,1,$1+$1,$8,$9,$2,$3,0*%
G04 Aperture macros list end*
G04 #@! TA.AperFunction,SMDPad,CuDef*
%ADD10R,2.800000X1.000000*%
G04 #@! TD*
G04 #@! TA.AperFunction,SMDPad,CuDef*
%ADD11RoundRect,0.237500X0.237500X-0.250000X0.237500X0.250000X-0.237500X0.250000X-0.237500X-0.250000X0*%
G04 #@! TD*
G04 #@! TA.AperFunction,ComponentPad*
%ADD12R,1.050000X1.500000*%
G04 #@! TD*
G04 #@! TA.AperFunction,ComponentPad*
%ADD13O,1.050000X1.500000*%
G04 #@! TD*
G04 #@! TA.AperFunction,SMDPad,CuDef*
%ADD14RoundRect,0.237500X0.300000X0.237500X-0.300000X0.237500X-0.300000X-0.237500X0.300000X-0.237500X0*%
G04 #@! TD*
G04 #@! TA.AperFunction,ComponentPad*
%ADD15R,2.250000X3.250000*%
G04 #@! TD*
G04 #@! TA.AperFunction,SMDPad,CuDef*
%ADD16RoundRect,0.237500X0.250000X0.237500X-0.250000X0.237500X-0.250000X-0.237500X0.250000X-0.237500X0*%
G04 #@! TD*
G04 #@! TA.AperFunction,ComponentPad*
%ADD17R,2.600000X1.800000*%
G04 #@! TD*
G04 #@! TA.AperFunction,ComponentPad*
%ADD18O,2.600000X1.800000*%
G04 #@! TD*
G04 #@! TA.AperFunction,ComponentPad*
%ADD19R,1.750000X3.350000*%
G04 #@! TD*
G04 #@! TA.AperFunction,ComponentPad*
%ADD20R,1.600000X1.600000*%
G04 #@! TD*
G04 #@! TA.AperFunction,ComponentPad*
%ADD21O,1.600000X1.600000*%
G04 #@! TD*
G04 #@! TA.AperFunction,SMDPad,CuDef*
%ADD22RoundRect,0.162500X-0.617500X-0.162500X0.617500X-0.162500X0.617500X0.162500X-0.617500X0.162500X0*%
G04 #@! TD*
G04 #@! TA.AperFunction,ComponentPad*
%ADD23R,1.700000X1.700000*%
G04 #@! TD*
G04 #@! TA.AperFunction,ComponentPad*
%ADD24C,1.700000*%
G04 #@! TD*
G04 #@! TA.AperFunction,ComponentPad*
%ADD25RoundRect,0.250000X-0.550000X-0.550000X0.550000X-0.550000X0.550000X0.550000X-0.550000X0.550000X0*%
G04 #@! TD*
G04 #@! TA.AperFunction,ComponentPad*
%ADD26C,1.600000*%
G04 #@! TD*
G04 #@! TA.AperFunction,ComponentPad*
%ADD27R,2.000000X2.000000*%
G04 #@! TD*
G04 #@! TA.AperFunction,ComponentPad*
%ADD28C,2.000000*%
G04 #@! TD*
G04 #@! TA.AperFunction,SMDPad,CuDef*
%ADD29RoundRect,0.150000X-0.512500X-0.150000X0.512500X-0.150000X0.512500X0.150000X-0.512500X0.150000X0*%
G04 #@! TD*
G04 #@! TA.AperFunction,ViaPad*
%ADD30C,0.600000*%
G04 #@! TD*
G04 #@! TA.AperFunction,Conductor*
%ADD31C,0.200000*%
G04 #@! TD*
G04 APERTURE END LIST*
D10*
X98900000Y-86900000D03*
X104500000Y-87000000D03*
X98900000Y-90200000D03*
X104500000Y-90200000D03*
D11*
X168500000Y-87325000D03*
X168500000Y-85500000D03*
D12*
X113960000Y-90000000D03*
D13*
X115230000Y-90000000D03*
X116500000Y-90000000D03*
D14*
X149225000Y-90000000D03*
X147500000Y-90000000D03*
D11*
X171500000Y-87325000D03*
X171500000Y-85500000D03*
D15*
X157800000Y-122000000D03*
X161900000Y-122000000D03*
X166000000Y-122000000D03*
D16*
X127500000Y-107500000D03*
X125675000Y-107500000D03*
X127500000Y-95500000D03*
X125675000Y-95500000D03*
D11*
X174510000Y-87325000D03*
X174510000Y-85500000D03*
D17*
X106400500Y-63019300D03*
D18*
X106400500Y-60479300D03*
X106400500Y-57939300D03*
X106400500Y-55399300D03*
D19*
X155980000Y-37500000D03*
X160740000Y-37500000D03*
X165500000Y-37500000D03*
D20*
X140560000Y-110740000D03*
D21*
X143100000Y-110740000D03*
X145640000Y-110740000D03*
X148180000Y-110740000D03*
X150720000Y-110740000D03*
X153260000Y-110740000D03*
X155800000Y-110740000D03*
X158340000Y-110740000D03*
X160880000Y-110740000D03*
X163420000Y-110740000D03*
X165960000Y-110740000D03*
X168500000Y-110740000D03*
X171040000Y-110740000D03*
X173580000Y-110740000D03*
X176120000Y-110740000D03*
X176120000Y-95500000D03*
X173580000Y-95500000D03*
X171040000Y-95500000D03*
X168500000Y-95500000D03*
X165960000Y-95500000D03*
X163420000Y-95500000D03*
X160880000Y-95500000D03*
X158340000Y-95500000D03*
X155800000Y-95500000D03*
X153260000Y-95500000D03*
X150720000Y-95500000D03*
X148180000Y-95500000D03*
X145640000Y-95500000D03*
X143100000Y-95500000D03*
X140560000Y-95500000D03*
D16*
X127500000Y-98500000D03*
X125675000Y-98500000D03*
D22*
X161000000Y-85500000D03*
X161000000Y-86450000D03*
X161000000Y-87400000D03*
X163700000Y-87400000D03*
X163700000Y-85500000D03*
D23*
X105460000Y-122000000D03*
D24*
X108000000Y-122000000D03*
D14*
X144000000Y-116000000D03*
X142275000Y-116000000D03*
D16*
X127500000Y-101500000D03*
X125675000Y-101500000D03*
X127500000Y-104500000D03*
X125675000Y-104500000D03*
X127500000Y-92480000D03*
X125675000Y-92480000D03*
X127500000Y-110500000D03*
X125675000Y-110500000D03*
D14*
X142725000Y-90000000D03*
X141000000Y-90000000D03*
D25*
X126690000Y-84500000D03*
D26*
X134310000Y-84500000D03*
D27*
X100900000Y-104500000D03*
D28*
X108500000Y-104500000D03*
D29*
X154000000Y-85550000D03*
X154000000Y-86500000D03*
X154000000Y-87450000D03*
X156275000Y-87450000D03*
X156275000Y-86500000D03*
X156275000Y-85550000D03*
D23*
X120750000Y-119750000D03*
D24*
X120750000Y-122290000D03*
X123250000Y-119750000D03*
X123250000Y-122290000D03*
D30*
X152363800Y-63423200D03*
X170000000Y-85219200D03*
X153156900Y-83810700D03*
X140473800Y-86141700D03*
X125673500Y-106421100D03*
X129029200Y-101219100D03*
X100572500Y-95490400D03*
X104500000Y-97784700D03*
X127814800Y-90736000D03*
X158308800Y-90180400D03*
X142909100Y-91323500D03*
X106601900Y-85398500D03*
X119335000Y-46320600D03*
X173196100Y-87742600D03*
X126822100Y-102503000D03*
X116168800Y-95867200D03*
X173323400Y-86879500D03*
X159299100Y-87096300D03*
X133626300Y-86471300D03*
X164253800Y-92575200D03*
X132101700Y-89143200D03*
X163928500Y-89119200D03*
D31*
X155800000Y-89250000D02*
X154000000Y-87450000D01*
X152363800Y-86224900D02*
X153588900Y-87450000D01*
X153588900Y-87450000D02*
X154000000Y-87450000D01*
X155800000Y-95500000D02*
X155800000Y-89250000D01*
X152363800Y-63423200D02*
X152363800Y-86224900D01*
X162945600Y-96601700D02*
X161981700Y-95637800D01*
X161981700Y-95637800D02*
X161981700Y-95500000D01*
X170123900Y-87444800D02*
X170123900Y-88367400D01*
X171156200Y-86412500D02*
X170123900Y-87444800D01*
X160880000Y-95500000D02*
X161981700Y-95500000D01*
X172939600Y-86412500D02*
X171156200Y-86412500D01*
X174510000Y-85500000D02*
X173852100Y-85500000D01*
X173852100Y-85500000D02*
X172939600Y-86412500D01*
X170123900Y-88367400D02*
X164548500Y-93942800D01*
X164548500Y-95938400D02*
X163885200Y-96601700D01*
X164548500Y-93942800D02*
X164548500Y-95938400D01*
X163885200Y-96601700D02*
X162945600Y-96601700D01*
X144521300Y-116789200D02*
X143064200Y-116789200D01*
X100900000Y-105150800D02*
X100900000Y-105801700D01*
X108000000Y-122000000D02*
X108000000Y-112901700D01*
X105574300Y-56601000D02*
X104768600Y-57406700D01*
X104768600Y-57406700D02*
X104768600Y-84765200D01*
X125673500Y-106421100D02*
X126142900Y-106890500D01*
X154751900Y-86500000D02*
X154000000Y-86500000D01*
X128294200Y-101027300D02*
X125766900Y-98500000D01*
X143100000Y-95500000D02*
X143100000Y-96601700D01*
X104500000Y-87000000D02*
X106201700Y-87000000D01*
X108000000Y-112901700D02*
X100900000Y-105801700D01*
X106201700Y-86198300D02*
X106201700Y-87000000D01*
X98900000Y-86900000D02*
X101449200Y-86900000D01*
X125766900Y-98500000D02*
X125675000Y-98500000D01*
X141000000Y-90000000D02*
X141000000Y-86667900D01*
X156275000Y-85550000D02*
X155701900Y-85550000D01*
X101449200Y-86900000D02*
X101549200Y-87000000D01*
X100900000Y-105150800D02*
X100900000Y-104500000D01*
X104768600Y-84765200D02*
X106201700Y-86198300D01*
X153028600Y-83939000D02*
X153028600Y-85925100D01*
X142275000Y-116000000D02*
X141941500Y-115666500D01*
X141941500Y-97760200D02*
X143100000Y-96601700D01*
X148180000Y-110740000D02*
X148180000Y-113130500D01*
X100900000Y-104500000D02*
X100900000Y-103198300D01*
X106400500Y-56601000D02*
X105574300Y-56601000D01*
X126142900Y-106890500D02*
X126395000Y-106890500D01*
X100900000Y-103198300D02*
X101549200Y-102549100D01*
X153603500Y-86500000D02*
X154000000Y-86500000D01*
X157944600Y-85550000D02*
X158844600Y-86450000D01*
X101549200Y-87000000D02*
X102798300Y-87000000D01*
X141000000Y-86667900D02*
X140473800Y-86141700D01*
X141941500Y-115666500D02*
X141941500Y-97760200D01*
X141000000Y-92298300D02*
X141000000Y-90000000D01*
X148180000Y-113130500D02*
X144521300Y-116789200D01*
X126142900Y-106890500D02*
X126142900Y-107032100D01*
X156275000Y-85550000D02*
X157944600Y-85550000D01*
X143100000Y-94398300D02*
X147498300Y-90000000D01*
X143100000Y-94398300D02*
X141000000Y-92298300D01*
X126395000Y-106890500D02*
X128294200Y-104991300D01*
X158844600Y-86450000D02*
X161000000Y-86450000D01*
X155701900Y-85550000D02*
X154751900Y-86500000D01*
X170000000Y-85219200D02*
X171219200Y-85219200D01*
X171219200Y-85219200D02*
X171500000Y-85500000D01*
X153156900Y-83810700D02*
X153028600Y-83939000D01*
X106400500Y-55399300D02*
X106400500Y-56601000D01*
X126142900Y-107032100D02*
X125675000Y-107500000D01*
X101549200Y-102549100D02*
X101549200Y-87000000D01*
X104500000Y-87000000D02*
X102798300Y-87000000D01*
X143100000Y-95500000D02*
X143100000Y-94398300D01*
X147498300Y-90000000D02*
X147500000Y-90000000D01*
X143064200Y-116789200D02*
X142275000Y-116000000D01*
X128294200Y-104991300D02*
X128294200Y-101027300D01*
X153028600Y-85925100D02*
X153603500Y-86500000D01*
X125675000Y-109325000D02*
X125675000Y-110500000D01*
X127500000Y-107500000D02*
X125675000Y-109325000D01*
X127500000Y-107500000D02*
X129029200Y-105970800D01*
X129029200Y-105970800D02*
X129029200Y-101219100D01*
X160880000Y-119053300D02*
X160880000Y-110740000D01*
X161900000Y-122000000D02*
X161900000Y-120073300D01*
X161900000Y-120073300D02*
X160880000Y-119053300D01*
X98900000Y-90200000D02*
X100601700Y-90200000D01*
X106201700Y-90200000D02*
X106201700Y-96083000D01*
X100572500Y-95490400D02*
X100601700Y-95461200D01*
X100601700Y-95461200D02*
X100601700Y-90200000D01*
X106201700Y-96083000D02*
X104500000Y-97784700D01*
X104500000Y-90200000D02*
X106201700Y-90200000D01*
X126690000Y-84500000D02*
X126690000Y-89611200D01*
X126690000Y-89611200D02*
X127814800Y-90736000D01*
X161636300Y-84863700D02*
X161000000Y-85500000D01*
X160424200Y-84924200D02*
X161000000Y-85500000D01*
X165867600Y-86210900D02*
X167789100Y-86210900D01*
X165867600Y-86210900D02*
X164520400Y-84863700D01*
X167789100Y-86210900D02*
X168500000Y-85500000D01*
X164520400Y-84863700D02*
X161636300Y-84863700D01*
X165867600Y-88132400D02*
X165867600Y-86210900D01*
X163420000Y-95500000D02*
X163420000Y-90580000D01*
X154625800Y-84924200D02*
X160424200Y-84924200D01*
X163420000Y-90580000D02*
X165867600Y-88132400D01*
X154000000Y-85550000D02*
X154625800Y-84924200D01*
X148180000Y-95500000D02*
X148180000Y-96601700D01*
X144370000Y-115630000D02*
X144370000Y-100411700D01*
X156275000Y-86500000D02*
X156750900Y-86500000D01*
X148180000Y-95500000D02*
X148180000Y-94398300D01*
X144370000Y-100411700D02*
X148180000Y-96601700D01*
X106400500Y-59141000D02*
X107226700Y-59141000D01*
X149225000Y-90000000D02*
X149225000Y-93353300D01*
X106400500Y-57939300D02*
X106400500Y-59141000D01*
X158308800Y-90180400D02*
X158308800Y-88195100D01*
X149225000Y-93353300D02*
X148180000Y-94398300D01*
X116500000Y-68414300D02*
X116500000Y-90000000D01*
X158308800Y-88195100D02*
X158377400Y-88126500D01*
X107226700Y-59141000D02*
X116500000Y-68414300D01*
X156750900Y-86500000D02*
X158377400Y-88126500D01*
X142909100Y-91323500D02*
X142725000Y-91139400D01*
X162559900Y-87318600D02*
X162559900Y-86640100D01*
X158377400Y-88126500D02*
X161752000Y-88126500D01*
X142725000Y-91139400D02*
X142725000Y-90000000D01*
X162559900Y-86640100D02*
X163700000Y-85500000D01*
X144000000Y-116000000D02*
X144370000Y-115630000D01*
X161752000Y-88126500D02*
X162559900Y-87318600D01*
X156275000Y-87450000D02*
X156275000Y-92333300D01*
X106400500Y-85197100D02*
X106601900Y-85398500D01*
X158340000Y-95500000D02*
X158340000Y-94398300D01*
X156275000Y-92333300D02*
X158340000Y-94398300D01*
X106400500Y-63019300D02*
X106400500Y-85197100D01*
X134310000Y-57993300D02*
X134310000Y-84500000D01*
X134310000Y-103690000D02*
X134310000Y-84500000D01*
X127500000Y-110500000D02*
X134310000Y-103690000D01*
X154803300Y-37500000D02*
X134310000Y-57993300D01*
X155980000Y-37500000D02*
X154803300Y-37500000D01*
X119335000Y-112361100D02*
X119335000Y-46320600D01*
X105460000Y-122000000D02*
X106611700Y-122000000D01*
X106611700Y-122287900D02*
X107491000Y-123167200D01*
X108528900Y-123167200D02*
X119335000Y-112361100D01*
X107491000Y-123167200D02*
X108528900Y-123167200D01*
X106611700Y-122000000D02*
X106611700Y-122287900D01*
X123250000Y-122290000D02*
X126587500Y-118952500D01*
X126587500Y-118952500D02*
X126587500Y-110117300D01*
X129640500Y-107064300D02*
X129640500Y-97640500D01*
X129640500Y-97640500D02*
X127500000Y-95500000D01*
X126587500Y-110117300D02*
X129640500Y-107064300D01*
X122000000Y-104351700D02*
X124851700Y-101500000D01*
X125240500Y-97678200D02*
X126678200Y-97678200D01*
X122000000Y-121040000D02*
X122000000Y-104351700D01*
X124851700Y-101500000D02*
X124851700Y-98067000D01*
X126678200Y-97678200D02*
X127500000Y-98500000D01*
X124851700Y-101500000D02*
X125675000Y-101500000D01*
X120750000Y-122290000D02*
X122000000Y-121040000D01*
X124851700Y-98067000D02*
X125240500Y-97678200D01*
X125675000Y-104500000D02*
X123250000Y-106925000D01*
X126974300Y-101500000D02*
X125675000Y-102799300D01*
X123250000Y-106925000D02*
X123250000Y-119750000D01*
X127500000Y-101500000D02*
X126974300Y-101500000D01*
X125675000Y-102799300D02*
X125675000Y-104500000D01*
X127362500Y-92480000D02*
X120750000Y-99092500D01*
X127500000Y-92480000D02*
X127362500Y-92480000D01*
X120750000Y-99092500D02*
X120750000Y-119750000D01*
X173196100Y-87742600D02*
X173457500Y-87481200D01*
X174353800Y-87481200D02*
X174510000Y-87325000D01*
X173457500Y-87481200D02*
X173196100Y-87742600D01*
X173457500Y-87481200D02*
X174353800Y-87481200D01*
X173457500Y-87481200D02*
X173196100Y-87742600D01*
X113960000Y-93658400D02*
X116168800Y-95867200D01*
X113960000Y-90000000D02*
X113960000Y-93658400D01*
X127500000Y-103180900D02*
X127500000Y-104500000D01*
X126822100Y-102503000D02*
X127500000Y-103180900D01*
X130236900Y-91904100D02*
X133626300Y-88514700D01*
X160696300Y-87096300D02*
X161000000Y-87400000D01*
X159299100Y-87096300D02*
X160696300Y-87096300D01*
X171500000Y-87325000D02*
X171945500Y-86879500D01*
X129545300Y-91904100D02*
X130236900Y-91904100D01*
X125675000Y-95500000D02*
X125949400Y-95500000D01*
X171945500Y-86879500D02*
X173323400Y-86879500D01*
X133626300Y-88514700D02*
X133626300Y-86471300D01*
X125949400Y-95500000D02*
X129545300Y-91904100D01*
X163928500Y-89119200D02*
X163700000Y-88890700D01*
X163700000Y-88890700D02*
X163700000Y-87400000D01*
X164253800Y-92575200D02*
X168500000Y-88329000D01*
X168500000Y-88329000D02*
X168500000Y-87325000D01*
X126752100Y-91402900D02*
X125675000Y-92480000D01*
X129842000Y-91402900D02*
X126752100Y-91402900D01*
X132101700Y-89143200D02*
X129842000Y-91402900D01*
M02*
