G04 #@! TF.GenerationSoftware,KiCad,Pcbnew,9.0.2*
G04 #@! TF.CreationDate,2025-06-24T21:37:24-04:00*
G04 #@! TF.ProjectId,Shortywithdisplay,53686f72-7479-4776-9974-68646973706c,rev?*
G04 #@! TF.SameCoordinates,Original*
G04 #@! TF.FileFunction,Copper,L2,Bot*
G04 #@! TF.FilePolarity,Positive*
%FSLAX46Y46*%
G04 Gerber Fmt 4.6, Leading zero omitted, Abs format (unit mm)*
G04 Created by KiCad (PCBNEW 9.0.2) date 2025-06-24 21:37:24*
%MOMM*%
%LPD*%
G01*
G04 APERTURE LIST*
G04 Aperture macros list*
%AMRoundRect*
0 Rectangle with rounded corners*
0 $1 Rounding radius*
0 $2 $3 $4 $5 $6 $7 $8 $9 X,Y pos of 4 corners*
0 Add a 4 corners polygon primitive as box body*
4,1,4,$2,$3,$4,$5,$6,$7,$8,$9,$2,$3,0*
0 Add four circle primitives for the rounded corners*
1,1,$1+$1,$2,$3*
1,1,$1+$1,$4,$5*
1,1,$1+$1,$6,$7*
1,1,$1+$1,$8,$9*
0 Add four rect primitives between the rounded corners*
20,1,$1+$1,$2,$3,$4,$5,0*
20,1,$1+$1,$4,$5,$6,$7,0*
20,1,$1+$1,$6,$7,$8,$9,0*
20,1,$1+$1,$8,$9,$2,$3,0*%
G04 Aperture macros list end*
G04 #@! TA.AperFunction,ComponentPad*
%ADD10R,1.050000X1.500000*%
G04 #@! TD*
G04 #@! TA.AperFunction,ComponentPad*
%ADD11O,1.050000X1.500000*%
G04 #@! TD*
G04 #@! TA.AperFunction,ComponentPad*
%ADD12R,2.250000X3.250000*%
G04 #@! TD*
G04 #@! TA.AperFunction,ComponentPad*
%ADD13R,2.600000X1.800000*%
G04 #@! TD*
G04 #@! TA.AperFunction,ComponentPad*
%ADD14O,2.600000X1.800000*%
G04 #@! TD*
G04 #@! TA.AperFunction,ComponentPad*
%ADD15R,1.750000X3.350000*%
G04 #@! TD*
G04 #@! TA.AperFunction,ComponentPad*
%ADD16R,1.600000X1.600000*%
G04 #@! TD*
G04 #@! TA.AperFunction,ComponentPad*
%ADD17O,1.600000X1.600000*%
G04 #@! TD*
G04 #@! TA.AperFunction,ComponentPad*
%ADD18R,1.700000X1.700000*%
G04 #@! TD*
G04 #@! TA.AperFunction,ComponentPad*
%ADD19C,1.700000*%
G04 #@! TD*
G04 #@! TA.AperFunction,ComponentPad*
%ADD20RoundRect,0.250000X-0.550000X-0.550000X0.550000X-0.550000X0.550000X0.550000X-0.550000X0.550000X0*%
G04 #@! TD*
G04 #@! TA.AperFunction,ComponentPad*
%ADD21C,1.600000*%
G04 #@! TD*
G04 #@! TA.AperFunction,ComponentPad*
%ADD22R,2.000000X2.000000*%
G04 #@! TD*
G04 #@! TA.AperFunction,ComponentPad*
%ADD23C,2.000000*%
G04 #@! TD*
G04 #@! TA.AperFunction,ViaPad*
%ADD24C,0.600000*%
G04 #@! TD*
G04 #@! TA.AperFunction,Conductor*
%ADD25C,0.200000*%
G04 #@! TD*
G04 APERTURE END LIST*
D10*
X113960000Y-90000000D03*
D11*
X115230000Y-90000000D03*
X116500000Y-90000000D03*
D12*
X157800000Y-122000000D03*
X161900000Y-122000000D03*
X166000000Y-122000000D03*
D13*
X106400500Y-63019300D03*
D14*
X106400500Y-60479300D03*
X106400500Y-57939300D03*
X106400500Y-55399300D03*
D15*
X155980000Y-37500000D03*
X160740000Y-37500000D03*
X165500000Y-37500000D03*
D16*
X140560000Y-110740000D03*
D17*
X143100000Y-110740000D03*
X145640000Y-110740000D03*
X148180000Y-110740000D03*
X150720000Y-110740000D03*
X153260000Y-110740000D03*
X155800000Y-110740000D03*
X158340000Y-110740000D03*
X160880000Y-110740000D03*
X163420000Y-110740000D03*
X165960000Y-110740000D03*
X168500000Y-110740000D03*
X171040000Y-110740000D03*
X173580000Y-110740000D03*
X176120000Y-110740000D03*
X176120000Y-95500000D03*
X173580000Y-95500000D03*
X171040000Y-95500000D03*
X168500000Y-95500000D03*
X165960000Y-95500000D03*
X163420000Y-95500000D03*
X160880000Y-95500000D03*
X158340000Y-95500000D03*
X155800000Y-95500000D03*
X153260000Y-95500000D03*
X150720000Y-95500000D03*
X148180000Y-95500000D03*
X145640000Y-95500000D03*
X143100000Y-95500000D03*
X140560000Y-95500000D03*
D18*
X105460000Y-122000000D03*
D19*
X108000000Y-122000000D03*
D20*
X126690000Y-84500000D03*
D21*
X134310000Y-84500000D03*
D22*
X100900000Y-104500000D03*
D23*
X108500000Y-104500000D03*
D18*
X120750000Y-119750000D03*
D19*
X120750000Y-122290000D03*
X123250000Y-119750000D03*
X123250000Y-122290000D03*
D24*
X152363800Y-63423200D03*
X170000000Y-85219200D03*
X153156900Y-83810700D03*
X140473800Y-86141700D03*
X125673500Y-106421100D03*
X129029200Y-101219100D03*
X100572500Y-95490400D03*
X104500000Y-97784700D03*
X127814800Y-90736000D03*
X158308800Y-90180400D03*
X142909100Y-91323500D03*
X106601900Y-85398500D03*
X119335000Y-46320600D03*
X173196100Y-87742600D03*
X126822100Y-102503000D03*
X116168800Y-95867200D03*
X173323400Y-86879500D03*
X159299100Y-87096300D03*
X133626300Y-86471300D03*
X164253800Y-92575200D03*
X132101700Y-89143200D03*
X163928500Y-89119200D03*
D25*
X152363800Y-63423200D02*
X149419900Y-60479300D01*
X149419900Y-60479300D02*
X106400500Y-60479300D01*
X142804800Y-83810700D02*
X153156900Y-83810700D01*
X147078300Y-110602300D02*
X142897100Y-106421100D01*
X102201700Y-104500000D02*
X103543500Y-103158200D01*
X103543500Y-103158200D02*
X109152300Y-103158200D01*
X168591500Y-83810700D02*
X170000000Y-85219200D01*
X112415200Y-106421100D02*
X125673500Y-106421100D01*
X140473800Y-86141700D02*
X142804800Y-83810700D01*
X142897100Y-106421100D02*
X125673500Y-106421100D01*
X148180000Y-110740000D02*
X147078300Y-110740000D01*
X147078300Y-110740000D02*
X147078300Y-110602300D01*
X153156900Y-83810700D02*
X168591500Y-83810700D01*
X109152300Y-103158200D02*
X112415200Y-106421100D01*
X100900000Y-104500000D02*
X102201700Y-104500000D01*
X129029200Y-101219100D02*
X161907500Y-101219100D01*
X161907500Y-101219100D02*
X167398300Y-95728300D01*
X167398300Y-95728300D02*
X167398300Y-95500000D01*
X168500000Y-95500000D02*
X167398300Y-95500000D01*
X153260000Y-110740000D02*
X152158300Y-110740000D01*
X104500000Y-97784700D02*
X109820000Y-103104700D01*
X109820000Y-103104700D02*
X144751300Y-103104700D01*
X104500000Y-97784700D02*
X102866800Y-97784700D01*
X102866800Y-97784700D02*
X100572500Y-95490400D01*
X152158300Y-110511700D02*
X152158300Y-110740000D01*
X144751300Y-103104700D02*
X152158300Y-110511700D01*
X134694300Y-90736000D02*
X139458300Y-95500000D01*
X140560000Y-95500000D02*
X139458300Y-95500000D01*
X127814800Y-90736000D02*
X134694300Y-90736000D01*
X147078300Y-91323500D02*
X147078300Y-95500000D01*
X148180000Y-95500000D02*
X147078300Y-95500000D01*
X141585600Y-90000000D02*
X142909100Y-91323500D01*
X147078300Y-91323500D02*
X157165700Y-91323500D01*
X142909100Y-91323500D02*
X147078300Y-91323500D01*
X116500000Y-90000000D02*
X117326700Y-90000000D01*
X157165700Y-91323500D02*
X158308800Y-90180400D01*
X117326700Y-90000000D02*
X141585600Y-90000000D01*
X157238300Y-95500000D02*
X157238300Y-95728300D01*
X117812300Y-96608900D02*
X106601900Y-85398500D01*
X157238300Y-95728300D02*
X156357700Y-96608900D01*
X156357700Y-96608900D02*
X117812300Y-96608900D01*
X158340000Y-95500000D02*
X157238300Y-95500000D01*
X150742700Y-46320600D02*
X159563300Y-37500000D01*
X119335000Y-46320600D02*
X150742700Y-46320600D01*
X160740000Y-37500000D02*
X159563300Y-37500000D01*
X115841700Y-111841700D02*
X146215000Y-111841700D01*
X146215000Y-111841700D02*
X156373300Y-122000000D01*
X157800000Y-122000000D02*
X156373300Y-122000000D01*
X108500000Y-104500000D02*
X115841700Y-111841700D01*
X115230000Y-90000000D02*
X115230000Y-88948300D01*
X173196100Y-87742600D02*
X116435700Y-87742600D01*
X116435700Y-87742600D02*
X115230000Y-88948300D01*
X122804600Y-102503000D02*
X126822100Y-102503000D01*
X116168800Y-95867200D02*
X122804600Y-102503000D01*
X134251300Y-87096300D02*
X159299100Y-87096300D01*
X173323400Y-86879500D02*
X159515900Y-86879500D01*
X133626300Y-86471300D02*
X134251300Y-87096300D01*
X159515900Y-86879500D02*
X159299100Y-87096300D01*
X163904500Y-92225900D02*
X164253800Y-92575200D01*
X132101700Y-89143200D02*
X163904500Y-89143200D01*
X163904500Y-89143200D02*
X163904500Y-92225900D01*
X163904500Y-89143200D02*
X163928500Y-89119200D01*
G04 #@! TA.AperFunction,Conductor*
G36*
X144518242Y-103724885D02*
G01*
X144538884Y-103741519D01*
X150173872Y-109376507D01*
X150207357Y-109437830D01*
X150202373Y-109507522D01*
X150160501Y-109563455D01*
X150142486Y-109574673D01*
X150038386Y-109627715D01*
X149872786Y-109748028D01*
X149728028Y-109892786D01*
X149607713Y-110058388D01*
X149560203Y-110151630D01*
X149512228Y-110202426D01*
X149444407Y-110219220D01*
X149378272Y-110196682D01*
X149339234Y-110151628D01*
X149291861Y-110058652D01*
X149171582Y-109893105D01*
X149171582Y-109893104D01*
X149026895Y-109748417D01*
X148861349Y-109628140D01*
X148679029Y-109535244D01*
X148484413Y-109472009D01*
X148430000Y-109463390D01*
X148430000Y-110306988D01*
X148372993Y-110274075D01*
X148245826Y-110240000D01*
X148114174Y-110240000D01*
X147987007Y-110274075D01*
X147930000Y-110306988D01*
X147930000Y-109463390D01*
X147875586Y-109472009D01*
X147680970Y-109535244D01*
X147498650Y-109628140D01*
X147333105Y-109748417D01*
X147333104Y-109748417D01*
X147188417Y-109893104D01*
X147188417Y-109893105D01*
X147068140Y-110058650D01*
X147020765Y-110151629D01*
X146972790Y-110202425D01*
X146904969Y-110219220D01*
X146838834Y-110196682D01*
X146799795Y-110151629D01*
X146752419Y-110058650D01*
X146752287Y-110058390D01*
X146744556Y-110047749D01*
X146631971Y-109892786D01*
X146487213Y-109748028D01*
X146321613Y-109627715D01*
X146321612Y-109627714D01*
X146321610Y-109627713D01*
X146264653Y-109598691D01*
X146139223Y-109534781D01*
X145944534Y-109471522D01*
X145769995Y-109443878D01*
X145742352Y-109439500D01*
X145537648Y-109439500D01*
X145513329Y-109443351D01*
X145335465Y-109471522D01*
X145140776Y-109534781D01*
X144958386Y-109627715D01*
X144792786Y-109748028D01*
X144648028Y-109892786D01*
X144527715Y-110058386D01*
X144480485Y-110151080D01*
X144432510Y-110201876D01*
X144364689Y-110218671D01*
X144298554Y-110196134D01*
X144259515Y-110151080D01*
X144212419Y-110058650D01*
X144212287Y-110058390D01*
X144204556Y-110047749D01*
X144091971Y-109892786D01*
X143947213Y-109748028D01*
X143781613Y-109627715D01*
X143781612Y-109627714D01*
X143781610Y-109627713D01*
X143724653Y-109598691D01*
X143599223Y-109534781D01*
X143404534Y-109471522D01*
X143229995Y-109443878D01*
X143202352Y-109439500D01*
X142997648Y-109439500D01*
X142973329Y-109443351D01*
X142795465Y-109471522D01*
X142600776Y-109534781D01*
X142418386Y-109627715D01*
X142252786Y-109748028D01*
X142108032Y-109892782D01*
X142081668Y-109929070D01*
X142026338Y-109971735D01*
X141956724Y-109977714D01*
X141894929Y-109945108D01*
X141860572Y-109884269D01*
X141858060Y-109869438D01*
X141857640Y-109865533D01*
X141854091Y-109832517D01*
X141803796Y-109697669D01*
X141803795Y-109697668D01*
X141803793Y-109697664D01*
X141717547Y-109582455D01*
X141717544Y-109582452D01*
X141602335Y-109496206D01*
X141602328Y-109496202D01*
X141467482Y-109445908D01*
X141467483Y-109445908D01*
X141407883Y-109439501D01*
X141407881Y-109439500D01*
X141407873Y-109439500D01*
X141407864Y-109439500D01*
X139712129Y-109439500D01*
X139712123Y-109439501D01*
X139652516Y-109445908D01*
X139517671Y-109496202D01*
X139517664Y-109496206D01*
X139402455Y-109582452D01*
X139402452Y-109582455D01*
X139316206Y-109697664D01*
X139316202Y-109697671D01*
X139265908Y-109832517D01*
X139261939Y-109869438D01*
X139259500Y-109892127D01*
X139259500Y-110547007D01*
X139259501Y-111117200D01*
X139239816Y-111184239D01*
X139187013Y-111229994D01*
X139135501Y-111241200D01*
X116141798Y-111241200D01*
X116074759Y-111221515D01*
X116054117Y-111204881D01*
X109952798Y-105103563D01*
X109919313Y-105042240D01*
X109922547Y-104977566D01*
X109963553Y-104851368D01*
X109988637Y-104692993D01*
X110000500Y-104618097D01*
X110000500Y-104381902D01*
X109963553Y-104148631D01*
X109890565Y-103924000D01*
X109870945Y-103885494D01*
X109858049Y-103816825D01*
X109884326Y-103752085D01*
X109941432Y-103711828D01*
X109981430Y-103705200D01*
X144451203Y-103705200D01*
X144518242Y-103724885D01*
G37*
G04 #@! TD.AperFunction*
G04 #@! TA.AperFunction,Conductor*
G36*
X141352542Y-90620185D02*
G01*
X141373184Y-90636819D01*
X142074525Y-91338160D01*
X142108010Y-91399483D01*
X142108461Y-91401649D01*
X142139361Y-91556991D01*
X142139364Y-91557001D01*
X142199702Y-91702672D01*
X142199709Y-91702685D01*
X142287310Y-91833788D01*
X142287313Y-91833792D01*
X142398807Y-91945286D01*
X142398811Y-91945289D01*
X142529914Y-92032890D01*
X142529927Y-92032897D01*
X142607217Y-92064911D01*
X142675603Y-92093237D01*
X142830253Y-92123999D01*
X142830256Y-92124000D01*
X142830258Y-92124000D01*
X142987944Y-92124000D01*
X142987945Y-92123999D01*
X143142597Y-92093237D01*
X143288279Y-92032894D01*
X143342763Y-91996489D01*
X143419975Y-91944898D01*
X143486653Y-91924020D01*
X143488866Y-91924000D01*
X146353800Y-91924000D01*
X146420839Y-91943685D01*
X146466594Y-91996489D01*
X146477800Y-92048000D01*
X146477800Y-94264945D01*
X146458115Y-94331984D01*
X146405311Y-94377739D01*
X146336153Y-94387683D01*
X146297505Y-94375430D01*
X146139223Y-94294782D01*
X146139222Y-94294781D01*
X146139219Y-94294780D01*
X146059035Y-94268726D01*
X145944534Y-94231522D01*
X145769995Y-94203878D01*
X145742352Y-94199500D01*
X145537648Y-94199500D01*
X145513329Y-94203351D01*
X145335465Y-94231522D01*
X145140776Y-94294781D01*
X144958386Y-94387715D01*
X144792786Y-94508028D01*
X144648028Y-94652786D01*
X144527713Y-94818388D01*
X144480203Y-94911630D01*
X144432228Y-94962426D01*
X144364407Y-94979220D01*
X144298272Y-94956682D01*
X144259234Y-94911628D01*
X144211861Y-94818652D01*
X144091582Y-94653105D01*
X144091582Y-94653104D01*
X143946895Y-94508417D01*
X143781349Y-94388140D01*
X143599029Y-94295244D01*
X143404413Y-94232009D01*
X143350000Y-94223390D01*
X143350000Y-95066988D01*
X143292993Y-95034075D01*
X143165826Y-95000000D01*
X143034174Y-95000000D01*
X142907007Y-95034075D01*
X142850000Y-95066988D01*
X142850000Y-94223390D01*
X142795586Y-94232009D01*
X142600970Y-94295244D01*
X142418650Y-94388140D01*
X142253105Y-94508417D01*
X142253104Y-94508417D01*
X142108417Y-94653104D01*
X142108417Y-94653105D01*
X141988140Y-94818650D01*
X141940765Y-94911629D01*
X141892790Y-94962425D01*
X141824969Y-94979220D01*
X141758834Y-94956682D01*
X141719795Y-94911629D01*
X141708990Y-94890424D01*
X141672287Y-94818390D01*
X141664556Y-94807749D01*
X141551971Y-94652786D01*
X141407213Y-94508028D01*
X141241613Y-94387715D01*
X141241612Y-94387714D01*
X141241610Y-94387713D01*
X141184653Y-94358691D01*
X141059223Y-94294781D01*
X140864534Y-94231522D01*
X140689995Y-94203878D01*
X140662352Y-94199500D01*
X140457648Y-94199500D01*
X140433329Y-94203351D01*
X140255465Y-94231522D01*
X140060776Y-94294781D01*
X139878386Y-94387715D01*
X139712786Y-94508028D01*
X139712782Y-94508032D01*
X139601856Y-94618959D01*
X139540533Y-94652444D01*
X139470841Y-94647460D01*
X139426494Y-94618959D01*
X135619716Y-90812181D01*
X135586231Y-90750858D01*
X135591215Y-90681166D01*
X135633087Y-90625233D01*
X135698551Y-90600816D01*
X135707397Y-90600500D01*
X141285503Y-90600500D01*
X141352542Y-90620185D01*
G37*
G04 #@! TD.AperFunction*
G04 #@! TA.AperFunction,Conductor*
G36*
X179942539Y-30520185D02*
G01*
X179988294Y-30572989D01*
X179999500Y-30624500D01*
X179999500Y-125375500D01*
X179979815Y-125442539D01*
X179927011Y-125488294D01*
X179875500Y-125499500D01*
X95124500Y-125499500D01*
X95057461Y-125479815D01*
X95011706Y-125427011D01*
X95000500Y-125375500D01*
X95000500Y-120868872D01*
X97499500Y-120868872D01*
X97499500Y-121131127D01*
X97516453Y-121259890D01*
X97533730Y-121391116D01*
X97594378Y-121617459D01*
X97601602Y-121644418D01*
X97601605Y-121644428D01*
X97701953Y-121886690D01*
X97701958Y-121886700D01*
X97833075Y-122113803D01*
X97992718Y-122321851D01*
X97992726Y-122321860D01*
X98178140Y-122507274D01*
X98178148Y-122507281D01*
X98386196Y-122666924D01*
X98613299Y-122798041D01*
X98613309Y-122798046D01*
X98855571Y-122898394D01*
X98855581Y-122898398D01*
X99108884Y-122966270D01*
X99368880Y-123000500D01*
X99368887Y-123000500D01*
X99631113Y-123000500D01*
X99631120Y-123000500D01*
X99891116Y-122966270D01*
X100144419Y-122898398D01*
X100382856Y-122799634D01*
X100386690Y-122798046D01*
X100386691Y-122798045D01*
X100386697Y-122798043D01*
X100613803Y-122666924D01*
X100821851Y-122507282D01*
X100821855Y-122507277D01*
X100821860Y-122507274D01*
X101007274Y-122321860D01*
X101007277Y-122321855D01*
X101007282Y-122321851D01*
X101166924Y-122113803D01*
X101298043Y-121886697D01*
X101398398Y-121644419D01*
X101466270Y-121391116D01*
X101500500Y-121131120D01*
X101500500Y-121102135D01*
X104109500Y-121102135D01*
X104109500Y-122897870D01*
X104109501Y-122897876D01*
X104115908Y-122957483D01*
X104166202Y-123092328D01*
X104166206Y-123092335D01*
X104252452Y-123207544D01*
X104252455Y-123207547D01*
X104367664Y-123293793D01*
X104367671Y-123293797D01*
X104502517Y-123344091D01*
X104502516Y-123344091D01*
X104509444Y-123344835D01*
X104562127Y-123350500D01*
X106357872Y-123350499D01*
X106417483Y-123344091D01*
X106552331Y-123293796D01*
X106667546Y-123207546D01*
X106753796Y-123092331D01*
X106804091Y-122957483D01*
X106810500Y-122897873D01*
X106810499Y-122873979D01*
X106813330Y-122860963D01*
X106823940Y-122841525D01*
X106830179Y-122820275D01*
X106846803Y-122799643D01*
X106846808Y-122799636D01*
X106846811Y-122799634D01*
X106846818Y-122799626D01*
X107517037Y-122129408D01*
X107534075Y-122192993D01*
X107599901Y-122307007D01*
X107692993Y-122400099D01*
X107807007Y-122465925D01*
X107870590Y-122482962D01*
X107238282Y-123115269D01*
X107238282Y-123115270D01*
X107292449Y-123154624D01*
X107481782Y-123251095D01*
X107683870Y-123316757D01*
X107893754Y-123350000D01*
X108106246Y-123350000D01*
X108316127Y-123316757D01*
X108316130Y-123316757D01*
X108518217Y-123251095D01*
X108707554Y-123154622D01*
X108761716Y-123115270D01*
X108761717Y-123115270D01*
X108129408Y-122482962D01*
X108192993Y-122465925D01*
X108307007Y-122400099D01*
X108400099Y-122307007D01*
X108465925Y-122192993D01*
X108482962Y-122129409D01*
X109115270Y-122761717D01*
X109115270Y-122761716D01*
X109154622Y-122707554D01*
X109251095Y-122518217D01*
X109316757Y-122316130D01*
X109316757Y-122316127D01*
X109350000Y-122106246D01*
X109350000Y-121893753D01*
X109316757Y-121683872D01*
X109316757Y-121683869D01*
X109251095Y-121481782D01*
X109154624Y-121292449D01*
X109115270Y-121238282D01*
X109115269Y-121238282D01*
X108482962Y-121870590D01*
X108465925Y-121807007D01*
X108400099Y-121692993D01*
X108307007Y-121599901D01*
X108192993Y-121534075D01*
X108129409Y-121517037D01*
X108761716Y-120884728D01*
X108707550Y-120845375D01*
X108518217Y-120748904D01*
X108316129Y-120683242D01*
X108106246Y-120650000D01*
X107893754Y-120650000D01*
X107683872Y-120683242D01*
X107683869Y-120683242D01*
X107481782Y-120748904D01*
X107292439Y-120845380D01*
X107238282Y-120884727D01*
X107238282Y-120884728D01*
X107870591Y-121517037D01*
X107807007Y-121534075D01*
X107692993Y-121599901D01*
X107599901Y-121692993D01*
X107534075Y-121807007D01*
X107517037Y-121870591D01*
X106846818Y-121200372D01*
X106813333Y-121139049D01*
X106813330Y-121139036D01*
X106810499Y-121126015D01*
X106810499Y-121102128D01*
X106804091Y-121042517D01*
X106775926Y-120967002D01*
X106753798Y-120907673D01*
X106753793Y-120907664D01*
X106667547Y-120792455D01*
X106667544Y-120792452D01*
X106552335Y-120706206D01*
X106552328Y-120706202D01*
X106417482Y-120655908D01*
X106417483Y-120655908D01*
X106357883Y-120649501D01*
X106357881Y-120649500D01*
X106357873Y-120649500D01*
X106357864Y-120649500D01*
X104562129Y-120649500D01*
X104562123Y-120649501D01*
X104502516Y-120655908D01*
X104367671Y-120706202D01*
X104367664Y-120706206D01*
X104252455Y-120792452D01*
X104252452Y-120792455D01*
X104166206Y-120907664D01*
X104166202Y-120907671D01*
X104115908Y-121042517D01*
X104109501Y-121102116D01*
X104109500Y-121102135D01*
X101500500Y-121102135D01*
X101500500Y-120868880D01*
X101466270Y-120608884D01*
X101398398Y-120355581D01*
X101386613Y-120327129D01*
X101298046Y-120113309D01*
X101298041Y-120113299D01*
X101166924Y-119886196D01*
X101007281Y-119678148D01*
X101007274Y-119678140D01*
X100821860Y-119492726D01*
X100821851Y-119492718D01*
X100613803Y-119333075D01*
X100386700Y-119201958D01*
X100386690Y-119201953D01*
X100144428Y-119101605D01*
X100144421Y-119101603D01*
X100144419Y-119101602D01*
X99891116Y-119033730D01*
X99833339Y-119026123D01*
X99631127Y-118999500D01*
X99631120Y-118999500D01*
X99368880Y-118999500D01*
X99368872Y-118999500D01*
X99137772Y-119029926D01*
X99108884Y-119033730D01*
X98855581Y-119101602D01*
X98855571Y-119101605D01*
X98613309Y-119201953D01*
X98613299Y-119201958D01*
X98386196Y-119333075D01*
X98178148Y-119492718D01*
X97992718Y-119678148D01*
X97833075Y-119886196D01*
X97701958Y-120113299D01*
X97701953Y-120113309D01*
X97601605Y-120355571D01*
X97601602Y-120355581D01*
X97533730Y-120608885D01*
X97499500Y-120868872D01*
X95000500Y-120868872D01*
X95000500Y-118852135D01*
X119399500Y-118852135D01*
X119399500Y-120647870D01*
X119399501Y-120647876D01*
X119405908Y-120707483D01*
X119456202Y-120842328D01*
X119456206Y-120842335D01*
X119542452Y-120957544D01*
X119542455Y-120957547D01*
X119657664Y-121043793D01*
X119657671Y-121043797D01*
X119789082Y-121092810D01*
X119845016Y-121134681D01*
X119869433Y-121200145D01*
X119854582Y-121268418D01*
X119833431Y-121296673D01*
X119719889Y-121410215D01*
X119594951Y-121582179D01*
X119498444Y-121771585D01*
X119432753Y-121973760D01*
X119399500Y-122183713D01*
X119399500Y-122396286D01*
X119426762Y-122568415D01*
X119432754Y-122606243D01*
X119495591Y-122799636D01*
X119498444Y-122808414D01*
X119594951Y-122997820D01*
X119719890Y-123169786D01*
X119870213Y-123320109D01*
X120042179Y-123445048D01*
X120042181Y-123445049D01*
X120042184Y-123445051D01*
X120231588Y-123541557D01*
X120433757Y-123607246D01*
X120643713Y-123640500D01*
X120643714Y-123640500D01*
X120856286Y-123640500D01*
X120856287Y-123640500D01*
X121066243Y-123607246D01*
X121268412Y-123541557D01*
X121457816Y-123445051D01*
X121479789Y-123429086D01*
X121629786Y-123320109D01*
X121629788Y-123320106D01*
X121629792Y-123320104D01*
X121780104Y-123169792D01*
X121899683Y-123005204D01*
X121955011Y-122962540D01*
X122024624Y-122956561D01*
X122086420Y-122989166D01*
X122100313Y-123005199D01*
X122208876Y-123154624D01*
X122219896Y-123169792D01*
X122370213Y-123320109D01*
X122542179Y-123445048D01*
X122542181Y-123445049D01*
X122542184Y-123445051D01*
X122731588Y-123541557D01*
X122933757Y-123607246D01*
X123143713Y-123640500D01*
X123143714Y-123640500D01*
X123356286Y-123640500D01*
X123356287Y-123640500D01*
X123566243Y-123607246D01*
X123768412Y-123541557D01*
X123957816Y-123445051D01*
X123979789Y-123429086D01*
X124129786Y-123320109D01*
X124129788Y-123320106D01*
X124129792Y-123320104D01*
X124280104Y-123169792D01*
X124280106Y-123169788D01*
X124280109Y-123169786D01*
X124405048Y-122997820D01*
X124405047Y-122997820D01*
X124405051Y-122997816D01*
X124501557Y-122808412D01*
X124567246Y-122606243D01*
X124600500Y-122396287D01*
X124600500Y-122183713D01*
X124567246Y-121973757D01*
X124501557Y-121771588D01*
X124405051Y-121582184D01*
X124405049Y-121582181D01*
X124405048Y-121582179D01*
X124280109Y-121410213D01*
X124129786Y-121259890D01*
X123957820Y-121134951D01*
X123957115Y-121134591D01*
X123949054Y-121130485D01*
X123898259Y-121082512D01*
X123881463Y-121014692D01*
X123903999Y-120948556D01*
X123949054Y-120909515D01*
X123957816Y-120905051D01*
X124007593Y-120868886D01*
X124129786Y-120780109D01*
X124129788Y-120780106D01*
X124129792Y-120780104D01*
X124280104Y-120629792D01*
X124280106Y-120629788D01*
X124280109Y-120629786D01*
X124405048Y-120457820D01*
X124405047Y-120457820D01*
X124405051Y-120457816D01*
X124501557Y-120268412D01*
X124567246Y-120066243D01*
X124600500Y-119856287D01*
X124600500Y-119643713D01*
X124567246Y-119433757D01*
X124501557Y-119231588D01*
X124405051Y-119042184D01*
X124405049Y-119042181D01*
X124405048Y-119042179D01*
X124280109Y-118870213D01*
X124129786Y-118719890D01*
X123957820Y-118594951D01*
X123768414Y-118498444D01*
X123768413Y-118498443D01*
X123768412Y-118498443D01*
X123566243Y-118432754D01*
X123566241Y-118432753D01*
X123566240Y-118432753D01*
X123404957Y-118407208D01*
X123356287Y-118399500D01*
X123143713Y-118399500D01*
X123095042Y-118407208D01*
X122933760Y-118432753D01*
X122731585Y-118498444D01*
X122542179Y-118594951D01*
X122370215Y-118719889D01*
X122285807Y-118804297D01*
X122224483Y-118837781D01*
X122154792Y-118832797D01*
X122098858Y-118790925D01*
X122081944Y-118759948D01*
X122043797Y-118657671D01*
X122043793Y-118657664D01*
X121957547Y-118542455D01*
X121957544Y-118542452D01*
X121842335Y-118456206D01*
X121842328Y-118456202D01*
X121707482Y-118405908D01*
X121707483Y-118405908D01*
X121647883Y-118399501D01*
X121647881Y-118399500D01*
X121647873Y-118399500D01*
X121647864Y-118399500D01*
X119852129Y-118399500D01*
X119852123Y-118399501D01*
X119792516Y-118405908D01*
X119657671Y-118456202D01*
X119657664Y-118456206D01*
X119542455Y-118542452D01*
X119542452Y-118542455D01*
X119456206Y-118657664D01*
X119456202Y-118657671D01*
X119405908Y-118792517D01*
X119399501Y-118852116D01*
X119399500Y-118852135D01*
X95000500Y-118852135D01*
X95000500Y-103452155D01*
X99400000Y-103452155D01*
X99400000Y-104250000D01*
X100466988Y-104250000D01*
X100434075Y-104307007D01*
X100400000Y-104434174D01*
X100400000Y-104565826D01*
X100434075Y-104692993D01*
X100466988Y-104750000D01*
X99400000Y-104750000D01*
X99400000Y-105547844D01*
X99406401Y-105607372D01*
X99406403Y-105607379D01*
X99456645Y-105742086D01*
X99456649Y-105742093D01*
X99542809Y-105857187D01*
X99542812Y-105857190D01*
X99657906Y-105943350D01*
X99657913Y-105943354D01*
X99792620Y-105993596D01*
X99792627Y-105993598D01*
X99852155Y-105999999D01*
X99852172Y-106000000D01*
X100650000Y-106000000D01*
X100650000Y-104933012D01*
X100707007Y-104965925D01*
X100834174Y-105000000D01*
X100965826Y-105000000D01*
X101092993Y-104965925D01*
X101150000Y-104933012D01*
X101150000Y-106000000D01*
X101947828Y-106000000D01*
X101947844Y-105999999D01*
X102007372Y-105993598D01*
X102007379Y-105993596D01*
X102142086Y-105943354D01*
X102142093Y-105943350D01*
X102257187Y-105857190D01*
X102257190Y-105857187D01*
X102343350Y-105742093D01*
X102343354Y-105742086D01*
X102393596Y-105607379D01*
X102393598Y-105607372D01*
X102399999Y-105547844D01*
X102400000Y-105547827D01*
X102400000Y-104750000D01*
X101333012Y-104750000D01*
X101365925Y-104692993D01*
X101400000Y-104565826D01*
X101400000Y-104434174D01*
X101365925Y-104307007D01*
X101333012Y-104250000D01*
X102400000Y-104250000D01*
X102400000Y-103452172D01*
X102399999Y-103452155D01*
X102393598Y-103392627D01*
X102393596Y-103392620D01*
X102343354Y-103257913D01*
X102343350Y-103257906D01*
X102257190Y-103142812D01*
X102257187Y-103142809D01*
X102142093Y-103056649D01*
X102142086Y-103056645D01*
X102007379Y-103006403D01*
X102007372Y-103006401D01*
X101947844Y-103000000D01*
X101150000Y-103000000D01*
X101150000Y-104066988D01*
X101092993Y-104034075D01*
X100965826Y-104000000D01*
X100834174Y-104000000D01*
X100707007Y-104034075D01*
X100650000Y-104066988D01*
X100650000Y-103000000D01*
X99852155Y-103000000D01*
X99792627Y-103006401D01*
X99792620Y-103006403D01*
X99657913Y-103056645D01*
X99657906Y-103056649D01*
X99542812Y-103142809D01*
X99542809Y-103142812D01*
X99456649Y-103257906D01*
X99456645Y-103257913D01*
X99406403Y-103392620D01*
X99406401Y-103392627D01*
X99400000Y-103452155D01*
X95000500Y-103452155D01*
X95000500Y-95411553D01*
X99772000Y-95411553D01*
X99772000Y-95569246D01*
X99802761Y-95723889D01*
X99802764Y-95723901D01*
X99863102Y-95869572D01*
X99863109Y-95869585D01*
X99950710Y-96000688D01*
X99950713Y-96000692D01*
X100062207Y-96112186D01*
X100062211Y-96112189D01*
X100193314Y-96199790D01*
X100193327Y-96199797D01*
X100305771Y-96246372D01*
X100339003Y-96260137D01*
X100403647Y-96272995D01*
X100494349Y-96291038D01*
X100556260Y-96323423D01*
X100557839Y-96324974D01*
X102381939Y-98149074D01*
X102381949Y-98149085D01*
X102386279Y-98153415D01*
X102386280Y-98153416D01*
X102498084Y-98265220D01*
X102584895Y-98315339D01*
X102584897Y-98315341D01*
X102622951Y-98337311D01*
X102635015Y-98344277D01*
X102787743Y-98385200D01*
X102945857Y-98385200D01*
X103920234Y-98385200D01*
X103987273Y-98404885D01*
X103989125Y-98406098D01*
X104120814Y-98494090D01*
X104120827Y-98494097D01*
X104266498Y-98554435D01*
X104266503Y-98554437D01*
X104331147Y-98567295D01*
X104421849Y-98585338D01*
X104483760Y-98617723D01*
X104485339Y-98619274D01*
X108653884Y-102787819D01*
X108687369Y-102849142D01*
X108682385Y-102918834D01*
X108640513Y-102974767D01*
X108575049Y-102999184D01*
X108566203Y-102999500D01*
X108381903Y-102999500D01*
X108148631Y-103036446D01*
X107924003Y-103109433D01*
X107713566Y-103216657D01*
X107656783Y-103257913D01*
X107522490Y-103355483D01*
X107522488Y-103355485D01*
X107522487Y-103355485D01*
X107355485Y-103522487D01*
X107355485Y-103522488D01*
X107355483Y-103522490D01*
X107295862Y-103604550D01*
X107216657Y-103713566D01*
X107109433Y-103924003D01*
X107036446Y-104148631D01*
X106999500Y-104381902D01*
X106999500Y-104618097D01*
X107036446Y-104851368D01*
X107109433Y-105075996D01*
X107216657Y-105286433D01*
X107355483Y-105477510D01*
X107522490Y-105644517D01*
X107713567Y-105783343D01*
X107812991Y-105834002D01*
X107924003Y-105890566D01*
X107924005Y-105890566D01*
X107924008Y-105890568D01*
X108016292Y-105920553D01*
X108148631Y-105963553D01*
X108381903Y-106000500D01*
X108381908Y-106000500D01*
X108618097Y-106000500D01*
X108724126Y-105983705D01*
X108851368Y-105963553D01*
X108977566Y-105922547D01*
X109047404Y-105920553D01*
X109103562Y-105952797D01*
X115472984Y-112322220D01*
X115472986Y-112322221D01*
X115472990Y-112322224D01*
X115609909Y-112401273D01*
X115609916Y-112401277D01*
X115762643Y-112442201D01*
X115762645Y-112442201D01*
X115928354Y-112442201D01*
X115928370Y-112442200D01*
X145914903Y-112442200D01*
X145981942Y-112461885D01*
X146002583Y-112478518D01*
X156004584Y-122480520D01*
X156112501Y-122542825D01*
X156160715Y-122593390D01*
X156174500Y-122650211D01*
X156174500Y-123672870D01*
X156174501Y-123672876D01*
X156180908Y-123732483D01*
X156231202Y-123867328D01*
X156231206Y-123867335D01*
X156317452Y-123982544D01*
X156317455Y-123982547D01*
X156432664Y-124068793D01*
X156432671Y-124068797D01*
X156567517Y-124119091D01*
X156567516Y-124119091D01*
X156574444Y-124119835D01*
X156627127Y-124125500D01*
X158972872Y-124125499D01*
X159032483Y-124119091D01*
X159167331Y-124068796D01*
X159282546Y-123982546D01*
X159368796Y-123867331D01*
X159419091Y-123732483D01*
X159425500Y-123672873D01*
X159425499Y-120327135D01*
X160274500Y-120327135D01*
X160274500Y-123672870D01*
X160274501Y-123672876D01*
X160280908Y-123732483D01*
X160331202Y-123867328D01*
X160331206Y-123867335D01*
X160417452Y-123982544D01*
X160417455Y-123982547D01*
X160532664Y-124068793D01*
X160532671Y-124068797D01*
X160667517Y-124119091D01*
X160667516Y-124119091D01*
X160674444Y-124119835D01*
X160727127Y-124125500D01*
X163072872Y-124125499D01*
X163132483Y-124119091D01*
X163267331Y-124068796D01*
X163382546Y-123982546D01*
X163468796Y-123867331D01*
X163519091Y-123732483D01*
X163525500Y-123672873D01*
X163525499Y-120327135D01*
X164374500Y-120327135D01*
X164374500Y-123672870D01*
X164374501Y-123672876D01*
X164380908Y-123732483D01*
X164431202Y-123867328D01*
X164431206Y-123867335D01*
X164517452Y-123982544D01*
X164517455Y-123982547D01*
X164632664Y-124068793D01*
X164632671Y-124068797D01*
X164767517Y-124119091D01*
X164767516Y-124119091D01*
X164774444Y-124119835D01*
X164827127Y-124125500D01*
X167172872Y-124125499D01*
X167232483Y-124119091D01*
X167367331Y-124068796D01*
X167482546Y-123982546D01*
X167568796Y-123867331D01*
X167619091Y-123732483D01*
X167625500Y-123672873D01*
X167625499Y-120868872D01*
X173499500Y-120868872D01*
X173499500Y-121131127D01*
X173516453Y-121259890D01*
X173533730Y-121391116D01*
X173594378Y-121617459D01*
X173601602Y-121644418D01*
X173601605Y-121644428D01*
X173701953Y-121886690D01*
X173701958Y-121886700D01*
X173833075Y-122113803D01*
X173992718Y-122321851D01*
X173992726Y-122321860D01*
X174178140Y-122507274D01*
X174178148Y-122507281D01*
X174386196Y-122666924D01*
X174613299Y-122798041D01*
X174613309Y-122798046D01*
X174855571Y-122898394D01*
X174855581Y-122898398D01*
X175108884Y-122966270D01*
X175368880Y-123000500D01*
X175368887Y-123000500D01*
X175631113Y-123000500D01*
X175631120Y-123000500D01*
X175891116Y-122966270D01*
X176144419Y-122898398D01*
X176382856Y-122799634D01*
X176386690Y-122798046D01*
X176386691Y-122798045D01*
X176386697Y-122798043D01*
X176613803Y-122666924D01*
X176821851Y-122507282D01*
X176821855Y-122507277D01*
X176821860Y-122507274D01*
X177007274Y-122321860D01*
X177007277Y-122321855D01*
X177007282Y-122321851D01*
X177166924Y-122113803D01*
X177298043Y-121886697D01*
X177398398Y-121644419D01*
X177466270Y-121391116D01*
X177500500Y-121131120D01*
X177500500Y-120868880D01*
X177466270Y-120608884D01*
X177398398Y-120355581D01*
X177386613Y-120327129D01*
X177298046Y-120113309D01*
X177298041Y-120113299D01*
X177166924Y-119886196D01*
X177007281Y-119678148D01*
X177007274Y-119678140D01*
X176821860Y-119492726D01*
X176821851Y-119492718D01*
X176613803Y-119333075D01*
X176386700Y-119201958D01*
X176386690Y-119201953D01*
X176144428Y-119101605D01*
X176144421Y-119101603D01*
X176144419Y-119101602D01*
X175891116Y-119033730D01*
X175833339Y-119026123D01*
X175631127Y-118999500D01*
X175631120Y-118999500D01*
X175368880Y-118999500D01*
X175368872Y-118999500D01*
X175137772Y-119029926D01*
X175108884Y-119033730D01*
X174855581Y-119101602D01*
X174855571Y-119101605D01*
X174613309Y-119201953D01*
X174613299Y-119201958D01*
X174386196Y-119333075D01*
X174178148Y-119492718D01*
X173992718Y-119678148D01*
X173833075Y-119886196D01*
X173701958Y-120113299D01*
X173701953Y-120113309D01*
X173601605Y-120355571D01*
X173601602Y-120355581D01*
X173533730Y-120608885D01*
X173499500Y-120868872D01*
X167625499Y-120868872D01*
X167625499Y-120327128D01*
X167620299Y-120278757D01*
X167619091Y-120267516D01*
X167568797Y-120132671D01*
X167568793Y-120132664D01*
X167482547Y-120017455D01*
X167482544Y-120017452D01*
X167367335Y-119931206D01*
X167367328Y-119931202D01*
X167232482Y-119880908D01*
X167232483Y-119880908D01*
X167172883Y-119874501D01*
X167172881Y-119874500D01*
X167172873Y-119874500D01*
X167172864Y-119874500D01*
X164827129Y-119874500D01*
X164827123Y-119874501D01*
X164767516Y-119880908D01*
X164632671Y-119931202D01*
X164632664Y-119931206D01*
X164517455Y-120017452D01*
X164517452Y-120017455D01*
X164431206Y-120132664D01*
X164431202Y-120132671D01*
X164380908Y-120267517D01*
X164374501Y-120327116D01*
X164374501Y-120327123D01*
X164374500Y-120327135D01*
X163525499Y-120327135D01*
X163525499Y-120327128D01*
X163520580Y-120281369D01*
X163519091Y-120267516D01*
X163468797Y-120132671D01*
X163468793Y-120132664D01*
X163382547Y-120017455D01*
X163382544Y-120017452D01*
X163267335Y-119931206D01*
X163267328Y-119931202D01*
X163132482Y-119880908D01*
X163132483Y-119880908D01*
X163072883Y-119874501D01*
X163072881Y-119874500D01*
X163072873Y-119874500D01*
X163072864Y-119874500D01*
X160727129Y-119874500D01*
X160727123Y-119874501D01*
X160667516Y-119880908D01*
X160532671Y-119931202D01*
X160532664Y-119931206D01*
X160417455Y-120017452D01*
X160417452Y-120017455D01*
X160331206Y-120132664D01*
X160331202Y-120132671D01*
X160280908Y-120267517D01*
X160274501Y-120327116D01*
X160274501Y-120327123D01*
X160274500Y-120327135D01*
X159425499Y-120327135D01*
X159425499Y-120327128D01*
X159420580Y-120281369D01*
X159419091Y-120267516D01*
X159368797Y-120132671D01*
X159368793Y-120132664D01*
X159282547Y-120017455D01*
X159282544Y-120017452D01*
X159167335Y-119931206D01*
X159167328Y-119931202D01*
X159032482Y-119880908D01*
X159032483Y-119880908D01*
X158972883Y-119874501D01*
X158972881Y-119874500D01*
X158972873Y-119874500D01*
X158972864Y-119874500D01*
X156627129Y-119874500D01*
X156627123Y-119874501D01*
X156567516Y-119880908D01*
X156432671Y-119931202D01*
X156432664Y-119931206D01*
X156317455Y-120017452D01*
X156317452Y-120017455D01*
X156231206Y-120132664D01*
X156231202Y-120132671D01*
X156180908Y-120267517D01*
X156174501Y-120327116D01*
X156174501Y-120327123D01*
X156174500Y-120327135D01*
X156174500Y-120652602D01*
X156154815Y-120719641D01*
X156102011Y-120765396D01*
X156032853Y-120775340D01*
X155969297Y-120746315D01*
X155962819Y-120740283D01*
X146779489Y-111556954D01*
X146746004Y-111495631D01*
X146750988Y-111425939D01*
X146756685Y-111412978D01*
X146784199Y-111358980D01*
X146799795Y-111328369D01*
X146847770Y-111277574D01*
X146915591Y-111260779D01*
X146981726Y-111283316D01*
X147020765Y-111328370D01*
X147068140Y-111421349D01*
X147188417Y-111586894D01*
X147188417Y-111586895D01*
X147333104Y-111731582D01*
X147498650Y-111851859D01*
X147680968Y-111944754D01*
X147875578Y-112007988D01*
X147930000Y-112016607D01*
X147930000Y-111173012D01*
X147987007Y-111205925D01*
X148114174Y-111240000D01*
X148245826Y-111240000D01*
X148372993Y-111205925D01*
X148430000Y-111173012D01*
X148430000Y-112016606D01*
X148484421Y-112007988D01*
X148679031Y-111944754D01*
X148861349Y-111851859D01*
X149026894Y-111731582D01*
X149026895Y-111731582D01*
X149171582Y-111586895D01*
X149171582Y-111586894D01*
X149291861Y-111421347D01*
X149339234Y-111328371D01*
X149387208Y-111277575D01*
X149455028Y-111260779D01*
X149521164Y-111283316D01*
X149560203Y-111328369D01*
X149607713Y-111421611D01*
X149728028Y-111587213D01*
X149872786Y-111731971D01*
X150027749Y-111844556D01*
X150038390Y-111852287D01*
X150154607Y-111911503D01*
X150220776Y-111945218D01*
X150220778Y-111945218D01*
X150220781Y-111945220D01*
X150325137Y-111979127D01*
X150415465Y-112008477D01*
X150516557Y-112024488D01*
X150617648Y-112040500D01*
X150617649Y-112040500D01*
X150822351Y-112040500D01*
X150822352Y-112040500D01*
X151024534Y-112008477D01*
X151219219Y-111945220D01*
X151401610Y-111852287D01*
X151494590Y-111784732D01*
X151567213Y-111731971D01*
X151567215Y-111731968D01*
X151567219Y-111731966D01*
X151711966Y-111587219D01*
X151711968Y-111587215D01*
X151711971Y-111587213D01*
X151832286Y-111421611D01*
X151832289Y-111421607D01*
X151852729Y-111381489D01*
X151873988Y-111358980D01*
X151893711Y-111335093D01*
X151897775Y-111333793D01*
X151900703Y-111330694D01*
X151930755Y-111323251D01*
X151960263Y-111313819D01*
X151966048Y-111314510D01*
X151968523Y-111313898D01*
X151995301Y-111318008D01*
X152057350Y-111334633D01*
X152117009Y-111370998D01*
X152135738Y-111398111D01*
X152147710Y-111421607D01*
X152147712Y-111421610D01*
X152268028Y-111587213D01*
X152412786Y-111731971D01*
X152567749Y-111844556D01*
X152578390Y-111852287D01*
X152694607Y-111911503D01*
X152760776Y-111945218D01*
X152760778Y-111945218D01*
X152760781Y-111945220D01*
X152865137Y-111979127D01*
X152955465Y-112008477D01*
X153056557Y-112024488D01*
X153157648Y-112040500D01*
X153157649Y-112040500D01*
X153362351Y-112040500D01*
X153362352Y-112040500D01*
X153564534Y-112008477D01*
X153759219Y-111945220D01*
X153941610Y-111852287D01*
X154034590Y-111784732D01*
X154107213Y-111731971D01*
X154107215Y-111731968D01*
X154107219Y-111731966D01*
X154251966Y-111587219D01*
X154251968Y-111587215D01*
X154251971Y-111587213D01*
X154372284Y-111421614D01*
X154372286Y-111421611D01*
X154372287Y-111421610D01*
X154419516Y-111328917D01*
X154467489Y-111278123D01*
X154535310Y-111261328D01*
X154601445Y-111283865D01*
X154640483Y-111328917D01*
X154661925Y-111370998D01*
X154687715Y-111421614D01*
X154808028Y-111587213D01*
X154952786Y-111731971D01*
X155107749Y-111844556D01*
X155118390Y-111852287D01*
X155234607Y-111911503D01*
X155300776Y-111945218D01*
X155300778Y-111945218D01*
X155300781Y-111945220D01*
X155405137Y-111979127D01*
X155495465Y-112008477D01*
X155596557Y-112024488D01*
X155697648Y-112040500D01*
X155697649Y-112040500D01*
X155902351Y-112040500D01*
X155902352Y-112040500D01*
X156104534Y-112008477D01*
X156299219Y-111945220D01*
X156481610Y-111852287D01*
X156574590Y-111784732D01*
X156647213Y-111731971D01*
X156647215Y-111731968D01*
X156647219Y-111731966D01*
X156791966Y-111587219D01*
X156791968Y-111587215D01*
X156791971Y-111587213D01*
X156912284Y-111421614D01*
X156912286Y-111421611D01*
X156912287Y-111421610D01*
X156959516Y-111328917D01*
X157007489Y-111278123D01*
X157075310Y-111261328D01*
X157141445Y-111283865D01*
X157180483Y-111328917D01*
X157201925Y-111370998D01*
X157227715Y-111421614D01*
X157348028Y-111587213D01*
X157492786Y-111731971D01*
X157647749Y-111844556D01*
X157658390Y-111852287D01*
X157774607Y-111911503D01*
X157840776Y-111945218D01*
X157840778Y-111945218D01*
X157840781Y-111945220D01*
X157945137Y-111979127D01*
X158035465Y-112008477D01*
X158136557Y-112024488D01*
X158237648Y-112040500D01*
X158237649Y-112040500D01*
X158442351Y-112040500D01*
X158442352Y-112040500D01*
X158644534Y-112008477D01*
X158839219Y-111945220D01*
X159021610Y-111852287D01*
X159114590Y-111784732D01*
X159187213Y-111731971D01*
X159187215Y-111731968D01*
X159187219Y-111731966D01*
X159331966Y-111587219D01*
X159331968Y-111587215D01*
X159331971Y-111587213D01*
X159452284Y-111421614D01*
X159452286Y-111421611D01*
X159452287Y-111421610D01*
X159499516Y-111328917D01*
X159547489Y-111278123D01*
X159615310Y-111261328D01*
X159681445Y-111283865D01*
X159720483Y-111328917D01*
X159741925Y-111370998D01*
X159767715Y-111421614D01*
X159888028Y-111587213D01*
X160032786Y-111731971D01*
X160187749Y-111844556D01*
X160198390Y-111852287D01*
X160314607Y-111911503D01*
X160380776Y-111945218D01*
X160380778Y-111945218D01*
X160380781Y-111945220D01*
X160485137Y-111979127D01*
X160575465Y-112008477D01*
X160676557Y-112024488D01*
X160777648Y-112040500D01*
X160777649Y-112040500D01*
X160982351Y-112040500D01*
X160982352Y-112040500D01*
X161184534Y-112008477D01*
X161379219Y-111945220D01*
X161561610Y-111852287D01*
X161654590Y-111784732D01*
X161727213Y-111731971D01*
X161727215Y-111731968D01*
X161727219Y-111731966D01*
X161871966Y-111587219D01*
X161871968Y-111587215D01*
X161871971Y-111587213D01*
X161992284Y-111421614D01*
X161992286Y-111421611D01*
X161992287Y-111421610D01*
X162039516Y-111328917D01*
X162087489Y-111278123D01*
X162155310Y-111261328D01*
X162221445Y-111283865D01*
X162260483Y-111328917D01*
X162281925Y-111370998D01*
X162307715Y-111421614D01*
X162428028Y-111587213D01*
X162572786Y-111731971D01*
X162727749Y-111844556D01*
X162738390Y-111852287D01*
X162854607Y-111911503D01*
X162920776Y-111945218D01*
X162920778Y-111945218D01*
X162920781Y-111945220D01*
X163025137Y-111979127D01*
X163115465Y-112008477D01*
X163216557Y-112024488D01*
X163317648Y-112040500D01*
X163317649Y-112040500D01*
X163522351Y-112040500D01*
X163522352Y-112040500D01*
X163724534Y-112008477D01*
X163919219Y-111945220D01*
X164101610Y-111852287D01*
X164194590Y-111784732D01*
X164267213Y-111731971D01*
X164267215Y-111731968D01*
X164267219Y-111731966D01*
X164411966Y-111587219D01*
X164411968Y-111587215D01*
X164411971Y-111587213D01*
X164532284Y-111421614D01*
X164532286Y-111421611D01*
X164532287Y-111421610D01*
X164579516Y-111328917D01*
X164627489Y-111278123D01*
X164695310Y-111261328D01*
X164761445Y-111283865D01*
X164800483Y-111328917D01*
X164821925Y-111370998D01*
X164847715Y-111421614D01*
X164968028Y-111587213D01*
X165112786Y-111731971D01*
X165267749Y-111844556D01*
X165278390Y-111852287D01*
X165394607Y-111911503D01*
X165460776Y-111945218D01*
X165460778Y-111945218D01*
X165460781Y-111945220D01*
X165565137Y-111979127D01*
X165655465Y-112008477D01*
X165756557Y-112024488D01*
X165857648Y-112040500D01*
X165857649Y-112040500D01*
X166062351Y-112040500D01*
X166062352Y-112040500D01*
X166264534Y-112008477D01*
X166459219Y-111945220D01*
X166641610Y-111852287D01*
X166734590Y-111784732D01*
X166807213Y-111731971D01*
X166807215Y-111731968D01*
X166807219Y-111731966D01*
X166951966Y-111587219D01*
X166951968Y-111587215D01*
X166951971Y-111587213D01*
X167072284Y-111421614D01*
X167072286Y-111421611D01*
X167072287Y-111421610D01*
X167119516Y-111328917D01*
X167167489Y-111278123D01*
X167235310Y-111261328D01*
X167301445Y-111283865D01*
X167340483Y-111328917D01*
X167361925Y-111370998D01*
X167387715Y-111421614D01*
X167508028Y-111587213D01*
X167652786Y-111731971D01*
X167807749Y-111844556D01*
X167818390Y-111852287D01*
X167934607Y-111911503D01*
X168000776Y-111945218D01*
X168000778Y-111945218D01*
X168000781Y-111945220D01*
X168105137Y-111979127D01*
X168195465Y-112008477D01*
X168296557Y-112024488D01*
X168397648Y-112040500D01*
X168397649Y-112040500D01*
X168602351Y-112040500D01*
X168602352Y-112040500D01*
X168804534Y-112008477D01*
X168999219Y-111945220D01*
X169181610Y-111852287D01*
X169274590Y-111784732D01*
X169347213Y-111731971D01*
X169347215Y-111731968D01*
X169347219Y-111731966D01*
X169491966Y-111587219D01*
X169491968Y-111587215D01*
X169491971Y-111587213D01*
X169612284Y-111421614D01*
X169612286Y-111421611D01*
X169612287Y-111421610D01*
X169659516Y-111328917D01*
X169707489Y-111278123D01*
X169775310Y-111261328D01*
X169841445Y-111283865D01*
X169880483Y-111328917D01*
X169901925Y-111370998D01*
X169927715Y-111421614D01*
X170048028Y-111587213D01*
X170192786Y-111731971D01*
X170347749Y-111844556D01*
X170358390Y-111852287D01*
X170474607Y-111911503D01*
X170540776Y-111945218D01*
X170540778Y-111945218D01*
X170540781Y-111945220D01*
X170645137Y-111979127D01*
X170735465Y-112008477D01*
X170836557Y-112024488D01*
X170937648Y-112040500D01*
X170937649Y-112040500D01*
X171142351Y-112040500D01*
X171142352Y-112040500D01*
X171344534Y-112008477D01*
X171539219Y-111945220D01*
X171721610Y-111852287D01*
X171814590Y-111784732D01*
X171887213Y-111731971D01*
X171887215Y-111731968D01*
X171887219Y-111731966D01*
X172031966Y-111587219D01*
X172031968Y-111587215D01*
X172031971Y-111587213D01*
X172152284Y-111421614D01*
X172152286Y-111421611D01*
X172152287Y-111421610D01*
X172199516Y-111328917D01*
X172247489Y-111278123D01*
X172315310Y-111261328D01*
X172381445Y-111283865D01*
X172420483Y-111328917D01*
X172441925Y-111370998D01*
X172467715Y-111421614D01*
X172588028Y-111587213D01*
X172732786Y-111731971D01*
X172887749Y-111844556D01*
X172898390Y-111852287D01*
X173014607Y-111911503D01*
X173080776Y-111945218D01*
X173080778Y-111945218D01*
X173080781Y-111945220D01*
X173185137Y-111979127D01*
X173275465Y-112008477D01*
X173376557Y-112024488D01*
X173477648Y-112040500D01*
X173477649Y-112040500D01*
X173682351Y-112040500D01*
X173682352Y-112040500D01*
X173884534Y-112008477D01*
X174079219Y-111945220D01*
X174261610Y-111852287D01*
X174354590Y-111784732D01*
X174427213Y-111731971D01*
X174427215Y-111731968D01*
X174427219Y-111731966D01*
X174571966Y-111587219D01*
X174571968Y-111587215D01*
X174571971Y-111587213D01*
X174692284Y-111421614D01*
X174692286Y-111421611D01*
X174692287Y-111421610D01*
X174739516Y-111328917D01*
X174787489Y-111278123D01*
X174855310Y-111261328D01*
X174921445Y-111283865D01*
X174960483Y-111328917D01*
X174981925Y-111370998D01*
X175007715Y-111421614D01*
X175128028Y-111587213D01*
X175272786Y-111731971D01*
X175427749Y-111844556D01*
X175438390Y-111852287D01*
X175554607Y-111911503D01*
X175620776Y-111945218D01*
X175620778Y-111945218D01*
X175620781Y-111945220D01*
X175725137Y-111979127D01*
X175815465Y-112008477D01*
X175916557Y-112024488D01*
X176017648Y-112040500D01*
X176017649Y-112040500D01*
X176222351Y-112040500D01*
X176222352Y-112040500D01*
X176424534Y-112008477D01*
X176619219Y-111945220D01*
X176801610Y-111852287D01*
X176894590Y-111784732D01*
X176967213Y-111731971D01*
X176967215Y-111731968D01*
X176967219Y-111731966D01*
X177111966Y-111587219D01*
X177111968Y-111587215D01*
X177111971Y-111587213D01*
X177186780Y-111484245D01*
X177232287Y-111421610D01*
X177325220Y-111239219D01*
X177388477Y-111044534D01*
X177420500Y-110842352D01*
X177420500Y-110637648D01*
X177388477Y-110435466D01*
X177387673Y-110432993D01*
X177325218Y-110240776D01*
X177232419Y-110058650D01*
X177232287Y-110058390D01*
X177224556Y-110047749D01*
X177111971Y-109892786D01*
X176967213Y-109748028D01*
X176801613Y-109627715D01*
X176801612Y-109627714D01*
X176801610Y-109627713D01*
X176744653Y-109598691D01*
X176619223Y-109534781D01*
X176424534Y-109471522D01*
X176249995Y-109443878D01*
X176222352Y-109439500D01*
X176017648Y-109439500D01*
X175993329Y-109443351D01*
X175815465Y-109471522D01*
X175620776Y-109534781D01*
X175438386Y-109627715D01*
X175272786Y-109748028D01*
X175128028Y-109892786D01*
X175007715Y-110058386D01*
X174960485Y-110151080D01*
X174912510Y-110201876D01*
X174844689Y-110218671D01*
X174778554Y-110196134D01*
X174739515Y-110151080D01*
X174692419Y-110058650D01*
X174692287Y-110058390D01*
X174684556Y-110047749D01*
X174571971Y-109892786D01*
X174427213Y-109748028D01*
X174261613Y-109627715D01*
X174261612Y-109627714D01*
X174261610Y-109627713D01*
X174204653Y-109598691D01*
X174079223Y-109534781D01*
X173884534Y-109471522D01*
X173709995Y-109443878D01*
X173682352Y-109439500D01*
X173477648Y-109439500D01*
X173453329Y-109443351D01*
X173275465Y-109471522D01*
X173080776Y-109534781D01*
X172898386Y-109627715D01*
X172732786Y-109748028D01*
X172588028Y-109892786D01*
X172467715Y-110058386D01*
X172420485Y-110151080D01*
X172372510Y-110201876D01*
X172304689Y-110218671D01*
X172238554Y-110196134D01*
X172199515Y-110151080D01*
X172152419Y-110058650D01*
X172152287Y-110058390D01*
X172144556Y-110047749D01*
X172031971Y-109892786D01*
X171887213Y-109748028D01*
X171721613Y-109627715D01*
X171721612Y-109627714D01*
X171721610Y-109627713D01*
X171664653Y-109598691D01*
X171539223Y-109534781D01*
X171344534Y-109471522D01*
X171169995Y-109443878D01*
X171142352Y-109439500D01*
X170937648Y-109439500D01*
X170913329Y-109443351D01*
X170735465Y-109471522D01*
X170540776Y-109534781D01*
X170358386Y-109627715D01*
X170192786Y-109748028D01*
X170048028Y-109892786D01*
X169927715Y-110058386D01*
X169880485Y-110151080D01*
X169832510Y-110201876D01*
X169764689Y-110218671D01*
X169698554Y-110196134D01*
X169659515Y-110151080D01*
X169612419Y-110058650D01*
X169612287Y-110058390D01*
X169604556Y-110047749D01*
X169491971Y-109892786D01*
X169347213Y-109748028D01*
X169181613Y-109627715D01*
X169181612Y-109627714D01*
X169181610Y-109627713D01*
X169124653Y-109598691D01*
X168999223Y-109534781D01*
X168804534Y-109471522D01*
X168629995Y-109443878D01*
X168602352Y-109439500D01*
X168397648Y-109439500D01*
X168373329Y-109443351D01*
X168195465Y-109471522D01*
X168000776Y-109534781D01*
X167818386Y-109627715D01*
X167652786Y-109748028D01*
X167508028Y-109892786D01*
X167387715Y-110058386D01*
X167340485Y-110151080D01*
X167292510Y-110201876D01*
X167224689Y-110218671D01*
X167158554Y-110196134D01*
X167119515Y-110151080D01*
X167072419Y-110058650D01*
X167072287Y-110058390D01*
X167064556Y-110047749D01*
X166951971Y-109892786D01*
X166807213Y-109748028D01*
X166641613Y-109627715D01*
X166641612Y-109627714D01*
X166641610Y-109627713D01*
X166584653Y-109598691D01*
X166459223Y-109534781D01*
X166264534Y-109471522D01*
X166089995Y-109443878D01*
X166062352Y-109439500D01*
X165857648Y-109439500D01*
X165833329Y-109443351D01*
X165655465Y-109471522D01*
X165460776Y-109534781D01*
X165278386Y-109627715D01*
X165112786Y-109748028D01*
X164968028Y-109892786D01*
X164847715Y-110058386D01*
X164800485Y-110151080D01*
X164752510Y-110201876D01*
X164684689Y-110218671D01*
X164618554Y-110196134D01*
X164579515Y-110151080D01*
X164532419Y-110058650D01*
X164532287Y-110058390D01*
X164524556Y-110047749D01*
X164411971Y-109892786D01*
X164267213Y-109748028D01*
X164101613Y-109627715D01*
X164101612Y-109627714D01*
X164101610Y-109627713D01*
X164044653Y-109598691D01*
X163919223Y-109534781D01*
X163724534Y-109471522D01*
X163549995Y-109443878D01*
X163522352Y-109439500D01*
X163317648Y-109439500D01*
X163293329Y-109443351D01*
X163115465Y-109471522D01*
X162920776Y-109534781D01*
X162738386Y-109627715D01*
X162572786Y-109748028D01*
X162428028Y-109892786D01*
X162307715Y-110058386D01*
X162260485Y-110151080D01*
X162212510Y-110201876D01*
X162144689Y-110218671D01*
X162078554Y-110196134D01*
X162039515Y-110151080D01*
X161992419Y-110058650D01*
X161992287Y-110058390D01*
X161984556Y-110047749D01*
X161871971Y-109892786D01*
X161727213Y-109748028D01*
X161561613Y-109627715D01*
X161561612Y-109627714D01*
X161561610Y-109627713D01*
X161504653Y-109598691D01*
X161379223Y-109534781D01*
X161184534Y-109471522D01*
X161009995Y-109443878D01*
X160982352Y-109439500D01*
X160777648Y-109439500D01*
X160753329Y-109443351D01*
X160575465Y-109471522D01*
X160380776Y-109534781D01*
X160198386Y-109627715D01*
X160032786Y-109748028D01*
X159888028Y-109892786D01*
X159767715Y-110058386D01*
X159720485Y-110151080D01*
X159672510Y-110201876D01*
X159604689Y-110218671D01*
X159538554Y-110196134D01*
X159499515Y-110151080D01*
X159452419Y-110058650D01*
X159452287Y-110058390D01*
X159444556Y-110047749D01*
X159331971Y-109892786D01*
X159187213Y-109748028D01*
X159021613Y-109627715D01*
X159021612Y-109627714D01*
X159021610Y-109627713D01*
X158964653Y-109598691D01*
X158839223Y-109534781D01*
X158644534Y-109471522D01*
X158469995Y-109443878D01*
X158442352Y-109439500D01*
X158237648Y-109439500D01*
X158213329Y-109443351D01*
X158035465Y-109471522D01*
X157840776Y-109534781D01*
X157658386Y-109627715D01*
X157492786Y-109748028D01*
X157348028Y-109892786D01*
X157227715Y-110058386D01*
X157180485Y-110151080D01*
X157132510Y-110201876D01*
X157064689Y-110218671D01*
X156998554Y-110196134D01*
X156959515Y-110151080D01*
X156912419Y-110058650D01*
X156912287Y-110058390D01*
X156904556Y-110047749D01*
X156791971Y-109892786D01*
X156647213Y-109748028D01*
X156481613Y-109627715D01*
X156481612Y-109627714D01*
X156481610Y-109627713D01*
X156424653Y-109598691D01*
X156299223Y-109534781D01*
X156104534Y-109471522D01*
X155929995Y-109443878D01*
X155902352Y-109439500D01*
X155697648Y-109439500D01*
X155673329Y-109443351D01*
X155495465Y-109471522D01*
X155300776Y-109534781D01*
X155118386Y-109627715D01*
X154952786Y-109748028D01*
X154808028Y-109892786D01*
X154687715Y-110058386D01*
X154640485Y-110151080D01*
X154592510Y-110201876D01*
X154524689Y-110218671D01*
X154458554Y-110196134D01*
X154419515Y-110151080D01*
X154372419Y-110058650D01*
X154372287Y-110058390D01*
X154364556Y-110047749D01*
X154251971Y-109892786D01*
X154107213Y-109748028D01*
X153941613Y-109627715D01*
X153941612Y-109627714D01*
X153941610Y-109627713D01*
X153884653Y-109598691D01*
X153759223Y-109534781D01*
X153564534Y-109471522D01*
X153389995Y-109443878D01*
X153362352Y-109439500D01*
X153157648Y-109439500D01*
X153133329Y-109443351D01*
X152955465Y-109471522D01*
X152760776Y-109534781D01*
X152578386Y-109627715D01*
X152412786Y-109748028D01*
X152409085Y-109751191D01*
X152407568Y-109749416D01*
X152354683Y-109778294D01*
X152284991Y-109773310D01*
X152240644Y-109744809D01*
X145238890Y-102743055D01*
X145238888Y-102743052D01*
X145120017Y-102624181D01*
X145120016Y-102624180D01*
X145021096Y-102567069D01*
X144983085Y-102545123D01*
X144830357Y-102504199D01*
X144672243Y-102504199D01*
X144664647Y-102504199D01*
X144664631Y-102504200D01*
X127740286Y-102504200D01*
X127673247Y-102484515D01*
X127627492Y-102431711D01*
X127618669Y-102404392D01*
X127591838Y-102269508D01*
X127591837Y-102269507D01*
X127591837Y-102269503D01*
X127591835Y-102269498D01*
X127531497Y-102123827D01*
X127531490Y-102123814D01*
X127443889Y-101992711D01*
X127443886Y-101992707D01*
X127332392Y-101881213D01*
X127332388Y-101881210D01*
X127201285Y-101793609D01*
X127201272Y-101793602D01*
X127055601Y-101733264D01*
X127055589Y-101733261D01*
X126900945Y-101702500D01*
X126900942Y-101702500D01*
X126743258Y-101702500D01*
X126743255Y-101702500D01*
X126588610Y-101733261D01*
X126588598Y-101733264D01*
X126442927Y-101793602D01*
X126442914Y-101793609D01*
X126311225Y-101881602D01*
X126244547Y-101902480D01*
X126242334Y-101902500D01*
X123104697Y-101902500D01*
X123037658Y-101882815D01*
X123017016Y-101866181D01*
X118571916Y-97421081D01*
X118538431Y-97359758D01*
X118543415Y-97290066D01*
X118585287Y-97234133D01*
X118650751Y-97209716D01*
X118659597Y-97209400D01*
X156271031Y-97209400D01*
X156271047Y-97209401D01*
X156278643Y-97209401D01*
X156436754Y-97209401D01*
X156436757Y-97209401D01*
X156589485Y-97168477D01*
X156648854Y-97134200D01*
X156726416Y-97089420D01*
X156838220Y-96977616D01*
X156838220Y-96977614D01*
X156848424Y-96967411D01*
X156848427Y-96967406D01*
X157320647Y-96495187D01*
X157381966Y-96461705D01*
X157451658Y-96466689D01*
X157488018Y-96490057D01*
X157489085Y-96488809D01*
X157492786Y-96491971D01*
X157647749Y-96604556D01*
X157658390Y-96612287D01*
X157762485Y-96665326D01*
X157840776Y-96705218D01*
X157840778Y-96705218D01*
X157840781Y-96705220D01*
X157924833Y-96732530D01*
X158035465Y-96768477D01*
X158115302Y-96781122D01*
X158237648Y-96800500D01*
X158237649Y-96800500D01*
X158442351Y-96800500D01*
X158442352Y-96800500D01*
X158644534Y-96768477D01*
X158839219Y-96705220D01*
X159021610Y-96612287D01*
X159182782Y-96495190D01*
X159187213Y-96491971D01*
X159187215Y-96491968D01*
X159187219Y-96491966D01*
X159331966Y-96347219D01*
X159331968Y-96347215D01*
X159331971Y-96347213D01*
X159452284Y-96181614D01*
X159452285Y-96181613D01*
X159452287Y-96181610D01*
X159499516Y-96088917D01*
X159547489Y-96038123D01*
X159615310Y-96021328D01*
X159681445Y-96043865D01*
X159720483Y-96088917D01*
X159764348Y-96175006D01*
X159767715Y-96181614D01*
X159888028Y-96347213D01*
X160032786Y-96491971D01*
X160187749Y-96604556D01*
X160198390Y-96612287D01*
X160302485Y-96665326D01*
X160380776Y-96705218D01*
X160380778Y-96705218D01*
X160380781Y-96705220D01*
X160464833Y-96732530D01*
X160575465Y-96768477D01*
X160655302Y-96781122D01*
X160777648Y-96800500D01*
X160777649Y-96800500D01*
X160982351Y-96800500D01*
X160982352Y-96800500D01*
X161184534Y-96768477D01*
X161379219Y-96705220D01*
X161561610Y-96612287D01*
X161722782Y-96495190D01*
X161727213Y-96491971D01*
X161727215Y-96491968D01*
X161727219Y-96491966D01*
X161871966Y-96347219D01*
X161871968Y-96347215D01*
X161871971Y-96347213D01*
X161992284Y-96181614D01*
X161992285Y-96181613D01*
X161992287Y-96181610D01*
X162039516Y-96088917D01*
X162087489Y-96038123D01*
X162155310Y-96021328D01*
X162221445Y-96043865D01*
X162260483Y-96088917D01*
X162304348Y-96175006D01*
X162307715Y-96181614D01*
X162428028Y-96347213D01*
X162572786Y-96491971D01*
X162727749Y-96604556D01*
X162738390Y-96612287D01*
X162842485Y-96665326D01*
X162920776Y-96705218D01*
X162920778Y-96705218D01*
X162920781Y-96705220D01*
X163004833Y-96732530D01*
X163115465Y-96768477D01*
X163195302Y-96781122D01*
X163317648Y-96800500D01*
X163317649Y-96800500D01*
X163522351Y-96800500D01*
X163522352Y-96800500D01*
X163724534Y-96768477D01*
X163919219Y-96705220D01*
X164101610Y-96612287D01*
X164262782Y-96495190D01*
X164267213Y-96491971D01*
X164267215Y-96491968D01*
X164267219Y-96491966D01*
X164411966Y-96347219D01*
X164411968Y-96347215D01*
X164411971Y-96347213D01*
X164532284Y-96181614D01*
X164532285Y-96181613D01*
X164532287Y-96181610D01*
X164579516Y-96088917D01*
X164627489Y-96038123D01*
X164695310Y-96021328D01*
X164761445Y-96043865D01*
X164800483Y-96088917D01*
X164844348Y-96175006D01*
X164847715Y-96181614D01*
X164968028Y-96347213D01*
X165112786Y-96491971D01*
X165278385Y-96612284D01*
X165278387Y-96612285D01*
X165278390Y-96612287D01*
X165382485Y-96665326D01*
X165433281Y-96713301D01*
X165450076Y-96781122D01*
X165427539Y-96847257D01*
X165413871Y-96863492D01*
X161695084Y-100582281D01*
X161633761Y-100615766D01*
X161607403Y-100618600D01*
X129608966Y-100618600D01*
X129541927Y-100598915D01*
X129540075Y-100597702D01*
X129408385Y-100509709D01*
X129408372Y-100509702D01*
X129262701Y-100449364D01*
X129262689Y-100449361D01*
X129108045Y-100418600D01*
X129108042Y-100418600D01*
X128950358Y-100418600D01*
X128950355Y-100418600D01*
X128795710Y-100449361D01*
X128795698Y-100449364D01*
X128650027Y-100509702D01*
X128650014Y-100509709D01*
X128518911Y-100597310D01*
X128518907Y-100597313D01*
X128407413Y-100708807D01*
X128407410Y-100708811D01*
X128319809Y-100839914D01*
X128319802Y-100839927D01*
X128259464Y-100985598D01*
X128259461Y-100985610D01*
X128228700Y-101140253D01*
X128228700Y-101297946D01*
X128259461Y-101452589D01*
X128259464Y-101452601D01*
X128319802Y-101598272D01*
X128319809Y-101598285D01*
X128407410Y-101729388D01*
X128407413Y-101729392D01*
X128518907Y-101840886D01*
X128518911Y-101840889D01*
X128650014Y-101928490D01*
X128650027Y-101928497D01*
X128795698Y-101988835D01*
X128795703Y-101988837D01*
X128950353Y-102019599D01*
X128950356Y-102019600D01*
X128950358Y-102019600D01*
X129108044Y-102019600D01*
X129108045Y-102019599D01*
X129262697Y-101988837D01*
X129408379Y-101928494D01*
X129447312Y-101902480D01*
X129540075Y-101840498D01*
X129606753Y-101819620D01*
X129608966Y-101819600D01*
X161820831Y-101819600D01*
X161820847Y-101819601D01*
X161828443Y-101819601D01*
X161986554Y-101819601D01*
X161986557Y-101819601D01*
X162139285Y-101778677D01*
X162217944Y-101733263D01*
X162276216Y-101699620D01*
X162388020Y-101587816D01*
X162388020Y-101587814D01*
X162398224Y-101577611D01*
X162398227Y-101577606D01*
X167480647Y-96495187D01*
X167541966Y-96461705D01*
X167611658Y-96466689D01*
X167648018Y-96490057D01*
X167649085Y-96488809D01*
X167652786Y-96491971D01*
X167807749Y-96604556D01*
X167818390Y-96612287D01*
X167922485Y-96665326D01*
X168000776Y-96705218D01*
X168000778Y-96705218D01*
X168000781Y-96705220D01*
X168084833Y-96732530D01*
X168195465Y-96768477D01*
X168275302Y-96781122D01*
X168397648Y-96800500D01*
X168397649Y-96800500D01*
X168602351Y-96800500D01*
X168602352Y-96800500D01*
X168804534Y-96768477D01*
X168999219Y-96705220D01*
X169181610Y-96612287D01*
X169342782Y-96495190D01*
X169347213Y-96491971D01*
X169347215Y-96491968D01*
X169347219Y-96491966D01*
X169491966Y-96347219D01*
X169491968Y-96347215D01*
X169491971Y-96347213D01*
X169612284Y-96181614D01*
X169612285Y-96181613D01*
X169612287Y-96181610D01*
X169659516Y-96088917D01*
X169707489Y-96038123D01*
X169775310Y-96021328D01*
X169841445Y-96043865D01*
X169880483Y-96088917D01*
X169924348Y-96175006D01*
X169927715Y-96181614D01*
X170048028Y-96347213D01*
X170192786Y-96491971D01*
X170347749Y-96604556D01*
X170358390Y-96612287D01*
X170462485Y-96665326D01*
X170540776Y-96705218D01*
X170540778Y-96705218D01*
X170540781Y-96705220D01*
X170624833Y-96732530D01*
X170735465Y-96768477D01*
X170815302Y-96781122D01*
X170937648Y-96800500D01*
X170937649Y-96800500D01*
X171142351Y-96800500D01*
X171142352Y-96800500D01*
X171344534Y-96768477D01*
X171539219Y-96705220D01*
X171721610Y-96612287D01*
X171882782Y-96495190D01*
X171887213Y-96491971D01*
X171887215Y-96491968D01*
X171887219Y-96491966D01*
X172031966Y-96347219D01*
X172031968Y-96347215D01*
X172031971Y-96347213D01*
X172152284Y-96181614D01*
X172152285Y-96181613D01*
X172152287Y-96181610D01*
X172199516Y-96088917D01*
X172247489Y-96038123D01*
X172315310Y-96021328D01*
X172381445Y-96043865D01*
X172420483Y-96088917D01*
X172464348Y-96175006D01*
X172467715Y-96181614D01*
X172588028Y-96347213D01*
X172732786Y-96491971D01*
X172887749Y-96604556D01*
X172898390Y-96612287D01*
X173002485Y-96665326D01*
X173080776Y-96705218D01*
X173080778Y-96705218D01*
X173080781Y-96705220D01*
X173164833Y-96732530D01*
X173275465Y-96768477D01*
X173355302Y-96781122D01*
X173477648Y-96800500D01*
X173477649Y-96800500D01*
X173682351Y-96800500D01*
X173682352Y-96800500D01*
X173884534Y-96768477D01*
X174079219Y-96705220D01*
X174261610Y-96612287D01*
X174422782Y-96495190D01*
X174427213Y-96491971D01*
X174427215Y-96491968D01*
X174427219Y-96491966D01*
X174571966Y-96347219D01*
X174571968Y-96347215D01*
X174571971Y-96347213D01*
X174692284Y-96181614D01*
X174692285Y-96181613D01*
X174692287Y-96181610D01*
X174739516Y-96088917D01*
X174787489Y-96038123D01*
X174855310Y-96021328D01*
X174921445Y-96043865D01*
X174960483Y-96088917D01*
X175004348Y-96175006D01*
X175007715Y-96181614D01*
X175128028Y-96347213D01*
X175272786Y-96491971D01*
X175427749Y-96604556D01*
X175438390Y-96612287D01*
X175542485Y-96665326D01*
X175620776Y-96705218D01*
X175620778Y-96705218D01*
X175620781Y-96705220D01*
X175704833Y-96732530D01*
X175815465Y-96768477D01*
X175895302Y-96781122D01*
X176017648Y-96800500D01*
X176017649Y-96800500D01*
X176222351Y-96800500D01*
X176222352Y-96800500D01*
X176424534Y-96768477D01*
X176619219Y-96705220D01*
X176801610Y-96612287D01*
X176962782Y-96495190D01*
X176967213Y-96491971D01*
X176967215Y-96491968D01*
X176967219Y-96491966D01*
X177111966Y-96347219D01*
X177111968Y-96347215D01*
X177111971Y-96347213D01*
X177164732Y-96274590D01*
X177232287Y-96181610D01*
X177325220Y-95999219D01*
X177388477Y-95804534D01*
X177420500Y-95602352D01*
X177420500Y-95397648D01*
X177388477Y-95195466D01*
X177387673Y-95192993D01*
X177325218Y-95000776D01*
X177285074Y-94921990D01*
X177232287Y-94818390D01*
X177224556Y-94807749D01*
X177111971Y-94652786D01*
X176967213Y-94508028D01*
X176801613Y-94387715D01*
X176801612Y-94387714D01*
X176801610Y-94387713D01*
X176744653Y-94358691D01*
X176619223Y-94294781D01*
X176424534Y-94231522D01*
X176249995Y-94203878D01*
X176222352Y-94199500D01*
X176017648Y-94199500D01*
X175993329Y-94203351D01*
X175815465Y-94231522D01*
X175620776Y-94294781D01*
X175438386Y-94387715D01*
X175272786Y-94508028D01*
X175128028Y-94652786D01*
X175007715Y-94818386D01*
X174960485Y-94911080D01*
X174912510Y-94961876D01*
X174844689Y-94978671D01*
X174778554Y-94956134D01*
X174739515Y-94911080D01*
X174729524Y-94891472D01*
X174692287Y-94818390D01*
X174684556Y-94807749D01*
X174571971Y-94652786D01*
X174427213Y-94508028D01*
X174261613Y-94387715D01*
X174261612Y-94387714D01*
X174261610Y-94387713D01*
X174204653Y-94358691D01*
X174079223Y-94294781D01*
X173884534Y-94231522D01*
X173709995Y-94203878D01*
X173682352Y-94199500D01*
X173477648Y-94199500D01*
X173453329Y-94203351D01*
X173275465Y-94231522D01*
X173080776Y-94294781D01*
X172898386Y-94387715D01*
X172732786Y-94508028D01*
X172588028Y-94652786D01*
X172467715Y-94818386D01*
X172420485Y-94911080D01*
X172372510Y-94961876D01*
X172304689Y-94978671D01*
X172238554Y-94956134D01*
X172199515Y-94911080D01*
X172189524Y-94891472D01*
X172152287Y-94818390D01*
X172144556Y-94807749D01*
X172031971Y-94652786D01*
X171887213Y-94508028D01*
X171721613Y-94387715D01*
X171721612Y-94387714D01*
X171721610Y-94387713D01*
X171664653Y-94358691D01*
X171539223Y-94294781D01*
X171344534Y-94231522D01*
X171169995Y-94203878D01*
X171142352Y-94199500D01*
X170937648Y-94199500D01*
X170913329Y-94203351D01*
X170735465Y-94231522D01*
X170540776Y-94294781D01*
X170358386Y-94387715D01*
X170192786Y-94508028D01*
X170048028Y-94652786D01*
X169927715Y-94818386D01*
X169880485Y-94911080D01*
X169832510Y-94961876D01*
X169764689Y-94978671D01*
X169698554Y-94956134D01*
X169659515Y-94911080D01*
X169649524Y-94891472D01*
X169612287Y-94818390D01*
X169604556Y-94807749D01*
X169491971Y-94652786D01*
X169347213Y-94508028D01*
X169181613Y-94387715D01*
X169181612Y-94387714D01*
X169181610Y-94387713D01*
X169124653Y-94358691D01*
X168999223Y-94294781D01*
X168804534Y-94231522D01*
X168629995Y-94203878D01*
X168602352Y-94199500D01*
X168397648Y-94199500D01*
X168373329Y-94203351D01*
X168195465Y-94231522D01*
X168000776Y-94294781D01*
X167818386Y-94387715D01*
X167652786Y-94508028D01*
X167508028Y-94652786D01*
X167387714Y-94818386D01*
X167375738Y-94841890D01*
X167352532Y-94866458D01*
X167329793Y-94891472D01*
X167328303Y-94892110D01*
X167327761Y-94892684D01*
X167297349Y-94905366D01*
X167235308Y-94921990D01*
X167165458Y-94920327D01*
X167107595Y-94881165D01*
X167092729Y-94858510D01*
X167072284Y-94818385D01*
X166951971Y-94652786D01*
X166807213Y-94508028D01*
X166641613Y-94387715D01*
X166641612Y-94387714D01*
X166641610Y-94387713D01*
X166584653Y-94358691D01*
X166459223Y-94294781D01*
X166264534Y-94231522D01*
X166089995Y-94203878D01*
X166062352Y-94199500D01*
X165857648Y-94199500D01*
X165833329Y-94203351D01*
X165655465Y-94231522D01*
X165460776Y-94294781D01*
X165278386Y-94387715D01*
X165112786Y-94508028D01*
X164968028Y-94652786D01*
X164847715Y-94818386D01*
X164800485Y-94911080D01*
X164752510Y-94961876D01*
X164684689Y-94978671D01*
X164618554Y-94956134D01*
X164579515Y-94911080D01*
X164569524Y-94891472D01*
X164532287Y-94818390D01*
X164524556Y-94807749D01*
X164411971Y-94652786D01*
X164267213Y-94508028D01*
X164101613Y-94387715D01*
X164101612Y-94387714D01*
X164101610Y-94387713D01*
X164044653Y-94358691D01*
X163919223Y-94294781D01*
X163724534Y-94231522D01*
X163549995Y-94203878D01*
X163522352Y-94199500D01*
X163317648Y-94199500D01*
X163293329Y-94203351D01*
X163115465Y-94231522D01*
X162920776Y-94294781D01*
X162738386Y-94387715D01*
X162572786Y-94508028D01*
X162428028Y-94652786D01*
X162307715Y-94818386D01*
X162260485Y-94911080D01*
X162212510Y-94961876D01*
X162144689Y-94978671D01*
X162078554Y-94956134D01*
X162039515Y-94911080D01*
X162029524Y-94891472D01*
X161992287Y-94818390D01*
X161984556Y-94807749D01*
X161871971Y-94652786D01*
X161727213Y-94508028D01*
X161561613Y-94387715D01*
X161561612Y-94387714D01*
X161561610Y-94387713D01*
X161504653Y-94358691D01*
X161379223Y-94294781D01*
X161184534Y-94231522D01*
X161009995Y-94203878D01*
X160982352Y-94199500D01*
X160777648Y-94199500D01*
X160753329Y-94203351D01*
X160575465Y-94231522D01*
X160380776Y-94294781D01*
X160198386Y-94387715D01*
X160032786Y-94508028D01*
X159888028Y-94652786D01*
X159767715Y-94818386D01*
X159720485Y-94911080D01*
X159672510Y-94961876D01*
X159604689Y-94978671D01*
X159538554Y-94956134D01*
X159499515Y-94911080D01*
X159489524Y-94891472D01*
X159452287Y-94818390D01*
X159444556Y-94807749D01*
X159331971Y-94652786D01*
X159187213Y-94508028D01*
X159021613Y-94387715D01*
X159021612Y-94387714D01*
X159021610Y-94387713D01*
X158964653Y-94358691D01*
X158839223Y-94294781D01*
X158644534Y-94231522D01*
X158469995Y-94203878D01*
X158442352Y-94199500D01*
X158237648Y-94199500D01*
X158213329Y-94203351D01*
X158035465Y-94231522D01*
X157840776Y-94294781D01*
X157658386Y-94387715D01*
X157492786Y-94508028D01*
X157348028Y-94652786D01*
X157227714Y-94818386D01*
X157215738Y-94841890D01*
X157192532Y-94866458D01*
X157169793Y-94891472D01*
X157168303Y-94892110D01*
X157167761Y-94892684D01*
X157137349Y-94905366D01*
X157075308Y-94921990D01*
X157005458Y-94920327D01*
X156947595Y-94881165D01*
X156932729Y-94858510D01*
X156912284Y-94818385D01*
X156791971Y-94652786D01*
X156647213Y-94508028D01*
X156481613Y-94387715D01*
X156481612Y-94387714D01*
X156481610Y-94387713D01*
X156424653Y-94358691D01*
X156299223Y-94294781D01*
X156104534Y-94231522D01*
X155929995Y-94203878D01*
X155902352Y-94199500D01*
X155697648Y-94199500D01*
X155673329Y-94203351D01*
X155495465Y-94231522D01*
X155300776Y-94294781D01*
X155118386Y-94387715D01*
X154952786Y-94508028D01*
X154808028Y-94652786D01*
X154687715Y-94818386D01*
X154640485Y-94911080D01*
X154592510Y-94961876D01*
X154524689Y-94978671D01*
X154458554Y-94956134D01*
X154419515Y-94911080D01*
X154409524Y-94891472D01*
X154372287Y-94818390D01*
X154364556Y-94807749D01*
X154251971Y-94652786D01*
X154107213Y-94508028D01*
X153941613Y-94387715D01*
X153941612Y-94387714D01*
X153941610Y-94387713D01*
X153884653Y-94358691D01*
X153759223Y-94294781D01*
X153564534Y-94231522D01*
X153389995Y-94203878D01*
X153362352Y-94199500D01*
X153157648Y-94199500D01*
X153133329Y-94203351D01*
X152955465Y-94231522D01*
X152760776Y-94294781D01*
X152578386Y-94387715D01*
X152412786Y-94508028D01*
X152268028Y-94652786D01*
X152147715Y-94818386D01*
X152100485Y-94911080D01*
X152052510Y-94961876D01*
X151984689Y-94978671D01*
X151918554Y-94956134D01*
X151879515Y-94911080D01*
X151869524Y-94891472D01*
X151832287Y-94818390D01*
X151824556Y-94807749D01*
X151711971Y-94652786D01*
X151567213Y-94508028D01*
X151401613Y-94387715D01*
X151401612Y-94387714D01*
X151401610Y-94387713D01*
X151344653Y-94358691D01*
X151219223Y-94294781D01*
X151024534Y-94231522D01*
X150849995Y-94203878D01*
X150822352Y-94199500D01*
X150617648Y-94199500D01*
X150593329Y-94203351D01*
X150415465Y-94231522D01*
X150220776Y-94294781D01*
X150038386Y-94387715D01*
X149872786Y-94508028D01*
X149728028Y-94652786D01*
X149607715Y-94818386D01*
X149560485Y-94911080D01*
X149512510Y-94961876D01*
X149444689Y-94978671D01*
X149378554Y-94956134D01*
X149339515Y-94911080D01*
X149329524Y-94891472D01*
X149292287Y-94818390D01*
X149284556Y-94807749D01*
X149171971Y-94652786D01*
X149027213Y-94508028D01*
X148861613Y-94387715D01*
X148861612Y-94387714D01*
X148861610Y-94387713D01*
X148804653Y-94358691D01*
X148679223Y-94294781D01*
X148484534Y-94231522D01*
X148309995Y-94203878D01*
X148282352Y-94199500D01*
X148077648Y-94199500D01*
X148010254Y-94210174D01*
X147875464Y-94231523D01*
X147841116Y-94242683D01*
X147771275Y-94244677D01*
X147711443Y-94208595D01*
X147680616Y-94145894D01*
X147678800Y-94124751D01*
X147678800Y-92048000D01*
X147698485Y-91980961D01*
X147751289Y-91935206D01*
X147802800Y-91924000D01*
X157079031Y-91924000D01*
X157079047Y-91924001D01*
X157086643Y-91924001D01*
X157244754Y-91924001D01*
X157244757Y-91924001D01*
X157397485Y-91883077D01*
X157447604Y-91854139D01*
X157534416Y-91804020D01*
X157646220Y-91692216D01*
X157646220Y-91692214D01*
X157656428Y-91682007D01*
X157656429Y-91682004D01*
X158323465Y-91014970D01*
X158384784Y-90981488D01*
X158386951Y-90981037D01*
X158387640Y-90980900D01*
X158387642Y-90980900D01*
X158542297Y-90950137D01*
X158687979Y-90889794D01*
X158819089Y-90802189D01*
X158930589Y-90690689D01*
X159018194Y-90559579D01*
X159078537Y-90413897D01*
X159109300Y-90259242D01*
X159109300Y-90101558D01*
X159109300Y-90101555D01*
X159109299Y-90101553D01*
X159078538Y-89946910D01*
X159078537Y-89946903D01*
X159065384Y-89915150D01*
X159057917Y-89845682D01*
X159089193Y-89783203D01*
X159149282Y-89747551D01*
X159179947Y-89743700D01*
X163180000Y-89743700D01*
X163247039Y-89763385D01*
X163292794Y-89816189D01*
X163304000Y-89867700D01*
X163304000Y-92139230D01*
X163303999Y-92139248D01*
X163303999Y-92304954D01*
X163303998Y-92304954D01*
X163303999Y-92304957D01*
X163344923Y-92457685D01*
X163367127Y-92496143D01*
X163423980Y-92594616D01*
X163429974Y-92600610D01*
X163437809Y-92613638D01*
X163442958Y-92633324D01*
X163452711Y-92651185D01*
X163453162Y-92653351D01*
X163484061Y-92808691D01*
X163484064Y-92808701D01*
X163544402Y-92954372D01*
X163544409Y-92954385D01*
X163632010Y-93085488D01*
X163632013Y-93085492D01*
X163743507Y-93196986D01*
X163743511Y-93196989D01*
X163874614Y-93284590D01*
X163874627Y-93284597D01*
X164020298Y-93344935D01*
X164020303Y-93344937D01*
X164174953Y-93375699D01*
X164174956Y-93375700D01*
X164174958Y-93375700D01*
X164332644Y-93375700D01*
X164332645Y-93375699D01*
X164487297Y-93344937D01*
X164632979Y-93284594D01*
X164764089Y-93196989D01*
X164875589Y-93085489D01*
X164963194Y-92954379D01*
X165023537Y-92808697D01*
X165054300Y-92654042D01*
X165054300Y-92496358D01*
X165054300Y-92496355D01*
X165054299Y-92496353D01*
X165023538Y-92341710D01*
X165023537Y-92341703D01*
X165023535Y-92341698D01*
X164963197Y-92196027D01*
X164963190Y-92196014D01*
X164875589Y-92064911D01*
X164875586Y-92064907D01*
X164764092Y-91953413D01*
X164764088Y-91953410D01*
X164632985Y-91865809D01*
X164632970Y-91865801D01*
X164581546Y-91844500D01*
X164527143Y-91800659D01*
X164505079Y-91734364D01*
X164505000Y-91729940D01*
X164505000Y-89726140D01*
X164524685Y-89659101D01*
X164541317Y-89638460D01*
X164550289Y-89629489D01*
X164637894Y-89498379D01*
X164698237Y-89352697D01*
X164729000Y-89198042D01*
X164729000Y-89040358D01*
X164729000Y-89040355D01*
X164728999Y-89040353D01*
X164699580Y-88892455D01*
X164698237Y-88885703D01*
X164690166Y-88866217D01*
X164637897Y-88740027D01*
X164637890Y-88740014D01*
X164550289Y-88608911D01*
X164550286Y-88608907D01*
X164496160Y-88554781D01*
X164462675Y-88493458D01*
X164467659Y-88423766D01*
X164509531Y-88367833D01*
X164574995Y-88343416D01*
X164583841Y-88343100D01*
X172616334Y-88343100D01*
X172683373Y-88362785D01*
X172685225Y-88363998D01*
X172816914Y-88451990D01*
X172816927Y-88451997D01*
X172926568Y-88497411D01*
X172962603Y-88512337D01*
X173090709Y-88537819D01*
X173117253Y-88543099D01*
X173117256Y-88543100D01*
X173117258Y-88543100D01*
X173274944Y-88543100D01*
X173274945Y-88543099D01*
X173429597Y-88512337D01*
X173575279Y-88451994D01*
X173706389Y-88364389D01*
X173817889Y-88252889D01*
X173905494Y-88121779D01*
X173965837Y-87976097D01*
X173996600Y-87821442D01*
X173996600Y-87663758D01*
X173996600Y-87663755D01*
X173996599Y-87663753D01*
X173965838Y-87509110D01*
X173965837Y-87509103D01*
X173952789Y-87477603D01*
X173945321Y-87408137D01*
X173964248Y-87361264D01*
X174032794Y-87258679D01*
X174093137Y-87112997D01*
X174123900Y-86958342D01*
X174123900Y-86800658D01*
X174123900Y-86800655D01*
X174123899Y-86800653D01*
X174093137Y-86646003D01*
X174053432Y-86550146D01*
X174032797Y-86500327D01*
X174032790Y-86500314D01*
X173945189Y-86369211D01*
X173945186Y-86369207D01*
X173833692Y-86257713D01*
X173833688Y-86257710D01*
X173702585Y-86170109D01*
X173702572Y-86170102D01*
X173556901Y-86109764D01*
X173556889Y-86109761D01*
X173402245Y-86079000D01*
X173402242Y-86079000D01*
X173244558Y-86079000D01*
X173244555Y-86079000D01*
X173089910Y-86109761D01*
X173089898Y-86109764D01*
X172944227Y-86170102D01*
X172944214Y-86170109D01*
X172812525Y-86258102D01*
X172745847Y-86278980D01*
X172743634Y-86279000D01*
X159594962Y-86279000D01*
X159594958Y-86278999D01*
X159436843Y-86278999D01*
X159378300Y-86294685D01*
X159366307Y-86295509D01*
X159363959Y-86294991D01*
X159357816Y-86295800D01*
X159220255Y-86295800D01*
X159065610Y-86326561D01*
X159065598Y-86326564D01*
X158919927Y-86386902D01*
X158919914Y-86386909D01*
X158788225Y-86474902D01*
X158721547Y-86495780D01*
X158719334Y-86495800D01*
X134551397Y-86495800D01*
X134521956Y-86487155D01*
X134491970Y-86480632D01*
X134486954Y-86476877D01*
X134484358Y-86476115D01*
X134463716Y-86459481D01*
X134460874Y-86456639D01*
X134427389Y-86395316D01*
X134426938Y-86393149D01*
X134407573Y-86295800D01*
X134396037Y-86237803D01*
X134380022Y-86199138D01*
X134335697Y-86092127D01*
X134335690Y-86092114D01*
X134269725Y-85993391D01*
X134248847Y-85926714D01*
X134267331Y-85859333D01*
X134319310Y-85812643D01*
X134372827Y-85800500D01*
X134412351Y-85800500D01*
X134412352Y-85800500D01*
X134614534Y-85768477D01*
X134809219Y-85705220D01*
X134991610Y-85612287D01*
X135120482Y-85518657D01*
X135157213Y-85491971D01*
X135157215Y-85491968D01*
X135157219Y-85491966D01*
X135301966Y-85347219D01*
X135301968Y-85347215D01*
X135301971Y-85347213D01*
X135406892Y-85202799D01*
X135422287Y-85181610D01*
X135515220Y-84999219D01*
X135578477Y-84804534D01*
X135610500Y-84602352D01*
X135610500Y-84397648D01*
X135578477Y-84195466D01*
X135515220Y-84000781D01*
X135515218Y-84000778D01*
X135515218Y-84000776D01*
X135463865Y-83899991D01*
X135422287Y-83818390D01*
X135406892Y-83797200D01*
X135301971Y-83652786D01*
X135157213Y-83508028D01*
X134991613Y-83387715D01*
X134991612Y-83387714D01*
X134991610Y-83387713D01*
X134931898Y-83357288D01*
X134809223Y-83294781D01*
X134614534Y-83231522D01*
X134439995Y-83203878D01*
X134412352Y-83199500D01*
X134207648Y-83199500D01*
X134183329Y-83203351D01*
X134005465Y-83231522D01*
X133810776Y-83294781D01*
X133628386Y-83387715D01*
X133462786Y-83508028D01*
X133318028Y-83652786D01*
X133197715Y-83818386D01*
X133104781Y-84000776D01*
X133041522Y-84195465D01*
X133009500Y-84397648D01*
X133009500Y-84602351D01*
X133041522Y-84804534D01*
X133104781Y-84999223D01*
X133156135Y-85100009D01*
X133189251Y-85165003D01*
X133197715Y-85181613D01*
X133318028Y-85347213D01*
X133461953Y-85491138D01*
X133495438Y-85552461D01*
X133490454Y-85622153D01*
X133448582Y-85678086D01*
X133398470Y-85700435D01*
X133392809Y-85701561D01*
X133392798Y-85701564D01*
X133247127Y-85761902D01*
X133247114Y-85761909D01*
X133116011Y-85849510D01*
X133116007Y-85849513D01*
X133004513Y-85961007D01*
X133004510Y-85961011D01*
X132916909Y-86092114D01*
X132916902Y-86092127D01*
X132856564Y-86237798D01*
X132856561Y-86237810D01*
X132825800Y-86392453D01*
X132825800Y-86550146D01*
X132856561Y-86704789D01*
X132856564Y-86704801D01*
X132916902Y-86850472D01*
X132916909Y-86850485D01*
X132982875Y-86949209D01*
X133003753Y-87015886D01*
X132985269Y-87083267D01*
X132933290Y-87129957D01*
X132879773Y-87142100D01*
X116514757Y-87142100D01*
X116356642Y-87142100D01*
X116203915Y-87183023D01*
X116203914Y-87183023D01*
X116203912Y-87183024D01*
X116203909Y-87183025D01*
X116153796Y-87211959D01*
X116153795Y-87211960D01*
X116110389Y-87237020D01*
X116066985Y-87262079D01*
X116066982Y-87262081D01*
X114749479Y-88579584D01*
X114732548Y-88608911D01*
X114718692Y-88632911D01*
X114715416Y-88638583D01*
X114684819Y-88691578D01*
X114634251Y-88739793D01*
X114565643Y-88753014D01*
X114564180Y-88752866D01*
X114532873Y-88749500D01*
X114532867Y-88749500D01*
X113387129Y-88749500D01*
X113387123Y-88749501D01*
X113327516Y-88755908D01*
X113192671Y-88806202D01*
X113192664Y-88806206D01*
X113077455Y-88892452D01*
X113077452Y-88892455D01*
X112991206Y-89007664D01*
X112991202Y-89007671D01*
X112940908Y-89142517D01*
X112934501Y-89202116D01*
X112934500Y-89202135D01*
X112934500Y-90582502D01*
X112914815Y-90649541D01*
X112862011Y-90695296D01*
X112792853Y-90705240D01*
X112729297Y-90676215D01*
X112722819Y-90670183D01*
X107436473Y-85383837D01*
X107402988Y-85322514D01*
X107402537Y-85320347D01*
X107379155Y-85202799D01*
X107371637Y-85165003D01*
X107344716Y-85100009D01*
X107311297Y-85019327D01*
X107311290Y-85019314D01*
X107223689Y-84888211D01*
X107223686Y-84888207D01*
X107112192Y-84776713D01*
X107112188Y-84776710D01*
X106981085Y-84689109D01*
X106981072Y-84689102D01*
X106835401Y-84628764D01*
X106835389Y-84628761D01*
X106680745Y-84598000D01*
X106680742Y-84598000D01*
X106523058Y-84598000D01*
X106523055Y-84598000D01*
X106368410Y-84628761D01*
X106368398Y-84628764D01*
X106222727Y-84689102D01*
X106222714Y-84689109D01*
X106091611Y-84776710D01*
X106091607Y-84776713D01*
X105980113Y-84888207D01*
X105980110Y-84888211D01*
X105892509Y-85019314D01*
X105892502Y-85019327D01*
X105832164Y-85164998D01*
X105832161Y-85165010D01*
X105801400Y-85319653D01*
X105801400Y-85477346D01*
X105832161Y-85631989D01*
X105832164Y-85632001D01*
X105892502Y-85777672D01*
X105892509Y-85777685D01*
X105980110Y-85908788D01*
X105980113Y-85908792D01*
X106091607Y-86020286D01*
X106091611Y-86020289D01*
X106222714Y-86107890D01*
X106222727Y-86107897D01*
X106368398Y-86168235D01*
X106368403Y-86168237D01*
X106433047Y-86181095D01*
X106523749Y-86199138D01*
X106585660Y-86231523D01*
X106587239Y-86233074D01*
X115541494Y-95187329D01*
X115574979Y-95248652D01*
X115569995Y-95318344D01*
X115549668Y-95353673D01*
X115547010Y-95356911D01*
X115459409Y-95488014D01*
X115459402Y-95488027D01*
X115399064Y-95633698D01*
X115399061Y-95633710D01*
X115368300Y-95788353D01*
X115368300Y-95946046D01*
X115399061Y-96100689D01*
X115399064Y-96100701D01*
X115459402Y-96246372D01*
X115459409Y-96246385D01*
X115547010Y-96377488D01*
X115547013Y-96377492D01*
X115658507Y-96488986D01*
X115658511Y-96488989D01*
X115789614Y-96576590D01*
X115789627Y-96576597D01*
X115875792Y-96612287D01*
X115935303Y-96636937D01*
X115999947Y-96649795D01*
X116090649Y-96667838D01*
X116152560Y-96700223D01*
X116154139Y-96701774D01*
X121744884Y-102292519D01*
X121778369Y-102353842D01*
X121773385Y-102423534D01*
X121731513Y-102479467D01*
X121666049Y-102503884D01*
X121657203Y-102504200D01*
X110120097Y-102504200D01*
X110053058Y-102484515D01*
X110032416Y-102467881D01*
X105334574Y-97770039D01*
X105301089Y-97708716D01*
X105300638Y-97706549D01*
X105269738Y-97551210D01*
X105269737Y-97551203D01*
X105269735Y-97551198D01*
X105209397Y-97405527D01*
X105209390Y-97405514D01*
X105121789Y-97274411D01*
X105121786Y-97274407D01*
X105010292Y-97162913D01*
X105010288Y-97162910D01*
X104879185Y-97075309D01*
X104879172Y-97075302D01*
X104733501Y-97014964D01*
X104733489Y-97014961D01*
X104578845Y-96984200D01*
X104578842Y-96984200D01*
X104421158Y-96984200D01*
X104421155Y-96984200D01*
X104266510Y-97014961D01*
X104266498Y-97014964D01*
X104120827Y-97075302D01*
X104120814Y-97075309D01*
X103989125Y-97163302D01*
X103922447Y-97184180D01*
X103920234Y-97184200D01*
X103166897Y-97184200D01*
X103099858Y-97164515D01*
X103079216Y-97147881D01*
X101407074Y-95475739D01*
X101373589Y-95414416D01*
X101373138Y-95412249D01*
X101342238Y-95256910D01*
X101342237Y-95256903D01*
X101313419Y-95187329D01*
X101281897Y-95111227D01*
X101281890Y-95111214D01*
X101194289Y-94980111D01*
X101194286Y-94980107D01*
X101082792Y-94868613D01*
X101082788Y-94868610D01*
X100951685Y-94781009D01*
X100951672Y-94781002D01*
X100806001Y-94720664D01*
X100805989Y-94720661D01*
X100651345Y-94689900D01*
X100651342Y-94689900D01*
X100493658Y-94689900D01*
X100493655Y-94689900D01*
X100339010Y-94720661D01*
X100338998Y-94720664D01*
X100193327Y-94781002D01*
X100193314Y-94781009D01*
X100062211Y-94868610D01*
X100062207Y-94868613D01*
X99950713Y-94980107D01*
X99950710Y-94980111D01*
X99863109Y-95111214D01*
X99863102Y-95111227D01*
X99802764Y-95256898D01*
X99802761Y-95256910D01*
X99772000Y-95411553D01*
X95000500Y-95411553D01*
X95000500Y-83899983D01*
X125389500Y-83899983D01*
X125389500Y-85100001D01*
X125389501Y-85100018D01*
X125400000Y-85202796D01*
X125400001Y-85202799D01*
X125438723Y-85319653D01*
X125455186Y-85369334D01*
X125547288Y-85518656D01*
X125671344Y-85642712D01*
X125820666Y-85734814D01*
X125987203Y-85789999D01*
X126089991Y-85800500D01*
X127290008Y-85800499D01*
X127392797Y-85789999D01*
X127559334Y-85734814D01*
X127708656Y-85642712D01*
X127832712Y-85518656D01*
X127924814Y-85369334D01*
X127979999Y-85202797D01*
X127990500Y-85100009D01*
X127990499Y-83899992D01*
X127979999Y-83797203D01*
X127924814Y-83630666D01*
X127832712Y-83481344D01*
X127708656Y-83357288D01*
X127559334Y-83265186D01*
X127392797Y-83210001D01*
X127392795Y-83210000D01*
X127290010Y-83199500D01*
X126089998Y-83199500D01*
X126089981Y-83199501D01*
X125987203Y-83210000D01*
X125987200Y-83210001D01*
X125820668Y-83265185D01*
X125820663Y-83265187D01*
X125671342Y-83357289D01*
X125547289Y-83481342D01*
X125455187Y-83630663D01*
X125455186Y-83630666D01*
X125400001Y-83797203D01*
X125400001Y-83797204D01*
X125400000Y-83797204D01*
X125389500Y-83899983D01*
X95000500Y-83899983D01*
X95000500Y-78328034D01*
X96499500Y-78328034D01*
X96499500Y-78671965D01*
X96533210Y-79014249D01*
X96600308Y-79351572D01*
X96700150Y-79680706D01*
X96831770Y-79998464D01*
X96831772Y-79998469D01*
X96993893Y-80301775D01*
X96993904Y-80301793D01*
X97184975Y-80587751D01*
X97184985Y-80587765D01*
X97403176Y-80853632D01*
X97646367Y-81096823D01*
X97646372Y-81096827D01*
X97646373Y-81096828D01*
X97912240Y-81315019D01*
X98198213Y-81506100D01*
X98198222Y-81506105D01*
X98198224Y-81506106D01*
X98501530Y-81668227D01*
X98501532Y-81668227D01*
X98501538Y-81668231D01*
X98819295Y-81799850D01*
X99148422Y-81899690D01*
X99485750Y-81966789D01*
X99828031Y-82000500D01*
X99828034Y-82000500D01*
X100171966Y-82000500D01*
X100171969Y-82000500D01*
X100514250Y-81966789D01*
X100851578Y-81899690D01*
X101180705Y-81799850D01*
X101498462Y-81668231D01*
X101801787Y-81506100D01*
X102087760Y-81315019D01*
X102353627Y-81096828D01*
X102596828Y-80853627D01*
X102815019Y-80587760D01*
X103006100Y-80301787D01*
X103168231Y-79998462D01*
X103299850Y-79680705D01*
X103399690Y-79351578D01*
X103466789Y-79014250D01*
X103500500Y-78671969D01*
X103500500Y-78328034D01*
X171499500Y-78328034D01*
X171499500Y-78671965D01*
X171533210Y-79014249D01*
X171600308Y-79351572D01*
X171700150Y-79680706D01*
X171831770Y-79998464D01*
X171831772Y-79998469D01*
X171993893Y-80301775D01*
X171993904Y-80301793D01*
X172184975Y-80587751D01*
X172184985Y-80587765D01*
X172403176Y-80853632D01*
X172646367Y-81096823D01*
X172646372Y-81096827D01*
X172646373Y-81096828D01*
X172912240Y-81315019D01*
X173198213Y-81506100D01*
X173198222Y-81506105D01*
X173198224Y-81506106D01*
X173501530Y-81668227D01*
X173501532Y-81668227D01*
X173501538Y-81668231D01*
X173819295Y-81799850D01*
X174148422Y-81899690D01*
X174485750Y-81966789D01*
X174828031Y-82000500D01*
X174828034Y-82000500D01*
X175171966Y-82000500D01*
X175171969Y-82000500D01*
X175514250Y-81966789D01*
X175851578Y-81899690D01*
X176180705Y-81799850D01*
X176498462Y-81668231D01*
X176801787Y-81506100D01*
X177087760Y-81315019D01*
X177353627Y-81096828D01*
X177596828Y-80853627D01*
X177815019Y-80587760D01*
X178006100Y-80301787D01*
X178168231Y-79998462D01*
X178299850Y-79680705D01*
X178399690Y-79351578D01*
X178466789Y-79014250D01*
X178500500Y-78671969D01*
X178500500Y-78328031D01*
X178466789Y-77985750D01*
X178399690Y-77648422D01*
X178299850Y-77319295D01*
X178168231Y-77001538D01*
X178078929Y-76834467D01*
X178006106Y-76698224D01*
X178006105Y-76698222D01*
X178006100Y-76698213D01*
X177815019Y-76412240D01*
X177596828Y-76146373D01*
X177596827Y-76146372D01*
X177596823Y-76146367D01*
X177353632Y-75903176D01*
X177087765Y-75684985D01*
X177087764Y-75684984D01*
X177087760Y-75684981D01*
X176801787Y-75493900D01*
X176801782Y-75493897D01*
X176801775Y-75493893D01*
X176498469Y-75331772D01*
X176498464Y-75331770D01*
X176180706Y-75200150D01*
X175851572Y-75100308D01*
X175514248Y-75033210D01*
X175514249Y-75033210D01*
X175256456Y-75007821D01*
X175171969Y-74999500D01*
X174828031Y-74999500D01*
X174749966Y-75007188D01*
X174485750Y-75033210D01*
X174148427Y-75100308D01*
X173819293Y-75200150D01*
X173501535Y-75331770D01*
X173501530Y-75331772D01*
X173198224Y-75493893D01*
X173198206Y-75493904D01*
X172912248Y-75684975D01*
X172912234Y-75684985D01*
X172646367Y-75903176D01*
X172403176Y-76146367D01*
X172184985Y-76412234D01*
X172184975Y-76412248D01*
X171993904Y-76698206D01*
X171993893Y-76698224D01*
X171831772Y-77001530D01*
X171831770Y-77001535D01*
X171700150Y-77319293D01*
X171600308Y-77648427D01*
X171533210Y-77985750D01*
X171499500Y-78328034D01*
X103500500Y-78328034D01*
X103500500Y-78328031D01*
X103466789Y-77985750D01*
X103399690Y-77648422D01*
X103299850Y-77319295D01*
X103168231Y-77001538D01*
X103078929Y-76834467D01*
X103006106Y-76698224D01*
X103006105Y-76698222D01*
X103006100Y-76698213D01*
X102815019Y-76412240D01*
X102596828Y-76146373D01*
X102596827Y-76146372D01*
X102596823Y-76146367D01*
X102353632Y-75903176D01*
X102087765Y-75684985D01*
X102087764Y-75684984D01*
X102087760Y-75684981D01*
X101801787Y-75493900D01*
X101801782Y-75493897D01*
X101801775Y-75493893D01*
X101498469Y-75331772D01*
X101498464Y-75331770D01*
X101180706Y-75200150D01*
X100851572Y-75100308D01*
X100514248Y-75033210D01*
X100514249Y-75033210D01*
X100256456Y-75007821D01*
X100171969Y-74999500D01*
X99828031Y-74999500D01*
X99749966Y-75007188D01*
X99485750Y-75033210D01*
X99148427Y-75100308D01*
X98819293Y-75200150D01*
X98501535Y-75331770D01*
X98501530Y-75331772D01*
X98198224Y-75493893D01*
X98198206Y-75493904D01*
X97912248Y-75684975D01*
X97912234Y-75684985D01*
X97646367Y-75903176D01*
X97403176Y-76146367D01*
X97184985Y-76412234D01*
X97184975Y-76412248D01*
X96993904Y-76698206D01*
X96993893Y-76698224D01*
X96831772Y-77001530D01*
X96831770Y-77001535D01*
X96700150Y-77319293D01*
X96600308Y-77648427D01*
X96533210Y-77985750D01*
X96499500Y-78328034D01*
X95000500Y-78328034D01*
X95000500Y-57829078D01*
X104600000Y-57829078D01*
X104600000Y-58049521D01*
X104634485Y-58267252D01*
X104702603Y-58476903D01*
X104702604Y-58476906D01*
X104802687Y-58673325D01*
X104932252Y-58851658D01*
X104932256Y-58851663D01*
X105088136Y-59007543D01*
X105088141Y-59007547D01*
X105227754Y-59108982D01*
X105270420Y-59164312D01*
X105276399Y-59233925D01*
X105243793Y-59295720D01*
X105227754Y-59309618D01*
X105088141Y-59411052D01*
X105088136Y-59411056D01*
X104932256Y-59566936D01*
X104932252Y-59566941D01*
X104802687Y-59745274D01*
X104702604Y-59941693D01*
X104702604Y-59941695D01*
X104634485Y-60151347D01*
X104600000Y-60369078D01*
X104600000Y-60589521D01*
X104634485Y-60807252D01*
X104702603Y-61016903D01*
X104702604Y-61016906D01*
X104802687Y-61213325D01*
X104932252Y-61391658D01*
X104932256Y-61391663D01*
X104982428Y-61441835D01*
X105015913Y-61503158D01*
X105010929Y-61572850D01*
X104969057Y-61628783D01*
X104938081Y-61645698D01*
X104858169Y-61675503D01*
X104858164Y-61675506D01*
X104742955Y-61761752D01*
X104742952Y-61761755D01*
X104656706Y-61876964D01*
X104656702Y-61876971D01*
X104606408Y-62011817D01*
X104600001Y-62071416D01*
X104600001Y-62071423D01*
X104600000Y-62071435D01*
X104600000Y-63967170D01*
X104600001Y-63967176D01*
X104606408Y-64026783D01*
X104656702Y-64161628D01*
X104656706Y-64161635D01*
X104742952Y-64276844D01*
X104742955Y-64276847D01*
X104858164Y-64363093D01*
X104858171Y-64363097D01*
X104993017Y-64413391D01*
X104993016Y-64413391D01*
X104999944Y-64414135D01*
X105052627Y-64419800D01*
X107748372Y-64419799D01*
X107807983Y-64413391D01*
X107942831Y-64363096D01*
X108058046Y-64276846D01*
X108144296Y-64161631D01*
X108194591Y-64026783D01*
X108201000Y-63967173D01*
X108200999Y-62071428D01*
X108194591Y-62011817D01*
X108144296Y-61876969D01*
X108144295Y-61876968D01*
X108144293Y-61876964D01*
X108058047Y-61761755D01*
X108058044Y-61761752D01*
X107942835Y-61675506D01*
X107942828Y-61675502D01*
X107862919Y-61645698D01*
X107806985Y-61603827D01*
X107782568Y-61538362D01*
X107797420Y-61470089D01*
X107818569Y-61441837D01*
X107868742Y-61391665D01*
X107998315Y-61213322D01*
X108031852Y-61147504D01*
X108079826Y-61096709D01*
X108142336Y-61079800D01*
X149119803Y-61079800D01*
X149186842Y-61099485D01*
X149207484Y-61116119D01*
X151529225Y-63437860D01*
X151562710Y-63499183D01*
X151563161Y-63501349D01*
X151594061Y-63656691D01*
X151594064Y-63656701D01*
X151654402Y-63802372D01*
X151654409Y-63802385D01*
X151742010Y-63933488D01*
X151742013Y-63933492D01*
X151853507Y-64044986D01*
X151853511Y-64044989D01*
X151984614Y-64132590D01*
X151984627Y-64132597D01*
X152130298Y-64192935D01*
X152130303Y-64192937D01*
X152284953Y-64223699D01*
X152284956Y-64223700D01*
X152284958Y-64223700D01*
X152442644Y-64223700D01*
X152442645Y-64223699D01*
X152597297Y-64192937D01*
X152742979Y-64132594D01*
X152874089Y-64044989D01*
X152985589Y-63933489D01*
X153073194Y-63802379D01*
X153133537Y-63656697D01*
X153164300Y-63502042D01*
X153164300Y-63344358D01*
X153164300Y-63344355D01*
X153164299Y-63344353D01*
X153133538Y-63189710D01*
X153133537Y-63189703D01*
X153133535Y-63189698D01*
X153073197Y-63044027D01*
X153073190Y-63044014D01*
X152985589Y-62912911D01*
X152985586Y-62912907D01*
X152874092Y-62801413D01*
X152874088Y-62801410D01*
X152742985Y-62713809D01*
X152742972Y-62713802D01*
X152597301Y-62653464D01*
X152597291Y-62653461D01*
X152441949Y-62622561D01*
X152380038Y-62590176D01*
X152378460Y-62588625D01*
X149907490Y-60117655D01*
X149907488Y-60117652D01*
X149788617Y-59998781D01*
X149788616Y-59998780D01*
X149689739Y-59941694D01*
X149689738Y-59941693D01*
X149651683Y-59919722D01*
X149595781Y-59904743D01*
X149498957Y-59878799D01*
X149340843Y-59878799D01*
X149333247Y-59878799D01*
X149333231Y-59878800D01*
X108142336Y-59878800D01*
X108075297Y-59859115D01*
X108031852Y-59811096D01*
X107998314Y-59745276D01*
X107868747Y-59566941D01*
X107868743Y-59566936D01*
X107712863Y-59411056D01*
X107712858Y-59411052D01*
X107573245Y-59309618D01*
X107530579Y-59254289D01*
X107524600Y-59184675D01*
X107557205Y-59122880D01*
X107573245Y-59108982D01*
X107712858Y-59007547D01*
X107712856Y-59007547D01*
X107712865Y-59007542D01*
X107868742Y-58851665D01*
X107998315Y-58673322D01*
X108098395Y-58476906D01*
X108166515Y-58267251D01*
X108201000Y-58049522D01*
X108201000Y-57829078D01*
X108166515Y-57611349D01*
X108098395Y-57401694D01*
X108098395Y-57401693D01*
X108063737Y-57333675D01*
X107998315Y-57205278D01*
X107981760Y-57182492D01*
X107868747Y-57026941D01*
X107868743Y-57026936D01*
X107712863Y-56871056D01*
X107712858Y-56871052D01*
X107572819Y-56769308D01*
X107530153Y-56713978D01*
X107524174Y-56644365D01*
X107556779Y-56582570D01*
X107572819Y-56568672D01*
X107712535Y-56467162D01*
X107712541Y-56467157D01*
X107868357Y-56311341D01*
X107997886Y-56133060D01*
X108097932Y-55936710D01*
X108166026Y-55727138D01*
X108166026Y-55727135D01*
X108178355Y-55649300D01*
X106948982Y-55649300D01*
X106959611Y-55630891D01*
X107000500Y-55478291D01*
X107000500Y-55320309D01*
X106959611Y-55167709D01*
X106948982Y-55149300D01*
X108178355Y-55149300D01*
X108166026Y-55071464D01*
X108166026Y-55071461D01*
X108097932Y-54861889D01*
X107997886Y-54665539D01*
X107868357Y-54487258D01*
X107712541Y-54331442D01*
X107534260Y-54201913D01*
X107337910Y-54101867D01*
X107128335Y-54033773D01*
X106910681Y-53999300D01*
X106650500Y-53999300D01*
X106650500Y-54850817D01*
X106632091Y-54840189D01*
X106479491Y-54799300D01*
X106321509Y-54799300D01*
X106168909Y-54840189D01*
X106150500Y-54850817D01*
X106150500Y-53999300D01*
X105890319Y-53999300D01*
X105672664Y-54033773D01*
X105463089Y-54101867D01*
X105266739Y-54201913D01*
X105088458Y-54331442D01*
X104932642Y-54487258D01*
X104803113Y-54665539D01*
X104703067Y-54861889D01*
X104634973Y-55071461D01*
X104634973Y-55071464D01*
X104622645Y-55149300D01*
X105852018Y-55149300D01*
X105841389Y-55167709D01*
X105800500Y-55320309D01*
X105800500Y-55478291D01*
X105841389Y-55630891D01*
X105852018Y-55649300D01*
X104622645Y-55649300D01*
X104634973Y-55727135D01*
X104634973Y-55727138D01*
X104703067Y-55936710D01*
X104803113Y-56133060D01*
X104932642Y-56311341D01*
X105088458Y-56467157D01*
X105088464Y-56467162D01*
X105228180Y-56568672D01*
X105270846Y-56624002D01*
X105276825Y-56693615D01*
X105244219Y-56755410D01*
X105228181Y-56769308D01*
X105088136Y-56871056D01*
X104932256Y-57026936D01*
X104932252Y-57026941D01*
X104802687Y-57205274D01*
X104702604Y-57401693D01*
X104702603Y-57401696D01*
X104634485Y-57611347D01*
X104600000Y-57829078D01*
X95000500Y-57829078D01*
X95000500Y-47328034D01*
X96499500Y-47328034D01*
X96499500Y-47671965D01*
X96533210Y-48014249D01*
X96600308Y-48351572D01*
X96700150Y-48680706D01*
X96831770Y-48998464D01*
X96831772Y-48998469D01*
X96993893Y-49301775D01*
X96993904Y-49301793D01*
X97184975Y-49587751D01*
X97184985Y-49587765D01*
X97403176Y-49853632D01*
X97646367Y-50096823D01*
X97646372Y-50096827D01*
X97646373Y-50096828D01*
X97912240Y-50315019D01*
X98198213Y-50506100D01*
X98198222Y-50506105D01*
X98198224Y-50506106D01*
X98501530Y-50668227D01*
X98501532Y-50668227D01*
X98501538Y-50668231D01*
X98819295Y-50799850D01*
X99148422Y-50899690D01*
X99485750Y-50966789D01*
X99828031Y-51000500D01*
X99828034Y-51000500D01*
X100171966Y-51000500D01*
X100171969Y-51000500D01*
X100514250Y-50966789D01*
X100851578Y-50899690D01*
X101180705Y-50799850D01*
X101498462Y-50668231D01*
X101801787Y-50506100D01*
X102087760Y-50315019D01*
X102353627Y-50096828D01*
X102596828Y-49853627D01*
X102815019Y-49587760D01*
X103006100Y-49301787D01*
X103168231Y-48998462D01*
X103299850Y-48680705D01*
X103399690Y-48351578D01*
X103466789Y-48014250D01*
X103500500Y-47671969D01*
X103500500Y-47328034D01*
X171499500Y-47328034D01*
X171499500Y-47671965D01*
X171533210Y-48014249D01*
X171600308Y-48351572D01*
X171700150Y-48680706D01*
X171831770Y-48998464D01*
X171831772Y-48998469D01*
X171993893Y-49301775D01*
X171993904Y-49301793D01*
X172184975Y-49587751D01*
X172184985Y-49587765D01*
X172403176Y-49853632D01*
X172646367Y-50096823D01*
X172646372Y-50096827D01*
X172646373Y-50096828D01*
X172912240Y-50315019D01*
X173198213Y-50506100D01*
X173198222Y-50506105D01*
X173198224Y-50506106D01*
X173501530Y-50668227D01*
X173501532Y-50668227D01*
X173501538Y-50668231D01*
X173819295Y-50799850D01*
X174148422Y-50899690D01*
X174485750Y-50966789D01*
X174828031Y-51000500D01*
X174828034Y-51000500D01*
X175171966Y-51000500D01*
X175171969Y-51000500D01*
X175514250Y-50966789D01*
X175851578Y-50899690D01*
X176180705Y-50799850D01*
X176498462Y-50668231D01*
X176801787Y-50506100D01*
X177087760Y-50315019D01*
X177353627Y-50096828D01*
X177596828Y-49853627D01*
X177815019Y-49587760D01*
X178006100Y-49301787D01*
X178168231Y-48998462D01*
X178299850Y-48680705D01*
X178399690Y-48351578D01*
X178466789Y-48014250D01*
X178500500Y-47671969D01*
X178500500Y-47328031D01*
X178466789Y-46985750D01*
X178399690Y-46648422D01*
X178299850Y-46319295D01*
X178168231Y-46001538D01*
X178078929Y-45834467D01*
X178006106Y-45698224D01*
X178006105Y-45698222D01*
X178006100Y-45698213D01*
X177815019Y-45412240D01*
X177596828Y-45146373D01*
X177596827Y-45146372D01*
X177596823Y-45146367D01*
X177353632Y-44903176D01*
X177087765Y-44684985D01*
X177087764Y-44684984D01*
X177087760Y-44684981D01*
X176801787Y-44493900D01*
X176801782Y-44493897D01*
X176801775Y-44493893D01*
X176498469Y-44331772D01*
X176498464Y-44331770D01*
X176180706Y-44200150D01*
X175851572Y-44100308D01*
X175514248Y-44033210D01*
X175514249Y-44033210D01*
X175256456Y-44007821D01*
X175171969Y-43999500D01*
X174828031Y-43999500D01*
X174749966Y-44007188D01*
X174485750Y-44033210D01*
X174148427Y-44100308D01*
X173819293Y-44200150D01*
X173501535Y-44331770D01*
X173501530Y-44331772D01*
X173198224Y-44493893D01*
X173198206Y-44493904D01*
X172912248Y-44684975D01*
X172912234Y-44684985D01*
X172646367Y-44903176D01*
X172403176Y-45146367D01*
X172184985Y-45412234D01*
X172184975Y-45412248D01*
X171993904Y-45698206D01*
X171993893Y-45698224D01*
X171831772Y-46001530D01*
X171831770Y-46001535D01*
X171700150Y-46319293D01*
X171600308Y-46648427D01*
X171533210Y-46985750D01*
X171499500Y-47328034D01*
X103500500Y-47328034D01*
X103500500Y-47328031D01*
X103466789Y-46985750D01*
X103399690Y-46648422D01*
X103299850Y-46319295D01*
X103267731Y-46241753D01*
X118534500Y-46241753D01*
X118534500Y-46399446D01*
X118565261Y-46554089D01*
X118565264Y-46554101D01*
X118625602Y-46699772D01*
X118625609Y-46699785D01*
X118713210Y-46830888D01*
X118713213Y-46830892D01*
X118824707Y-46942386D01*
X118824711Y-46942389D01*
X118955814Y-47029990D01*
X118955827Y-47029997D01*
X119079729Y-47081318D01*
X119101503Y-47090337D01*
X119256153Y-47121099D01*
X119256156Y-47121100D01*
X119256158Y-47121100D01*
X119413844Y-47121100D01*
X119413845Y-47121099D01*
X119568497Y-47090337D01*
X119714179Y-47029994D01*
X119780395Y-46985750D01*
X119845875Y-46941998D01*
X119912553Y-46921120D01*
X119914766Y-46921100D01*
X150656031Y-46921100D01*
X150656047Y-46921101D01*
X150663643Y-46921101D01*
X150821754Y-46921101D01*
X150821757Y-46921101D01*
X150974485Y-46880177D01*
X151024604Y-46851239D01*
X151111416Y-46801120D01*
X151223220Y-46689316D01*
X151223220Y-46689314D01*
X151233428Y-46679107D01*
X151233430Y-46679104D01*
X159152821Y-38759712D01*
X159214142Y-38726229D01*
X159283834Y-38731213D01*
X159339767Y-38773085D01*
X159364184Y-38838549D01*
X159364500Y-38847395D01*
X159364500Y-39222869D01*
X159364501Y-39222876D01*
X159370908Y-39282483D01*
X159421202Y-39417328D01*
X159421206Y-39417335D01*
X159507452Y-39532544D01*
X159507455Y-39532547D01*
X159622664Y-39618793D01*
X159622671Y-39618797D01*
X159757517Y-39669091D01*
X159757516Y-39669091D01*
X159764444Y-39669835D01*
X159817127Y-39675500D01*
X161662872Y-39675499D01*
X161722483Y-39669091D01*
X161857331Y-39618796D01*
X161972546Y-39532546D01*
X162058796Y-39417331D01*
X162109091Y-39282483D01*
X162115500Y-39222873D01*
X162115499Y-35777135D01*
X164124500Y-35777135D01*
X164124500Y-39222870D01*
X164124501Y-39222876D01*
X164130908Y-39282483D01*
X164181202Y-39417328D01*
X164181206Y-39417335D01*
X164267452Y-39532544D01*
X164267455Y-39532547D01*
X164382664Y-39618793D01*
X164382671Y-39618797D01*
X164517517Y-39669091D01*
X164517516Y-39669091D01*
X164524444Y-39669835D01*
X164577127Y-39675500D01*
X166422872Y-39675499D01*
X166482483Y-39669091D01*
X166617331Y-39618796D01*
X166732546Y-39532546D01*
X166818796Y-39417331D01*
X166869091Y-39282483D01*
X166875500Y-39222873D01*
X166875499Y-35777128D01*
X166869091Y-35717517D01*
X166841827Y-35644419D01*
X166818797Y-35582671D01*
X166818793Y-35582664D01*
X166732547Y-35467455D01*
X166732544Y-35467452D01*
X166617335Y-35381206D01*
X166617328Y-35381202D01*
X166482482Y-35330908D01*
X166482483Y-35330908D01*
X166422883Y-35324501D01*
X166422881Y-35324500D01*
X166422873Y-35324500D01*
X166422864Y-35324500D01*
X164577129Y-35324500D01*
X164577123Y-35324501D01*
X164517516Y-35330908D01*
X164382671Y-35381202D01*
X164382664Y-35381206D01*
X164267455Y-35467452D01*
X164267452Y-35467455D01*
X164181206Y-35582664D01*
X164181202Y-35582671D01*
X164130908Y-35717517D01*
X164124984Y-35772624D01*
X164124501Y-35777123D01*
X164124500Y-35777135D01*
X162115499Y-35777135D01*
X162115499Y-35777128D01*
X162109091Y-35717517D01*
X162081827Y-35644419D01*
X162058797Y-35582671D01*
X162058793Y-35582664D01*
X161972547Y-35467455D01*
X161972544Y-35467452D01*
X161857335Y-35381206D01*
X161857328Y-35381202D01*
X161722482Y-35330908D01*
X161722483Y-35330908D01*
X161662883Y-35324501D01*
X161662881Y-35324500D01*
X161662873Y-35324500D01*
X161662864Y-35324500D01*
X159817129Y-35324500D01*
X159817123Y-35324501D01*
X159757516Y-35330908D01*
X159622671Y-35381202D01*
X159622664Y-35381206D01*
X159507455Y-35467452D01*
X159507452Y-35467455D01*
X159421206Y-35582664D01*
X159421202Y-35582671D01*
X159370908Y-35717517D01*
X159364984Y-35772624D01*
X159364501Y-35777123D01*
X159364500Y-35777135D01*
X159364500Y-36849788D01*
X159361118Y-36861305D01*
X159362259Y-36873255D01*
X159351456Y-36894209D01*
X159344815Y-36916827D01*
X159334944Y-36926239D01*
X159330243Y-36935358D01*
X159302500Y-36957175D01*
X159286747Y-36966270D01*
X159286745Y-36966270D01*
X159194590Y-37019475D01*
X159194582Y-37019481D01*
X157567180Y-38646884D01*
X157505857Y-38680369D01*
X157436165Y-38675385D01*
X157380232Y-38633513D01*
X157355815Y-38568049D01*
X157355499Y-38559203D01*
X157355499Y-35777129D01*
X157355498Y-35777123D01*
X157355497Y-35777116D01*
X157349091Y-35717517D01*
X157321827Y-35644419D01*
X157298797Y-35582671D01*
X157298793Y-35582664D01*
X157212547Y-35467455D01*
X157212544Y-35467452D01*
X157097335Y-35381206D01*
X157097328Y-35381202D01*
X156962482Y-35330908D01*
X156962483Y-35330908D01*
X156902883Y-35324501D01*
X156902881Y-35324500D01*
X156902873Y-35324500D01*
X156902864Y-35324500D01*
X155057129Y-35324500D01*
X155057123Y-35324501D01*
X154997516Y-35330908D01*
X154862671Y-35381202D01*
X154862664Y-35381206D01*
X154747455Y-35467452D01*
X154747452Y-35467455D01*
X154661206Y-35582664D01*
X154661202Y-35582671D01*
X154610908Y-35717517D01*
X154604984Y-35772624D01*
X154604501Y-35777123D01*
X154604500Y-35777135D01*
X154604500Y-39222870D01*
X154604501Y-39222876D01*
X154610908Y-39282483D01*
X154661202Y-39417328D01*
X154661206Y-39417335D01*
X154747452Y-39532544D01*
X154747455Y-39532547D01*
X154862664Y-39618793D01*
X154862671Y-39618797D01*
X154997517Y-39669091D01*
X154997516Y-39669091D01*
X155004444Y-39669835D01*
X155057127Y-39675500D01*
X156239202Y-39675499D01*
X156306241Y-39695184D01*
X156351996Y-39747987D01*
X156361940Y-39817146D01*
X156332915Y-39880702D01*
X156326883Y-39887180D01*
X150530284Y-45683781D01*
X150468961Y-45717266D01*
X150442603Y-45720100D01*
X119914766Y-45720100D01*
X119847727Y-45700415D01*
X119845875Y-45699202D01*
X119714185Y-45611209D01*
X119714172Y-45611202D01*
X119568501Y-45550864D01*
X119568489Y-45550861D01*
X119413845Y-45520100D01*
X119413842Y-45520100D01*
X119256158Y-45520100D01*
X119256155Y-45520100D01*
X119101510Y-45550861D01*
X119101498Y-45550864D01*
X118955827Y-45611202D01*
X118955814Y-45611209D01*
X118824711Y-45698810D01*
X118824707Y-45698813D01*
X118713213Y-45810307D01*
X118713210Y-45810311D01*
X118625609Y-45941414D01*
X118625602Y-45941427D01*
X118565264Y-46087098D01*
X118565261Y-46087110D01*
X118534500Y-46241753D01*
X103267731Y-46241753D01*
X103168231Y-46001538D01*
X103078929Y-45834467D01*
X103006106Y-45698224D01*
X103006105Y-45698222D01*
X103006100Y-45698213D01*
X102815019Y-45412240D01*
X102596828Y-45146373D01*
X102596827Y-45146372D01*
X102596823Y-45146367D01*
X102353632Y-44903176D01*
X102087765Y-44684985D01*
X102087764Y-44684984D01*
X102087760Y-44684981D01*
X101801787Y-44493900D01*
X101801782Y-44493897D01*
X101801775Y-44493893D01*
X101498469Y-44331772D01*
X101498464Y-44331770D01*
X101180706Y-44200150D01*
X100851572Y-44100308D01*
X100514248Y-44033210D01*
X100514249Y-44033210D01*
X100256456Y-44007821D01*
X100171969Y-43999500D01*
X99828031Y-43999500D01*
X99749966Y-44007188D01*
X99485750Y-44033210D01*
X99148427Y-44100308D01*
X98819293Y-44200150D01*
X98501535Y-44331770D01*
X98501530Y-44331772D01*
X98198224Y-44493893D01*
X98198206Y-44493904D01*
X97912248Y-44684975D01*
X97912234Y-44684985D01*
X97646367Y-44903176D01*
X97403176Y-45146367D01*
X97184985Y-45412234D01*
X97184975Y-45412248D01*
X96993904Y-45698206D01*
X96993893Y-45698224D01*
X96831772Y-46001530D01*
X96831770Y-46001535D01*
X96700150Y-46319293D01*
X96600308Y-46648427D01*
X96533210Y-46985750D01*
X96499500Y-47328034D01*
X95000500Y-47328034D01*
X95000500Y-34868872D01*
X97499500Y-34868872D01*
X97499500Y-35131127D01*
X97520436Y-35290140D01*
X97533730Y-35391116D01*
X97585057Y-35582671D01*
X97601602Y-35644418D01*
X97601605Y-35644428D01*
X97701953Y-35886690D01*
X97701958Y-35886700D01*
X97833075Y-36113803D01*
X97992718Y-36321851D01*
X97992726Y-36321860D01*
X98178140Y-36507274D01*
X98178148Y-36507281D01*
X98386196Y-36666924D01*
X98613299Y-36798041D01*
X98613309Y-36798046D01*
X98855571Y-36898394D01*
X98855581Y-36898398D01*
X99108884Y-36966270D01*
X99368880Y-37000500D01*
X99368887Y-37000500D01*
X99631113Y-37000500D01*
X99631120Y-37000500D01*
X99891116Y-36966270D01*
X100144419Y-36898398D01*
X100386697Y-36798043D01*
X100613803Y-36666924D01*
X100821851Y-36507282D01*
X100821855Y-36507277D01*
X100821860Y-36507274D01*
X101007274Y-36321860D01*
X101007277Y-36321855D01*
X101007282Y-36321851D01*
X101166924Y-36113803D01*
X101298043Y-35886697D01*
X101398398Y-35644419D01*
X101466270Y-35391116D01*
X101500500Y-35131120D01*
X101500500Y-34868880D01*
X101500499Y-34868872D01*
X173499500Y-34868872D01*
X173499500Y-35131127D01*
X173520436Y-35290140D01*
X173533730Y-35391116D01*
X173585057Y-35582671D01*
X173601602Y-35644418D01*
X173601605Y-35644428D01*
X173701953Y-35886690D01*
X173701958Y-35886700D01*
X173833075Y-36113803D01*
X173992718Y-36321851D01*
X173992726Y-36321860D01*
X174178140Y-36507274D01*
X174178148Y-36507281D01*
X174386196Y-36666924D01*
X174613299Y-36798041D01*
X174613309Y-36798046D01*
X174855571Y-36898394D01*
X174855581Y-36898398D01*
X175108884Y-36966270D01*
X175368880Y-37000500D01*
X175368887Y-37000500D01*
X175631113Y-37000500D01*
X175631120Y-37000500D01*
X175891116Y-36966270D01*
X176144419Y-36898398D01*
X176386697Y-36798043D01*
X176613803Y-36666924D01*
X176821851Y-36507282D01*
X176821855Y-36507277D01*
X176821860Y-36507274D01*
X177007274Y-36321860D01*
X177007277Y-36321855D01*
X177007282Y-36321851D01*
X177166924Y-36113803D01*
X177298043Y-35886697D01*
X177398398Y-35644419D01*
X177466270Y-35391116D01*
X177500500Y-35131120D01*
X177500500Y-34868880D01*
X177466270Y-34608884D01*
X177398398Y-34355581D01*
X177300204Y-34118520D01*
X177298046Y-34113309D01*
X177298041Y-34113299D01*
X177166924Y-33886196D01*
X177007281Y-33678148D01*
X177007274Y-33678140D01*
X176821860Y-33492726D01*
X176821851Y-33492718D01*
X176613803Y-33333075D01*
X176386700Y-33201958D01*
X176386690Y-33201953D01*
X176144428Y-33101605D01*
X176144421Y-33101603D01*
X176144419Y-33101602D01*
X175891116Y-33033730D01*
X175833339Y-33026123D01*
X175631127Y-32999500D01*
X175631120Y-32999500D01*
X175368880Y-32999500D01*
X175368872Y-32999500D01*
X175137772Y-33029926D01*
X175108884Y-33033730D01*
X174855581Y-33101602D01*
X174855571Y-33101605D01*
X174613309Y-33201953D01*
X174613299Y-33201958D01*
X174386196Y-33333075D01*
X174178148Y-33492718D01*
X173992718Y-33678148D01*
X173833075Y-33886196D01*
X173701958Y-34113299D01*
X173701953Y-34113309D01*
X173601605Y-34355571D01*
X173601602Y-34355581D01*
X173533730Y-34608885D01*
X173499500Y-34868872D01*
X101500499Y-34868872D01*
X101466270Y-34608884D01*
X101398398Y-34355581D01*
X101300204Y-34118520D01*
X101298046Y-34113309D01*
X101298041Y-34113299D01*
X101166924Y-33886196D01*
X101007281Y-33678148D01*
X101007274Y-33678140D01*
X100821860Y-33492726D01*
X100821851Y-33492718D01*
X100613803Y-33333075D01*
X100386700Y-33201958D01*
X100386690Y-33201953D01*
X100144428Y-33101605D01*
X100144421Y-33101603D01*
X100144419Y-33101602D01*
X99891116Y-33033730D01*
X99833339Y-33026123D01*
X99631127Y-32999500D01*
X99631120Y-32999500D01*
X99368880Y-32999500D01*
X99368872Y-32999500D01*
X99137772Y-33029926D01*
X99108884Y-33033730D01*
X98855581Y-33101602D01*
X98855571Y-33101605D01*
X98613309Y-33201953D01*
X98613299Y-33201958D01*
X98386196Y-33333075D01*
X98178148Y-33492718D01*
X97992718Y-33678148D01*
X97833075Y-33886196D01*
X97701958Y-34113299D01*
X97701953Y-34113309D01*
X97601605Y-34355571D01*
X97601602Y-34355581D01*
X97533730Y-34608885D01*
X97499500Y-34868872D01*
X95000500Y-34868872D01*
X95000500Y-30624500D01*
X95020185Y-30557461D01*
X95072989Y-30511706D01*
X95124500Y-30500500D01*
X179875500Y-30500500D01*
X179942539Y-30520185D01*
G37*
G04 #@! TD.AperFunction*
M02*
