M48
; DRILL file {KiCad 9.0.2} date 2025-06-24T21:37:35-0400
; FORMAT={-:-/ absolute / metric / decimal}
; #@! TF.CreationDate,2025-06-24T21:37:35-04:00
; #@! TF.GenerationSoftware,Kicad,Pcbnew,9.0.2
; #@! TF.FileFunction,Plated,1,2,PTH
FMAT,2
METRIC
; #@! TA.AperFunction,Plated,PTH,ViaDrill
T1C0.300
; #@! TA.AperFunction,Plated,PTH,ComponentDrill
T2C0.750
; #@! TA.AperFunction,Plated,PTH,ComponentDrill
T3C0.800
; #@! TA.AperFunction,Plated,PTH,ComponentDrill
T4C1.000
; #@! TA.AperFunction,Plated,PTH,ComponentDrill
T5C1.050
; #@! TA.AperFunction,Plated,PTH,ComponentDrill
T6C1.200
; #@! TA.AperFunction,Plated,PTH,ComponentDrill
T7C1.250
%
G90
G05
T1
X100.572Y-95.49
X104.5Y-97.785
X106.602Y-85.398
X116.169Y-95.867
X119.335Y-46.321
X125.673Y-106.421
X126.822Y-102.503
X127.815Y-90.736
X129.029Y-101.219
X132.102Y-89.143
X133.626Y-86.471
X140.474Y-86.142
X142.909Y-91.323
X152.364Y-63.423
X153.157Y-83.811
X158.309Y-90.18
X159.299Y-87.096
X163.928Y-89.119
X164.254Y-92.575
X170.0Y-85.219
X173.196Y-87.743
X173.323Y-86.879
T2
X113.96Y-90.0
X115.23Y-90.0
X116.5Y-90.0
T3
X126.69Y-84.5
X134.31Y-84.5
T4
X100.9Y-104.5
X105.46Y-122.0
X108.0Y-122.0
X108.5Y-104.5
X120.75Y-119.75
X120.75Y-122.29
X123.25Y-119.75
X123.25Y-122.29
X140.56Y-95.5
X140.56Y-110.74
X143.1Y-95.5
X143.1Y-110.74
X145.64Y-95.5
X145.64Y-110.74
X148.18Y-95.5
X148.18Y-110.74
X150.72Y-95.5
X150.72Y-110.74
X153.26Y-95.5
X153.26Y-110.74
X155.8Y-95.5
X155.8Y-110.74
X158.34Y-95.5
X158.34Y-110.74
X160.88Y-95.5
X160.88Y-110.74
X163.42Y-95.5
X163.42Y-110.74
X165.96Y-95.5
X165.96Y-110.74
X168.5Y-95.5
X168.5Y-110.74
X171.04Y-95.5
X171.04Y-110.74
X173.58Y-95.5
X173.58Y-110.74
X176.12Y-95.5
X176.12Y-110.74
T6
X106.4Y-55.399
X106.4Y-57.939
X106.4Y-60.479
X106.4Y-63.019
T5
G00X155.98Y-38.3
M15
G01X155.98Y-36.7
M16
G05
G00X160.74Y-38.3
M15
G01X160.74Y-36.7
M16
G05
G00X165.5Y-38.3
M15
G01X165.5Y-36.7
M16
G05
T7
G00X157.8Y-122.5
M15
G01X157.8Y-121.5
M16
G05
G00X161.9Y-122.5
M15
G01X161.9Y-121.5
M16
G05
G00X166.0Y-122.5
M15
G01X166.0Y-121.5
M16
G05
M30
