G04 #@! TF.GenerationSoftware,KiCad,Pcbnew,9.0.2*
G04 #@! TF.CreationDate,2025-06-24T21:37:24-04:00*
G04 #@! TF.ProjectId,Shortywithdisplay,53686f72-7479-4776-9974-68646973706c,rev?*
G04 #@! TF.SameCoordinates,Original*
G04 #@! TF.FileFunction,Paste,Top*
G04 #@! TF.FilePolarity,Positive*
%FSLAX46Y46*%
G04 Gerber Fmt 4.6, Leading zero omitted, Abs format (unit mm)*
G04 Created by KiCad (PCBNEW 9.0.2) date 2025-06-24 21:37:24*
%MOMM*%
%LPD*%
G01*
G04 APERTURE LIST*
G04 Aperture macros list*
%AMRoundRect*
0 Rectangle with rounded corners*
0 $1 Rounding radius*
0 $2 $3 $4 $5 $6 $7 $8 $9 X,Y pos of 4 corners*
0 Add a 4 corners polygon primitive as box body*
4,1,4,$2,$3,$4,$5,$6,$7,$8,$9,$2,$3,0*
0 Add four circle primitives for the rounded corners*
1,1,$1+$1,$2,$3*
1,1,$1+$1,$4,$5*
1,1,$1+$1,$6,$7*
1,1,$1+$1,$8,$9*
0 Add four rect primitives between the rounded corners*
20,1,$1+$1,$2,$3,$4,$5,0*
20,1,$1+$1,$4,$5,$6,$7,0*
20,1,$1+$1,$6,$7,$8,$9,0*
20,1,$1+$1,$8,$9,$2,$3,0*%
G04 Aperture macros list end*
%ADD10R,2.800000X1.000000*%
%ADD11RoundRect,0.237500X0.237500X-0.250000X0.237500X0.250000X-0.237500X0.250000X-0.237500X-0.250000X0*%
%ADD12RoundRect,0.237500X0.300000X0.237500X-0.300000X0.237500X-0.300000X-0.237500X0.300000X-0.237500X0*%
%ADD13RoundRect,0.237500X0.250000X0.237500X-0.250000X0.237500X-0.250000X-0.237500X0.250000X-0.237500X0*%
%ADD14RoundRect,0.162500X-0.617500X-0.162500X0.617500X-0.162500X0.617500X0.162500X-0.617500X0.162500X0*%
%ADD15RoundRect,0.150000X-0.512500X-0.150000X0.512500X-0.150000X0.512500X0.150000X-0.512500X0.150000X0*%
G04 APERTURE END LIST*
D10*
X98900000Y-86900000D03*
X104500000Y-87000000D03*
X98900000Y-90200000D03*
X104500000Y-90200000D03*
D11*
X168500000Y-87325000D03*
X168500000Y-85500000D03*
D12*
X149225000Y-90000000D03*
X147500000Y-90000000D03*
D11*
X171500000Y-87325000D03*
X171500000Y-85500000D03*
D13*
X127500000Y-107500000D03*
X125675000Y-107500000D03*
X127500000Y-95500000D03*
X125675000Y-95500000D03*
D11*
X174510000Y-87325000D03*
X174510000Y-85500000D03*
D13*
X127500000Y-98500000D03*
X125675000Y-98500000D03*
D14*
X161000000Y-85500000D03*
X161000000Y-86450000D03*
X161000000Y-87400000D03*
X163700000Y-87400000D03*
X163700000Y-85500000D03*
D12*
X144000000Y-116000000D03*
X142275000Y-116000000D03*
D13*
X127500000Y-101500000D03*
X125675000Y-101500000D03*
X127500000Y-104500000D03*
X125675000Y-104500000D03*
X127500000Y-92480000D03*
X125675000Y-92480000D03*
X127500000Y-110500000D03*
X125675000Y-110500000D03*
D12*
X142725000Y-90000000D03*
X141000000Y-90000000D03*
D15*
X154000000Y-85550000D03*
X154000000Y-86500000D03*
X154000000Y-87450000D03*
X156275000Y-87450000D03*
X156275000Y-86500000D03*
X156275000Y-85550000D03*
M02*
