G04 #@! TF.GenerationSoftware,KiCad,Pcbnew,9.0.2*
G04 #@! TF.CreationDate,2025-06-24T21:37:24-04:00*
G04 #@! TF.ProjectId,Shortywithdisplay,53686f72-7479-4776-9974-68646973706c,rev?*
G04 #@! TF.SameCoordinates,Original*
G04 #@! TF.FileFunction,Soldermask,Top*
G04 #@! TF.FilePolarity,Negative*
%FSLAX46Y46*%
G04 Gerber Fmt 4.6, Leading zero omitted, Abs format (unit mm)*
G04 Created by KiCad (PCBNEW 9.0.2) date 2025-06-24 21:37:24*
%MOMM*%
%LPD*%
G01*
G04 APERTURE LIST*
G04 Aperture macros list*
%AMRoundRect*
0 Rectangle with rounded corners*
0 $1 Rounding radius*
0 $2 $3 $4 $5 $6 $7 $8 $9 X,Y pos of 4 corners*
0 Add a 4 corners polygon primitive as box body*
4,1,4,$2,$3,$4,$5,$6,$7,$8,$9,$2,$3,0*
0 Add four circle primitives for the rounded corners*
1,1,$1+$1,$2,$3*
1,1,$1+$1,$4,$5*
1,1,$1+$1,$6,$7*
1,1,$1+$1,$8,$9*
0 Add four rect primitives between the rounded corners*
20,1,$1+$1,$2,$3,$4,$5,0*
20,1,$1+$1,$4,$5,$6,$7,0*
20,1,$1+$1,$6,$7,$8,$9,0*
20,1,$1+$1,$8,$9,$2,$3,0*%
G04 Aperture macros list end*
%ADD10R,2.800000X1.000000*%
%ADD11RoundRect,0.237500X0.237500X-0.250000X0.237500X0.250000X-0.237500X0.250000X-0.237500X-0.250000X0*%
%ADD12R,1.050000X1.500000*%
%ADD13O,1.050000X1.500000*%
%ADD14RoundRect,0.237500X0.300000X0.237500X-0.300000X0.237500X-0.300000X-0.237500X0.300000X-0.237500X0*%
%ADD15R,2.250000X3.250000*%
%ADD16RoundRect,0.237500X0.250000X0.237500X-0.250000X0.237500X-0.250000X-0.237500X0.250000X-0.237500X0*%
%ADD17R,2.600000X1.800000*%
%ADD18O,2.600000X1.800000*%
%ADD19R,1.750000X3.350000*%
%ADD20R,1.600000X1.600000*%
%ADD21O,1.600000X1.600000*%
%ADD22RoundRect,0.162500X-0.617500X-0.162500X0.617500X-0.162500X0.617500X0.162500X-0.617500X0.162500X0*%
%ADD23R,1.700000X1.700000*%
%ADD24C,1.700000*%
%ADD25RoundRect,0.250000X-0.550000X-0.550000X0.550000X-0.550000X0.550000X0.550000X-0.550000X0.550000X0*%
%ADD26C,1.600000*%
%ADD27R,2.000000X2.000000*%
%ADD28C,2.000000*%
%ADD29RoundRect,0.150000X-0.512500X-0.150000X0.512500X-0.150000X0.512500X0.150000X-0.512500X0.150000X0*%
G04 APERTURE END LIST*
D10*
X98900000Y-86900000D03*
X104500000Y-87000000D03*
X98900000Y-90200000D03*
X104500000Y-90200000D03*
D11*
X168500000Y-87325000D03*
X168500000Y-85500000D03*
D12*
X113960000Y-90000000D03*
D13*
X115230000Y-90000000D03*
X116500000Y-90000000D03*
D14*
X149225000Y-90000000D03*
X147500000Y-90000000D03*
D11*
X171500000Y-87325000D03*
X171500000Y-85500000D03*
D15*
X157800000Y-122000000D03*
X161900000Y-122000000D03*
X166000000Y-122000000D03*
D16*
X127500000Y-107500000D03*
X125675000Y-107500000D03*
X127500000Y-95500000D03*
X125675000Y-95500000D03*
D11*
X174510000Y-87325000D03*
X174510000Y-85500000D03*
D17*
X106400500Y-63019300D03*
D18*
X106400500Y-60479300D03*
X106400500Y-57939300D03*
X106400500Y-55399300D03*
D19*
X155980000Y-37500000D03*
X160740000Y-37500000D03*
X165500000Y-37500000D03*
D20*
X140560000Y-110740000D03*
D21*
X143100000Y-110740000D03*
X145640000Y-110740000D03*
X148180000Y-110740000D03*
X150720000Y-110740000D03*
X153260000Y-110740000D03*
X155800000Y-110740000D03*
X158340000Y-110740000D03*
X160880000Y-110740000D03*
X163420000Y-110740000D03*
X165960000Y-110740000D03*
X168500000Y-110740000D03*
X171040000Y-110740000D03*
X173580000Y-110740000D03*
X176120000Y-110740000D03*
X176120000Y-95500000D03*
X173580000Y-95500000D03*
X171040000Y-95500000D03*
X168500000Y-95500000D03*
X165960000Y-95500000D03*
X163420000Y-95500000D03*
X160880000Y-95500000D03*
X158340000Y-95500000D03*
X155800000Y-95500000D03*
X153260000Y-95500000D03*
X150720000Y-95500000D03*
X148180000Y-95500000D03*
X145640000Y-95500000D03*
X143100000Y-95500000D03*
X140560000Y-95500000D03*
D16*
X127500000Y-98500000D03*
X125675000Y-98500000D03*
D22*
X161000000Y-85500000D03*
X161000000Y-86450000D03*
X161000000Y-87400000D03*
X163700000Y-87400000D03*
X163700000Y-85500000D03*
D23*
X105460000Y-122000000D03*
D24*
X108000000Y-122000000D03*
D14*
X144000000Y-116000000D03*
X142275000Y-116000000D03*
D16*
X127500000Y-101500000D03*
X125675000Y-101500000D03*
X127500000Y-104500000D03*
X125675000Y-104500000D03*
X127500000Y-92480000D03*
X125675000Y-92480000D03*
X127500000Y-110500000D03*
X125675000Y-110500000D03*
D14*
X142725000Y-90000000D03*
X141000000Y-90000000D03*
D25*
X126690000Y-84500000D03*
D26*
X134310000Y-84500000D03*
D27*
X100900000Y-104500000D03*
D28*
X108500000Y-104500000D03*
D29*
X154000000Y-85550000D03*
X154000000Y-86500000D03*
X154000000Y-87450000D03*
X156275000Y-87450000D03*
X156275000Y-86500000D03*
X156275000Y-85550000D03*
D23*
X120750000Y-119750000D03*
D24*
X120750000Y-122290000D03*
X123250000Y-119750000D03*
X123250000Y-122290000D03*
M02*
