%TF.GenerationSoftware,KiCad,Pcbnew,9.0.2*%
%TF.CreationDate,2025-06-24T21:37:35-04:00*%
%TF.ProjectId,Shortywithdisplay,53686f72-7479-4776-9974-68646973706c,rev?*%
%TF.SameCoordinates,Original*%
%TF.FileFunction,Drillmap*%
%TF.FilePolarity,Positive*%
%FSLAX45Y45*%
G04 Gerber Fmt 4.5, Leading zero omitted, Abs format (unit mm)*
G04 Created by KiCad (PCBNEW 9.0.2) date 2025-06-24 21:37:35*
%MOMM*%
%LPD*%
G01*
G04 APERTURE LIST*
%ADD10C,0.050000*%
%ADD11C,0.200000*%
%ADD12C,0.100000*%
%ADD13C,0.105000*%
%ADD14C,0.120000*%
%ADD15C,0.125000*%
G04 APERTURE END LIST*
D10*
X17700000Y-12100000D02*
G75*
G02*
X17400000Y-12100000I-150000J0D01*
G01*
X17400000Y-12100000D02*
G75*
G02*
X17700000Y-12100000I150000J0D01*
G01*
X10100000Y-3500000D02*
G75*
G02*
X9800000Y-3500000I-150000J0D01*
G01*
X9800000Y-3500000D02*
G75*
G02*
X10100000Y-3500000I150000J0D01*
G01*
X9450000Y-3000000D02*
X18050000Y-3000000D01*
X18050000Y-12600000D01*
X9450000Y-12600000D01*
X9450000Y-3000000D01*
X17800000Y-7850000D02*
G75*
G02*
X17200000Y-7850000I-300000J0D01*
G01*
X17200000Y-7850000D02*
G75*
G02*
X17800000Y-7850000I300000J0D01*
G01*
X17700000Y-3500000D02*
G75*
G02*
X17400000Y-3500000I-150000J0D01*
G01*
X17400000Y-3500000D02*
G75*
G02*
X17700000Y-3500000I150000J0D01*
G01*
X17800000Y-4750000D02*
G75*
G02*
X17200000Y-4750000I-300000J0D01*
G01*
X17200000Y-4750000D02*
G75*
G02*
X17800000Y-4750000I300000J0D01*
G01*
X10300000Y-4750000D02*
G75*
G02*
X9700000Y-4750000I-300000J0D01*
G01*
X9700000Y-4750000D02*
G75*
G02*
X10300000Y-4750000I300000J0D01*
G01*
X10300000Y-7850000D02*
G75*
G02*
X9700000Y-7850000I-300000J0D01*
G01*
X9700000Y-7850000D02*
G75*
G02*
X10300000Y-7850000I300000J0D01*
G01*
X10100000Y-12100000D02*
G75*
G02*
X9800000Y-12100000I-150000J0D01*
G01*
X9800000Y-12100000D02*
G75*
G02*
X10100000Y-12100000I150000J0D01*
G01*
D11*
D12*
X10042250Y-9534040D02*
X10072250Y-9564040D01*
X10072250Y-9534040D02*
X10042250Y-9564040D01*
X10435000Y-9763470D02*
X10465000Y-9793470D01*
X10465000Y-9763470D02*
X10435000Y-9793470D01*
X10645190Y-8524850D02*
X10675190Y-8554850D01*
X10675190Y-8524850D02*
X10645190Y-8554850D01*
X11601880Y-9571720D02*
X11631880Y-9601720D01*
X11631880Y-9571720D02*
X11601880Y-9601720D01*
X11918500Y-4617060D02*
X11948500Y-4647060D01*
X11948500Y-4617060D02*
X11918500Y-4647060D01*
X12552350Y-10627110D02*
X12582350Y-10657110D01*
X12582350Y-10627110D02*
X12552350Y-10657110D01*
X12667210Y-10235300D02*
X12697210Y-10265300D01*
X12697210Y-10235300D02*
X12667210Y-10265300D01*
X12766480Y-9058600D02*
X12796480Y-9088600D01*
X12796480Y-9058600D02*
X12766480Y-9088600D01*
X12887920Y-10106910D02*
X12917920Y-10136910D01*
X12917920Y-10106910D02*
X12887920Y-10136910D01*
X13195170Y-8899320D02*
X13225170Y-8929320D01*
X13225170Y-8899320D02*
X13195170Y-8929320D01*
X13347630Y-8632130D02*
X13377630Y-8662130D01*
X13377630Y-8632130D02*
X13347630Y-8662130D01*
X14032380Y-8599170D02*
X14062380Y-8629170D01*
X14062380Y-8599170D02*
X14032380Y-8629170D01*
X14275910Y-9117350D02*
X14305910Y-9147350D01*
X14305910Y-9117350D02*
X14275910Y-9147350D01*
X15221380Y-6327320D02*
X15251380Y-6357320D01*
X15251380Y-6327320D02*
X15221380Y-6357320D01*
X15300690Y-8366070D02*
X15330690Y-8396070D01*
X15330690Y-8366070D02*
X15300690Y-8396070D01*
X15815880Y-9003040D02*
X15845880Y-9033040D01*
X15845880Y-9003040D02*
X15815880Y-9033040D01*
X15914910Y-8694630D02*
X15944910Y-8724630D01*
X15944910Y-8694630D02*
X15914910Y-8724630D01*
X16377850Y-8896920D02*
X16407850Y-8926920D01*
X16407850Y-8896920D02*
X16377850Y-8926920D01*
X16410380Y-9242520D02*
X16440380Y-9272520D01*
X16440380Y-9242520D02*
X16410380Y-9272520D01*
X16985000Y-8506920D02*
X17015000Y-8536920D01*
X17015000Y-8506920D02*
X16985000Y-8536920D01*
X17304610Y-8759260D02*
X17334610Y-8789260D01*
X17334610Y-8759260D02*
X17304610Y-8789260D01*
X17317340Y-8672950D02*
X17347340Y-8702950D01*
X17347340Y-8672950D02*
X17317340Y-8702950D01*
X11433500Y-9000000D02*
G75*
G02*
X11358500Y-9000000I-37500J0D01*
G01*
X11358500Y-9000000D02*
G75*
G02*
X11433500Y-9000000I37500J0D01*
G01*
X11560500Y-9000000D02*
G75*
G02*
X11485500Y-9000000I-37500J0D01*
G01*
X11485500Y-9000000D02*
G75*
G02*
X11560500Y-9000000I37500J0D01*
G01*
X11687500Y-9000000D02*
G75*
G02*
X11612500Y-9000000I-37500J0D01*
G01*
X11612500Y-9000000D02*
G75*
G02*
X11687500Y-9000000I37500J0D01*
G01*
X12669000Y-8410000D02*
X12669000Y-8490000D01*
X12629000Y-8450000D02*
X12709000Y-8450000D01*
X13431000Y-8410000D02*
X13431000Y-8490000D01*
X13391000Y-8450000D02*
X13471000Y-8450000D01*
X10125356Y-10485356D02*
X10125356Y-10414644D01*
X10054644Y-10414644D01*
X10054644Y-10485356D01*
X10125356Y-10485356D01*
X10581356Y-12235356D02*
X10581356Y-12164644D01*
X10510644Y-12164644D01*
X10510644Y-12235356D01*
X10581356Y-12235356D01*
X10835356Y-12235356D02*
X10835356Y-12164644D01*
X10764644Y-12164644D01*
X10764644Y-12235356D01*
X10835356Y-12235356D01*
X10885356Y-10485356D02*
X10885356Y-10414644D01*
X10814644Y-10414644D01*
X10814644Y-10485356D01*
X10885356Y-10485356D01*
X12110356Y-12010356D02*
X12110356Y-11939644D01*
X12039644Y-11939644D01*
X12039644Y-12010356D01*
X12110356Y-12010356D01*
X12110356Y-12264356D02*
X12110356Y-12193644D01*
X12039644Y-12193644D01*
X12039644Y-12264356D01*
X12110356Y-12264356D01*
X12360356Y-12010356D02*
X12360356Y-11939644D01*
X12289644Y-11939644D01*
X12289644Y-12010356D01*
X12360356Y-12010356D01*
X12360356Y-12264356D02*
X12360356Y-12193644D01*
X12289644Y-12193644D01*
X12289644Y-12264356D01*
X12360356Y-12264356D01*
X14091356Y-9585356D02*
X14091356Y-9514644D01*
X14020644Y-9514644D01*
X14020644Y-9585356D01*
X14091356Y-9585356D01*
X14091356Y-11109356D02*
X14091356Y-11038644D01*
X14020644Y-11038644D01*
X14020644Y-11109356D01*
X14091356Y-11109356D01*
X14345356Y-9585356D02*
X14345356Y-9514644D01*
X14274644Y-9514644D01*
X14274644Y-9585356D01*
X14345356Y-9585356D01*
X14345356Y-11109356D02*
X14345356Y-11038644D01*
X14274644Y-11038644D01*
X14274644Y-11109356D01*
X14345356Y-11109356D01*
X14599356Y-9585356D02*
X14599356Y-9514644D01*
X14528644Y-9514644D01*
X14528644Y-9585356D01*
X14599356Y-9585356D01*
X14599356Y-11109356D02*
X14599356Y-11038644D01*
X14528644Y-11038644D01*
X14528644Y-11109356D01*
X14599356Y-11109356D01*
X14853356Y-9585356D02*
X14853356Y-9514644D01*
X14782644Y-9514644D01*
X14782644Y-9585356D01*
X14853356Y-9585356D01*
X14853356Y-11109356D02*
X14853356Y-11038644D01*
X14782644Y-11038644D01*
X14782644Y-11109356D01*
X14853356Y-11109356D01*
X15107356Y-9585356D02*
X15107356Y-9514644D01*
X15036644Y-9514644D01*
X15036644Y-9585356D01*
X15107356Y-9585356D01*
X15107356Y-11109356D02*
X15107356Y-11038644D01*
X15036644Y-11038644D01*
X15036644Y-11109356D01*
X15107356Y-11109356D01*
X15361356Y-9585356D02*
X15361356Y-9514644D01*
X15290644Y-9514644D01*
X15290644Y-9585356D01*
X15361356Y-9585356D01*
X15361356Y-11109356D02*
X15361356Y-11038644D01*
X15290644Y-11038644D01*
X15290644Y-11109356D01*
X15361356Y-11109356D01*
X15615356Y-9585356D02*
X15615356Y-9514644D01*
X15544644Y-9514644D01*
X15544644Y-9585356D01*
X15615356Y-9585356D01*
X15615356Y-11109356D02*
X15615356Y-11038644D01*
X15544644Y-11038644D01*
X15544644Y-11109356D01*
X15615356Y-11109356D01*
X15869356Y-9585356D02*
X15869356Y-9514644D01*
X15798644Y-9514644D01*
X15798644Y-9585356D01*
X15869356Y-9585356D01*
X15869356Y-11109356D02*
X15869356Y-11038644D01*
X15798644Y-11038644D01*
X15798644Y-11109356D01*
X15869356Y-11109356D01*
X16123356Y-9585356D02*
X16123356Y-9514644D01*
X16052644Y-9514644D01*
X16052644Y-9585356D01*
X16123356Y-9585356D01*
X16123356Y-11109356D02*
X16123356Y-11038644D01*
X16052644Y-11038644D01*
X16052644Y-11109356D01*
X16123356Y-11109356D01*
X16377356Y-9585356D02*
X16377356Y-9514644D01*
X16306644Y-9514644D01*
X16306644Y-9585356D01*
X16377356Y-9585356D01*
X16377356Y-11109356D02*
X16377356Y-11038644D01*
X16306644Y-11038644D01*
X16306644Y-11109356D01*
X16377356Y-11109356D01*
X16631356Y-9585356D02*
X16631356Y-9514644D01*
X16560644Y-9514644D01*
X16560644Y-9585356D01*
X16631356Y-9585356D01*
X16631356Y-11109356D02*
X16631356Y-11038644D01*
X16560644Y-11038644D01*
X16560644Y-11109356D01*
X16631356Y-11109356D01*
X16885356Y-9585356D02*
X16885356Y-9514644D01*
X16814644Y-9514644D01*
X16814644Y-9585356D01*
X16885356Y-9585356D01*
X16885356Y-11109356D02*
X16885356Y-11038644D01*
X16814644Y-11038644D01*
X16814644Y-11109356D01*
X16885356Y-11109356D01*
X17139356Y-9585356D02*
X17139356Y-9514644D01*
X17068644Y-9514644D01*
X17068644Y-9585356D01*
X17139356Y-9585356D01*
X17139356Y-11109356D02*
X17139356Y-11038644D01*
X17068644Y-11038644D01*
X17068644Y-11109356D01*
X17139356Y-11109356D01*
X17393356Y-9585356D02*
X17393356Y-9514644D01*
X17322644Y-9514644D01*
X17322644Y-9585356D01*
X17393356Y-9585356D01*
X17393356Y-11109356D02*
X17393356Y-11038644D01*
X17322644Y-11038644D01*
X17322644Y-11109356D01*
X17393356Y-11109356D01*
X17647356Y-9585356D02*
X17647356Y-9514644D01*
X17576644Y-9514644D01*
X17576644Y-9585356D01*
X17647356Y-9585356D01*
X17647356Y-11109356D02*
X17647356Y-11038644D01*
X17576644Y-11038644D01*
X17576644Y-11109356D01*
X17647356Y-11109356D01*
D13*
X15598000Y-3802500D02*
X15650500Y-3750000D01*
X15598000Y-3697500D01*
X15545500Y-3750000D01*
X15598000Y-3802500D01*
D12*
X15650500Y-3830000D02*
X15650500Y-3670000D01*
X15545500Y-3670000D02*
G75*
G02*
X15650500Y-3670000I52500J0D01*
G01*
X15545500Y-3670000D02*
X15545500Y-3830000D01*
X15545500Y-3830000D02*
G75*
G03*
X15650500Y-3830000I52500J0D01*
G01*
D13*
X16074000Y-3802500D02*
X16126500Y-3750000D01*
X16074000Y-3697500D01*
X16021500Y-3750000D01*
X16074000Y-3802500D01*
D12*
X16126500Y-3830000D02*
X16126500Y-3670000D01*
X16021500Y-3670000D02*
G75*
G02*
X16126500Y-3670000I52500J0D01*
G01*
X16021500Y-3670000D02*
X16021500Y-3830000D01*
X16021500Y-3830000D02*
G75*
G03*
X16126500Y-3830000I52500J0D01*
G01*
D13*
X16550000Y-3802500D02*
X16602500Y-3750000D01*
X16550000Y-3697500D01*
X16497500Y-3750000D01*
X16550000Y-3802500D01*
D12*
X16602500Y-3830000D02*
X16602500Y-3670000D01*
X16497500Y-3670000D02*
G75*
G02*
X16602500Y-3670000I52500J0D01*
G01*
X16497500Y-3670000D02*
X16497500Y-3830000D01*
X16497500Y-3830000D02*
G75*
G03*
X16602500Y-3830000I52500J0D01*
G01*
D14*
X10580050Y-5479930D02*
X10700050Y-5599930D01*
X10700050Y-5479930D02*
X10580050Y-5599930D01*
X10700050Y-5539930D02*
G75*
G02*
X10580050Y-5539930I-60000J0D01*
G01*
X10580050Y-5539930D02*
G75*
G02*
X10700050Y-5539930I60000J0D01*
G01*
X10580050Y-5733930D02*
X10700050Y-5853930D01*
X10700050Y-5733930D02*
X10580050Y-5853930D01*
X10700050Y-5793930D02*
G75*
G02*
X10580050Y-5793930I-60000J0D01*
G01*
X10580050Y-5793930D02*
G75*
G02*
X10700050Y-5793930I60000J0D01*
G01*
X10580050Y-5987930D02*
X10700050Y-6107930D01*
X10700050Y-5987930D02*
X10580050Y-6107930D01*
X10700050Y-6047930D02*
G75*
G02*
X10580050Y-6047930I-60000J0D01*
G01*
X10580050Y-6047930D02*
G75*
G02*
X10700050Y-6047930I60000J0D01*
G01*
X10580050Y-6241930D02*
X10700050Y-6361930D01*
X10700050Y-6241930D02*
X10580050Y-6361930D01*
X10700050Y-6301930D02*
G75*
G02*
X10580050Y-6301930I-60000J0D01*
G01*
X10580050Y-6301930D02*
G75*
G02*
X10700050Y-6301930I60000J0D01*
G01*
D15*
X15717500Y-12137500D02*
X15842500Y-12262500D01*
X15842500Y-12137500D02*
X15717500Y-12262500D01*
X15780000Y-12137500D02*
X15780000Y-12262500D01*
X15717500Y-12200000D02*
X15842500Y-12200000D01*
D12*
X15842500Y-12250000D02*
X15842500Y-12150000D01*
X15717500Y-12150000D02*
G75*
G02*
X15842500Y-12150000I62500J0D01*
G01*
X15717500Y-12150000D02*
X15717500Y-12250000D01*
X15717500Y-12250000D02*
G75*
G03*
X15842500Y-12250000I62500J0D01*
G01*
D15*
X16127500Y-12137500D02*
X16252500Y-12262500D01*
X16252500Y-12137500D02*
X16127500Y-12262500D01*
X16190000Y-12137500D02*
X16190000Y-12262500D01*
X16127500Y-12200000D02*
X16252500Y-12200000D01*
D12*
X16252500Y-12250000D02*
X16252500Y-12150000D01*
X16127500Y-12150000D02*
G75*
G02*
X16252500Y-12150000I62500J0D01*
G01*
X16127500Y-12150000D02*
X16127500Y-12250000D01*
X16127500Y-12250000D02*
G75*
G03*
X16252500Y-12250000I62500J0D01*
G01*
D15*
X16537500Y-12137500D02*
X16662500Y-12262500D01*
X16662500Y-12137500D02*
X16537500Y-12262500D01*
X16600000Y-12137500D02*
X16600000Y-12262500D01*
X16537500Y-12200000D02*
X16662500Y-12200000D01*
D12*
X16662500Y-12250000D02*
X16662500Y-12150000D01*
X16537500Y-12150000D02*
G75*
G02*
X16662500Y-12150000I62500J0D01*
G01*
X16537500Y-12150000D02*
X16537500Y-12250000D01*
X16537500Y-12250000D02*
G75*
G03*
X16662500Y-12250000I62500J0D01*
G01*
D11*
X9708277Y-12913984D02*
X9708277Y-12713984D01*
X9708277Y-12713984D02*
X9755896Y-12713984D01*
X9755896Y-12713984D02*
X9784467Y-12723508D01*
X9784467Y-12723508D02*
X9803515Y-12742555D01*
X9803515Y-12742555D02*
X9813039Y-12761603D01*
X9813039Y-12761603D02*
X9822563Y-12799698D01*
X9822563Y-12799698D02*
X9822563Y-12828269D01*
X9822563Y-12828269D02*
X9813039Y-12866365D01*
X9813039Y-12866365D02*
X9803515Y-12885412D01*
X9803515Y-12885412D02*
X9784467Y-12904460D01*
X9784467Y-12904460D02*
X9755896Y-12913984D01*
X9755896Y-12913984D02*
X9708277Y-12913984D01*
X9908277Y-12913984D02*
X9908277Y-12780650D01*
X9908277Y-12818746D02*
X9917801Y-12799698D01*
X9917801Y-12799698D02*
X9927324Y-12790174D01*
X9927324Y-12790174D02*
X9946372Y-12780650D01*
X9946372Y-12780650D02*
X9965420Y-12780650D01*
X10032086Y-12913984D02*
X10032086Y-12780650D01*
X10032086Y-12713984D02*
X10022563Y-12723508D01*
X10022563Y-12723508D02*
X10032086Y-12733031D01*
X10032086Y-12733031D02*
X10041610Y-12723508D01*
X10041610Y-12723508D02*
X10032086Y-12713984D01*
X10032086Y-12713984D02*
X10032086Y-12733031D01*
X10155896Y-12913984D02*
X10136848Y-12904460D01*
X10136848Y-12904460D02*
X10127324Y-12885412D01*
X10127324Y-12885412D02*
X10127324Y-12713984D01*
X10260658Y-12913984D02*
X10241610Y-12904460D01*
X10241610Y-12904460D02*
X10232086Y-12885412D01*
X10232086Y-12885412D02*
X10232086Y-12713984D01*
X10489229Y-12913984D02*
X10489229Y-12713984D01*
X10489229Y-12713984D02*
X10555896Y-12856841D01*
X10555896Y-12856841D02*
X10622563Y-12713984D01*
X10622563Y-12713984D02*
X10622563Y-12913984D01*
X10803515Y-12913984D02*
X10803515Y-12809222D01*
X10803515Y-12809222D02*
X10793991Y-12790174D01*
X10793991Y-12790174D02*
X10774944Y-12780650D01*
X10774944Y-12780650D02*
X10736848Y-12780650D01*
X10736848Y-12780650D02*
X10717801Y-12790174D01*
X10803515Y-12904460D02*
X10784467Y-12913984D01*
X10784467Y-12913984D02*
X10736848Y-12913984D01*
X10736848Y-12913984D02*
X10717801Y-12904460D01*
X10717801Y-12904460D02*
X10708277Y-12885412D01*
X10708277Y-12885412D02*
X10708277Y-12866365D01*
X10708277Y-12866365D02*
X10717801Y-12847317D01*
X10717801Y-12847317D02*
X10736848Y-12837793D01*
X10736848Y-12837793D02*
X10784467Y-12837793D01*
X10784467Y-12837793D02*
X10803515Y-12828269D01*
X10898753Y-12780650D02*
X10898753Y-12980650D01*
X10898753Y-12790174D02*
X10917801Y-12780650D01*
X10917801Y-12780650D02*
X10955896Y-12780650D01*
X10955896Y-12780650D02*
X10974944Y-12790174D01*
X10974944Y-12790174D02*
X10984467Y-12799698D01*
X10984467Y-12799698D02*
X10993991Y-12818746D01*
X10993991Y-12818746D02*
X10993991Y-12875888D01*
X10993991Y-12875888D02*
X10984467Y-12894936D01*
X10984467Y-12894936D02*
X10974944Y-12904460D01*
X10974944Y-12904460D02*
X10955896Y-12913984D01*
X10955896Y-12913984D02*
X10917801Y-12913984D01*
X10917801Y-12913984D02*
X10898753Y-12904460D01*
X11079705Y-12894936D02*
X11089229Y-12904460D01*
X11089229Y-12904460D02*
X11079705Y-12913984D01*
X11079705Y-12913984D02*
X11070182Y-12904460D01*
X11070182Y-12904460D02*
X11079705Y-12894936D01*
X11079705Y-12894936D02*
X11079705Y-12913984D01*
X11079705Y-12790174D02*
X11089229Y-12799698D01*
X11089229Y-12799698D02*
X11079705Y-12809222D01*
X11079705Y-12809222D02*
X11070182Y-12799698D01*
X11070182Y-12799698D02*
X11079705Y-12790174D01*
X11079705Y-12790174D02*
X11079705Y-12809222D01*
D12*
X9417500Y-13227500D02*
X9447500Y-13257500D01*
X9447500Y-13227500D02*
X9417500Y-13257500D01*
D11*
X9746372Y-13133984D02*
X9765420Y-13133984D01*
X9765420Y-13133984D02*
X9784467Y-13143508D01*
X9784467Y-13143508D02*
X9793991Y-13153031D01*
X9793991Y-13153031D02*
X9803515Y-13172079D01*
X9803515Y-13172079D02*
X9813039Y-13210174D01*
X9813039Y-13210174D02*
X9813039Y-13257793D01*
X9813039Y-13257793D02*
X9803515Y-13295888D01*
X9803515Y-13295888D02*
X9793991Y-13314936D01*
X9793991Y-13314936D02*
X9784467Y-13324460D01*
X9784467Y-13324460D02*
X9765420Y-13333984D01*
X9765420Y-13333984D02*
X9746372Y-13333984D01*
X9746372Y-13333984D02*
X9727324Y-13324460D01*
X9727324Y-13324460D02*
X9717801Y-13314936D01*
X9717801Y-13314936D02*
X9708277Y-13295888D01*
X9708277Y-13295888D02*
X9698753Y-13257793D01*
X9698753Y-13257793D02*
X9698753Y-13210174D01*
X9698753Y-13210174D02*
X9708277Y-13172079D01*
X9708277Y-13172079D02*
X9717801Y-13153031D01*
X9717801Y-13153031D02*
X9727324Y-13143508D01*
X9727324Y-13143508D02*
X9746372Y-13133984D01*
X9898753Y-13314936D02*
X9908277Y-13324460D01*
X9908277Y-13324460D02*
X9898753Y-13333984D01*
X9898753Y-13333984D02*
X9889229Y-13324460D01*
X9889229Y-13324460D02*
X9898753Y-13314936D01*
X9898753Y-13314936D02*
X9898753Y-13333984D01*
X9974944Y-13133984D02*
X10098753Y-13133984D01*
X10098753Y-13133984D02*
X10032086Y-13210174D01*
X10032086Y-13210174D02*
X10060658Y-13210174D01*
X10060658Y-13210174D02*
X10079705Y-13219698D01*
X10079705Y-13219698D02*
X10089229Y-13229222D01*
X10089229Y-13229222D02*
X10098753Y-13248269D01*
X10098753Y-13248269D02*
X10098753Y-13295888D01*
X10098753Y-13295888D02*
X10089229Y-13314936D01*
X10089229Y-13314936D02*
X10079705Y-13324460D01*
X10079705Y-13324460D02*
X10060658Y-13333984D01*
X10060658Y-13333984D02*
X10003515Y-13333984D01*
X10003515Y-13333984D02*
X9984467Y-13324460D01*
X9984467Y-13324460D02*
X9974944Y-13314936D01*
X10222563Y-13133984D02*
X10241610Y-13133984D01*
X10241610Y-13133984D02*
X10260658Y-13143508D01*
X10260658Y-13143508D02*
X10270182Y-13153031D01*
X10270182Y-13153031D02*
X10279705Y-13172079D01*
X10279705Y-13172079D02*
X10289229Y-13210174D01*
X10289229Y-13210174D02*
X10289229Y-13257793D01*
X10289229Y-13257793D02*
X10279705Y-13295888D01*
X10279705Y-13295888D02*
X10270182Y-13314936D01*
X10270182Y-13314936D02*
X10260658Y-13324460D01*
X10260658Y-13324460D02*
X10241610Y-13333984D01*
X10241610Y-13333984D02*
X10222563Y-13333984D01*
X10222563Y-13333984D02*
X10203515Y-13324460D01*
X10203515Y-13324460D02*
X10193991Y-13314936D01*
X10193991Y-13314936D02*
X10184467Y-13295888D01*
X10184467Y-13295888D02*
X10174944Y-13257793D01*
X10174944Y-13257793D02*
X10174944Y-13210174D01*
X10174944Y-13210174D02*
X10184467Y-13172079D01*
X10184467Y-13172079D02*
X10193991Y-13153031D01*
X10193991Y-13153031D02*
X10203515Y-13143508D01*
X10203515Y-13143508D02*
X10222563Y-13133984D01*
X10413039Y-13133984D02*
X10432086Y-13133984D01*
X10432086Y-13133984D02*
X10451134Y-13143508D01*
X10451134Y-13143508D02*
X10460658Y-13153031D01*
X10460658Y-13153031D02*
X10470182Y-13172079D01*
X10470182Y-13172079D02*
X10479705Y-13210174D01*
X10479705Y-13210174D02*
X10479705Y-13257793D01*
X10479705Y-13257793D02*
X10470182Y-13295888D01*
X10470182Y-13295888D02*
X10460658Y-13314936D01*
X10460658Y-13314936D02*
X10451134Y-13324460D01*
X10451134Y-13324460D02*
X10432086Y-13333984D01*
X10432086Y-13333984D02*
X10413039Y-13333984D01*
X10413039Y-13333984D02*
X10393991Y-13324460D01*
X10393991Y-13324460D02*
X10384467Y-13314936D01*
X10384467Y-13314936D02*
X10374944Y-13295888D01*
X10374944Y-13295888D02*
X10365420Y-13257793D01*
X10365420Y-13257793D02*
X10365420Y-13210174D01*
X10365420Y-13210174D02*
X10374944Y-13172079D01*
X10374944Y-13172079D02*
X10384467Y-13153031D01*
X10384467Y-13153031D02*
X10393991Y-13143508D01*
X10393991Y-13143508D02*
X10413039Y-13133984D01*
X10565420Y-13333984D02*
X10565420Y-13200650D01*
X10565420Y-13219698D02*
X10574944Y-13210174D01*
X10574944Y-13210174D02*
X10593991Y-13200650D01*
X10593991Y-13200650D02*
X10622563Y-13200650D01*
X10622563Y-13200650D02*
X10641610Y-13210174D01*
X10641610Y-13210174D02*
X10651134Y-13229222D01*
X10651134Y-13229222D02*
X10651134Y-13333984D01*
X10651134Y-13229222D02*
X10660658Y-13210174D01*
X10660658Y-13210174D02*
X10679705Y-13200650D01*
X10679705Y-13200650D02*
X10708277Y-13200650D01*
X10708277Y-13200650D02*
X10727325Y-13210174D01*
X10727325Y-13210174D02*
X10736848Y-13229222D01*
X10736848Y-13229222D02*
X10736848Y-13333984D01*
X10832086Y-13333984D02*
X10832086Y-13200650D01*
X10832086Y-13219698D02*
X10841610Y-13210174D01*
X10841610Y-13210174D02*
X10860658Y-13200650D01*
X10860658Y-13200650D02*
X10889229Y-13200650D01*
X10889229Y-13200650D02*
X10908277Y-13210174D01*
X10908277Y-13210174D02*
X10917801Y-13229222D01*
X10917801Y-13229222D02*
X10917801Y-13333984D01*
X10917801Y-13229222D02*
X10927325Y-13210174D01*
X10927325Y-13210174D02*
X10946372Y-13200650D01*
X10946372Y-13200650D02*
X10974944Y-13200650D01*
X10974944Y-13200650D02*
X10993991Y-13210174D01*
X10993991Y-13210174D02*
X11003515Y-13229222D01*
X11003515Y-13229222D02*
X11003515Y-13333984D01*
X11393991Y-13124460D02*
X11222563Y-13381603D01*
X11651134Y-13133984D02*
X11670182Y-13133984D01*
X11670182Y-13133984D02*
X11689229Y-13143508D01*
X11689229Y-13143508D02*
X11698753Y-13153031D01*
X11698753Y-13153031D02*
X11708277Y-13172079D01*
X11708277Y-13172079D02*
X11717801Y-13210174D01*
X11717801Y-13210174D02*
X11717801Y-13257793D01*
X11717801Y-13257793D02*
X11708277Y-13295888D01*
X11708277Y-13295888D02*
X11698753Y-13314936D01*
X11698753Y-13314936D02*
X11689229Y-13324460D01*
X11689229Y-13324460D02*
X11670182Y-13333984D01*
X11670182Y-13333984D02*
X11651134Y-13333984D01*
X11651134Y-13333984D02*
X11632086Y-13324460D01*
X11632086Y-13324460D02*
X11622563Y-13314936D01*
X11622563Y-13314936D02*
X11613039Y-13295888D01*
X11613039Y-13295888D02*
X11603515Y-13257793D01*
X11603515Y-13257793D02*
X11603515Y-13210174D01*
X11603515Y-13210174D02*
X11613039Y-13172079D01*
X11613039Y-13172079D02*
X11622563Y-13153031D01*
X11622563Y-13153031D02*
X11632086Y-13143508D01*
X11632086Y-13143508D02*
X11651134Y-13133984D01*
X11803515Y-13314936D02*
X11813039Y-13324460D01*
X11813039Y-13324460D02*
X11803515Y-13333984D01*
X11803515Y-13333984D02*
X11793991Y-13324460D01*
X11793991Y-13324460D02*
X11803515Y-13314936D01*
X11803515Y-13314936D02*
X11803515Y-13333984D01*
X11936848Y-13133984D02*
X11955896Y-13133984D01*
X11955896Y-13133984D02*
X11974944Y-13143508D01*
X11974944Y-13143508D02*
X11984467Y-13153031D01*
X11984467Y-13153031D02*
X11993991Y-13172079D01*
X11993991Y-13172079D02*
X12003515Y-13210174D01*
X12003515Y-13210174D02*
X12003515Y-13257793D01*
X12003515Y-13257793D02*
X11993991Y-13295888D01*
X11993991Y-13295888D02*
X11984467Y-13314936D01*
X11984467Y-13314936D02*
X11974944Y-13324460D01*
X11974944Y-13324460D02*
X11955896Y-13333984D01*
X11955896Y-13333984D02*
X11936848Y-13333984D01*
X11936848Y-13333984D02*
X11917801Y-13324460D01*
X11917801Y-13324460D02*
X11908277Y-13314936D01*
X11908277Y-13314936D02*
X11898753Y-13295888D01*
X11898753Y-13295888D02*
X11889229Y-13257793D01*
X11889229Y-13257793D02*
X11889229Y-13210174D01*
X11889229Y-13210174D02*
X11898753Y-13172079D01*
X11898753Y-13172079D02*
X11908277Y-13153031D01*
X11908277Y-13153031D02*
X11917801Y-13143508D01*
X11917801Y-13143508D02*
X11936848Y-13133984D01*
X12193991Y-13333984D02*
X12079706Y-13333984D01*
X12136848Y-13333984D02*
X12136848Y-13133984D01*
X12136848Y-13133984D02*
X12117801Y-13162555D01*
X12117801Y-13162555D02*
X12098753Y-13181603D01*
X12098753Y-13181603D02*
X12079706Y-13191127D01*
X12384467Y-13333984D02*
X12270182Y-13333984D01*
X12327325Y-13333984D02*
X12327325Y-13133984D01*
X12327325Y-13133984D02*
X12308277Y-13162555D01*
X12308277Y-13162555D02*
X12289229Y-13181603D01*
X12289229Y-13181603D02*
X12270182Y-13191127D01*
X12498753Y-13219698D02*
X12479706Y-13210174D01*
X12479706Y-13210174D02*
X12470182Y-13200650D01*
X12470182Y-13200650D02*
X12460658Y-13181603D01*
X12460658Y-13181603D02*
X12460658Y-13172079D01*
X12460658Y-13172079D02*
X12470182Y-13153031D01*
X12470182Y-13153031D02*
X12479706Y-13143508D01*
X12479706Y-13143508D02*
X12498753Y-13133984D01*
X12498753Y-13133984D02*
X12536848Y-13133984D01*
X12536848Y-13133984D02*
X12555896Y-13143508D01*
X12555896Y-13143508D02*
X12565420Y-13153031D01*
X12565420Y-13153031D02*
X12574944Y-13172079D01*
X12574944Y-13172079D02*
X12574944Y-13181603D01*
X12574944Y-13181603D02*
X12565420Y-13200650D01*
X12565420Y-13200650D02*
X12555896Y-13210174D01*
X12555896Y-13210174D02*
X12536848Y-13219698D01*
X12536848Y-13219698D02*
X12498753Y-13219698D01*
X12498753Y-13219698D02*
X12479706Y-13229222D01*
X12479706Y-13229222D02*
X12470182Y-13238746D01*
X12470182Y-13238746D02*
X12460658Y-13257793D01*
X12460658Y-13257793D02*
X12460658Y-13295888D01*
X12460658Y-13295888D02*
X12470182Y-13314936D01*
X12470182Y-13314936D02*
X12479706Y-13324460D01*
X12479706Y-13324460D02*
X12498753Y-13333984D01*
X12498753Y-13333984D02*
X12536848Y-13333984D01*
X12536848Y-13333984D02*
X12555896Y-13324460D01*
X12555896Y-13324460D02*
X12565420Y-13314936D01*
X12565420Y-13314936D02*
X12574944Y-13295888D01*
X12574944Y-13295888D02*
X12574944Y-13257793D01*
X12574944Y-13257793D02*
X12565420Y-13238746D01*
X12565420Y-13238746D02*
X12555896Y-13229222D01*
X12555896Y-13229222D02*
X12536848Y-13219698D01*
X12651134Y-13133984D02*
X12651134Y-13172079D01*
X12727325Y-13133984D02*
X12727325Y-13172079D01*
X13022563Y-13410174D02*
X13013039Y-13400650D01*
X13013039Y-13400650D02*
X12993991Y-13372079D01*
X12993991Y-13372079D02*
X12984468Y-13353031D01*
X12984468Y-13353031D02*
X12974944Y-13324460D01*
X12974944Y-13324460D02*
X12965420Y-13276841D01*
X12965420Y-13276841D02*
X12965420Y-13238746D01*
X12965420Y-13238746D02*
X12974944Y-13191127D01*
X12974944Y-13191127D02*
X12984468Y-13162555D01*
X12984468Y-13162555D02*
X12993991Y-13143508D01*
X12993991Y-13143508D02*
X13013039Y-13114936D01*
X13013039Y-13114936D02*
X13022563Y-13105412D01*
X13089229Y-13153031D02*
X13098753Y-13143508D01*
X13098753Y-13143508D02*
X13117801Y-13133984D01*
X13117801Y-13133984D02*
X13165420Y-13133984D01*
X13165420Y-13133984D02*
X13184468Y-13143508D01*
X13184468Y-13143508D02*
X13193991Y-13153031D01*
X13193991Y-13153031D02*
X13203515Y-13172079D01*
X13203515Y-13172079D02*
X13203515Y-13191127D01*
X13203515Y-13191127D02*
X13193991Y-13219698D01*
X13193991Y-13219698D02*
X13079706Y-13333984D01*
X13079706Y-13333984D02*
X13203515Y-13333984D01*
X13279706Y-13153031D02*
X13289229Y-13143508D01*
X13289229Y-13143508D02*
X13308277Y-13133984D01*
X13308277Y-13133984D02*
X13355896Y-13133984D01*
X13355896Y-13133984D02*
X13374944Y-13143508D01*
X13374944Y-13143508D02*
X13384468Y-13153031D01*
X13384468Y-13153031D02*
X13393991Y-13172079D01*
X13393991Y-13172079D02*
X13393991Y-13191127D01*
X13393991Y-13191127D02*
X13384468Y-13219698D01*
X13384468Y-13219698D02*
X13270182Y-13333984D01*
X13270182Y-13333984D02*
X13393991Y-13333984D01*
X13632087Y-13333984D02*
X13632087Y-13133984D01*
X13717801Y-13333984D02*
X13717801Y-13229222D01*
X13717801Y-13229222D02*
X13708277Y-13210174D01*
X13708277Y-13210174D02*
X13689230Y-13200650D01*
X13689230Y-13200650D02*
X13660658Y-13200650D01*
X13660658Y-13200650D02*
X13641610Y-13210174D01*
X13641610Y-13210174D02*
X13632087Y-13219698D01*
X13841610Y-13333984D02*
X13822563Y-13324460D01*
X13822563Y-13324460D02*
X13813039Y-13314936D01*
X13813039Y-13314936D02*
X13803515Y-13295888D01*
X13803515Y-13295888D02*
X13803515Y-13238746D01*
X13803515Y-13238746D02*
X13813039Y-13219698D01*
X13813039Y-13219698D02*
X13822563Y-13210174D01*
X13822563Y-13210174D02*
X13841610Y-13200650D01*
X13841610Y-13200650D02*
X13870182Y-13200650D01*
X13870182Y-13200650D02*
X13889230Y-13210174D01*
X13889230Y-13210174D02*
X13898753Y-13219698D01*
X13898753Y-13219698D02*
X13908277Y-13238746D01*
X13908277Y-13238746D02*
X13908277Y-13295888D01*
X13908277Y-13295888D02*
X13898753Y-13314936D01*
X13898753Y-13314936D02*
X13889230Y-13324460D01*
X13889230Y-13324460D02*
X13870182Y-13333984D01*
X13870182Y-13333984D02*
X13841610Y-13333984D01*
X14022563Y-13333984D02*
X14003515Y-13324460D01*
X14003515Y-13324460D02*
X13993991Y-13305412D01*
X13993991Y-13305412D02*
X13993991Y-13133984D01*
X14174944Y-13324460D02*
X14155896Y-13333984D01*
X14155896Y-13333984D02*
X14117801Y-13333984D01*
X14117801Y-13333984D02*
X14098753Y-13324460D01*
X14098753Y-13324460D02*
X14089230Y-13305412D01*
X14089230Y-13305412D02*
X14089230Y-13229222D01*
X14089230Y-13229222D02*
X14098753Y-13210174D01*
X14098753Y-13210174D02*
X14117801Y-13200650D01*
X14117801Y-13200650D02*
X14155896Y-13200650D01*
X14155896Y-13200650D02*
X14174944Y-13210174D01*
X14174944Y-13210174D02*
X14184468Y-13229222D01*
X14184468Y-13229222D02*
X14184468Y-13248269D01*
X14184468Y-13248269D02*
X14089230Y-13267317D01*
X14260658Y-13324460D02*
X14279706Y-13333984D01*
X14279706Y-13333984D02*
X14317801Y-13333984D01*
X14317801Y-13333984D02*
X14336849Y-13324460D01*
X14336849Y-13324460D02*
X14346372Y-13305412D01*
X14346372Y-13305412D02*
X14346372Y-13295888D01*
X14346372Y-13295888D02*
X14336849Y-13276841D01*
X14336849Y-13276841D02*
X14317801Y-13267317D01*
X14317801Y-13267317D02*
X14289230Y-13267317D01*
X14289230Y-13267317D02*
X14270182Y-13257793D01*
X14270182Y-13257793D02*
X14260658Y-13238746D01*
X14260658Y-13238746D02*
X14260658Y-13229222D01*
X14260658Y-13229222D02*
X14270182Y-13210174D01*
X14270182Y-13210174D02*
X14289230Y-13200650D01*
X14289230Y-13200650D02*
X14317801Y-13200650D01*
X14317801Y-13200650D02*
X14336849Y-13210174D01*
X14413039Y-13410174D02*
X14422563Y-13400650D01*
X14422563Y-13400650D02*
X14441611Y-13372079D01*
X14441611Y-13372079D02*
X14451134Y-13353031D01*
X14451134Y-13353031D02*
X14460658Y-13324460D01*
X14460658Y-13324460D02*
X14470182Y-13276841D01*
X14470182Y-13276841D02*
X14470182Y-13238746D01*
X14470182Y-13238746D02*
X14460658Y-13191127D01*
X14460658Y-13191127D02*
X14451134Y-13162555D01*
X14451134Y-13162555D02*
X14441611Y-13143508D01*
X14441611Y-13143508D02*
X14422563Y-13114936D01*
X14422563Y-13114936D02*
X14413039Y-13105412D01*
D12*
X9447500Y-13506500D02*
G75*
G02*
X9372500Y-13506500I-37500J0D01*
G01*
X9372500Y-13506500D02*
G75*
G02*
X9447500Y-13506500I37500J0D01*
G01*
D11*
X9746372Y-13397984D02*
X9765420Y-13397984D01*
X9765420Y-13397984D02*
X9784467Y-13407508D01*
X9784467Y-13407508D02*
X9793991Y-13417031D01*
X9793991Y-13417031D02*
X9803515Y-13436079D01*
X9803515Y-13436079D02*
X9813039Y-13474174D01*
X9813039Y-13474174D02*
X9813039Y-13521793D01*
X9813039Y-13521793D02*
X9803515Y-13559888D01*
X9803515Y-13559888D02*
X9793991Y-13578936D01*
X9793991Y-13578936D02*
X9784467Y-13588460D01*
X9784467Y-13588460D02*
X9765420Y-13597984D01*
X9765420Y-13597984D02*
X9746372Y-13597984D01*
X9746372Y-13597984D02*
X9727324Y-13588460D01*
X9727324Y-13588460D02*
X9717801Y-13578936D01*
X9717801Y-13578936D02*
X9708277Y-13559888D01*
X9708277Y-13559888D02*
X9698753Y-13521793D01*
X9698753Y-13521793D02*
X9698753Y-13474174D01*
X9698753Y-13474174D02*
X9708277Y-13436079D01*
X9708277Y-13436079D02*
X9717801Y-13417031D01*
X9717801Y-13417031D02*
X9727324Y-13407508D01*
X9727324Y-13407508D02*
X9746372Y-13397984D01*
X9898753Y-13578936D02*
X9908277Y-13588460D01*
X9908277Y-13588460D02*
X9898753Y-13597984D01*
X9898753Y-13597984D02*
X9889229Y-13588460D01*
X9889229Y-13588460D02*
X9898753Y-13578936D01*
X9898753Y-13578936D02*
X9898753Y-13597984D01*
X9974944Y-13397984D02*
X10108277Y-13397984D01*
X10108277Y-13397984D02*
X10022563Y-13597984D01*
X10279705Y-13397984D02*
X10184467Y-13397984D01*
X10184467Y-13397984D02*
X10174944Y-13493222D01*
X10174944Y-13493222D02*
X10184467Y-13483698D01*
X10184467Y-13483698D02*
X10203515Y-13474174D01*
X10203515Y-13474174D02*
X10251134Y-13474174D01*
X10251134Y-13474174D02*
X10270182Y-13483698D01*
X10270182Y-13483698D02*
X10279705Y-13493222D01*
X10279705Y-13493222D02*
X10289229Y-13512269D01*
X10289229Y-13512269D02*
X10289229Y-13559888D01*
X10289229Y-13559888D02*
X10279705Y-13578936D01*
X10279705Y-13578936D02*
X10270182Y-13588460D01*
X10270182Y-13588460D02*
X10251134Y-13597984D01*
X10251134Y-13597984D02*
X10203515Y-13597984D01*
X10203515Y-13597984D02*
X10184467Y-13588460D01*
X10184467Y-13588460D02*
X10174944Y-13578936D01*
X10413039Y-13397984D02*
X10432086Y-13397984D01*
X10432086Y-13397984D02*
X10451134Y-13407508D01*
X10451134Y-13407508D02*
X10460658Y-13417031D01*
X10460658Y-13417031D02*
X10470182Y-13436079D01*
X10470182Y-13436079D02*
X10479705Y-13474174D01*
X10479705Y-13474174D02*
X10479705Y-13521793D01*
X10479705Y-13521793D02*
X10470182Y-13559888D01*
X10470182Y-13559888D02*
X10460658Y-13578936D01*
X10460658Y-13578936D02*
X10451134Y-13588460D01*
X10451134Y-13588460D02*
X10432086Y-13597984D01*
X10432086Y-13597984D02*
X10413039Y-13597984D01*
X10413039Y-13597984D02*
X10393991Y-13588460D01*
X10393991Y-13588460D02*
X10384467Y-13578936D01*
X10384467Y-13578936D02*
X10374944Y-13559888D01*
X10374944Y-13559888D02*
X10365420Y-13521793D01*
X10365420Y-13521793D02*
X10365420Y-13474174D01*
X10365420Y-13474174D02*
X10374944Y-13436079D01*
X10374944Y-13436079D02*
X10384467Y-13417031D01*
X10384467Y-13417031D02*
X10393991Y-13407508D01*
X10393991Y-13407508D02*
X10413039Y-13397984D01*
X10565420Y-13597984D02*
X10565420Y-13464650D01*
X10565420Y-13483698D02*
X10574944Y-13474174D01*
X10574944Y-13474174D02*
X10593991Y-13464650D01*
X10593991Y-13464650D02*
X10622563Y-13464650D01*
X10622563Y-13464650D02*
X10641610Y-13474174D01*
X10641610Y-13474174D02*
X10651134Y-13493222D01*
X10651134Y-13493222D02*
X10651134Y-13597984D01*
X10651134Y-13493222D02*
X10660658Y-13474174D01*
X10660658Y-13474174D02*
X10679705Y-13464650D01*
X10679705Y-13464650D02*
X10708277Y-13464650D01*
X10708277Y-13464650D02*
X10727325Y-13474174D01*
X10727325Y-13474174D02*
X10736848Y-13493222D01*
X10736848Y-13493222D02*
X10736848Y-13597984D01*
X10832086Y-13597984D02*
X10832086Y-13464650D01*
X10832086Y-13483698D02*
X10841610Y-13474174D01*
X10841610Y-13474174D02*
X10860658Y-13464650D01*
X10860658Y-13464650D02*
X10889229Y-13464650D01*
X10889229Y-13464650D02*
X10908277Y-13474174D01*
X10908277Y-13474174D02*
X10917801Y-13493222D01*
X10917801Y-13493222D02*
X10917801Y-13597984D01*
X10917801Y-13493222D02*
X10927325Y-13474174D01*
X10927325Y-13474174D02*
X10946372Y-13464650D01*
X10946372Y-13464650D02*
X10974944Y-13464650D01*
X10974944Y-13464650D02*
X10993991Y-13474174D01*
X10993991Y-13474174D02*
X11003515Y-13493222D01*
X11003515Y-13493222D02*
X11003515Y-13597984D01*
X11393991Y-13388460D02*
X11222563Y-13645603D01*
X11651134Y-13397984D02*
X11670182Y-13397984D01*
X11670182Y-13397984D02*
X11689229Y-13407508D01*
X11689229Y-13407508D02*
X11698753Y-13417031D01*
X11698753Y-13417031D02*
X11708277Y-13436079D01*
X11708277Y-13436079D02*
X11717801Y-13474174D01*
X11717801Y-13474174D02*
X11717801Y-13521793D01*
X11717801Y-13521793D02*
X11708277Y-13559888D01*
X11708277Y-13559888D02*
X11698753Y-13578936D01*
X11698753Y-13578936D02*
X11689229Y-13588460D01*
X11689229Y-13588460D02*
X11670182Y-13597984D01*
X11670182Y-13597984D02*
X11651134Y-13597984D01*
X11651134Y-13597984D02*
X11632086Y-13588460D01*
X11632086Y-13588460D02*
X11622563Y-13578936D01*
X11622563Y-13578936D02*
X11613039Y-13559888D01*
X11613039Y-13559888D02*
X11603515Y-13521793D01*
X11603515Y-13521793D02*
X11603515Y-13474174D01*
X11603515Y-13474174D02*
X11613039Y-13436079D01*
X11613039Y-13436079D02*
X11622563Y-13417031D01*
X11622563Y-13417031D02*
X11632086Y-13407508D01*
X11632086Y-13407508D02*
X11651134Y-13397984D01*
X11803515Y-13578936D02*
X11813039Y-13588460D01*
X11813039Y-13588460D02*
X11803515Y-13597984D01*
X11803515Y-13597984D02*
X11793991Y-13588460D01*
X11793991Y-13588460D02*
X11803515Y-13578936D01*
X11803515Y-13578936D02*
X11803515Y-13597984D01*
X11936848Y-13397984D02*
X11955896Y-13397984D01*
X11955896Y-13397984D02*
X11974944Y-13407508D01*
X11974944Y-13407508D02*
X11984467Y-13417031D01*
X11984467Y-13417031D02*
X11993991Y-13436079D01*
X11993991Y-13436079D02*
X12003515Y-13474174D01*
X12003515Y-13474174D02*
X12003515Y-13521793D01*
X12003515Y-13521793D02*
X11993991Y-13559888D01*
X11993991Y-13559888D02*
X11984467Y-13578936D01*
X11984467Y-13578936D02*
X11974944Y-13588460D01*
X11974944Y-13588460D02*
X11955896Y-13597984D01*
X11955896Y-13597984D02*
X11936848Y-13597984D01*
X11936848Y-13597984D02*
X11917801Y-13588460D01*
X11917801Y-13588460D02*
X11908277Y-13578936D01*
X11908277Y-13578936D02*
X11898753Y-13559888D01*
X11898753Y-13559888D02*
X11889229Y-13521793D01*
X11889229Y-13521793D02*
X11889229Y-13474174D01*
X11889229Y-13474174D02*
X11898753Y-13436079D01*
X11898753Y-13436079D02*
X11908277Y-13417031D01*
X11908277Y-13417031D02*
X11917801Y-13407508D01*
X11917801Y-13407508D02*
X11936848Y-13397984D01*
X12079706Y-13417031D02*
X12089229Y-13407508D01*
X12089229Y-13407508D02*
X12108277Y-13397984D01*
X12108277Y-13397984D02*
X12155896Y-13397984D01*
X12155896Y-13397984D02*
X12174944Y-13407508D01*
X12174944Y-13407508D02*
X12184467Y-13417031D01*
X12184467Y-13417031D02*
X12193991Y-13436079D01*
X12193991Y-13436079D02*
X12193991Y-13455127D01*
X12193991Y-13455127D02*
X12184467Y-13483698D01*
X12184467Y-13483698D02*
X12070182Y-13597984D01*
X12070182Y-13597984D02*
X12193991Y-13597984D01*
X12289229Y-13597984D02*
X12327325Y-13597984D01*
X12327325Y-13597984D02*
X12346372Y-13588460D01*
X12346372Y-13588460D02*
X12355896Y-13578936D01*
X12355896Y-13578936D02*
X12374944Y-13550365D01*
X12374944Y-13550365D02*
X12384467Y-13512269D01*
X12384467Y-13512269D02*
X12384467Y-13436079D01*
X12384467Y-13436079D02*
X12374944Y-13417031D01*
X12374944Y-13417031D02*
X12365420Y-13407508D01*
X12365420Y-13407508D02*
X12346372Y-13397984D01*
X12346372Y-13397984D02*
X12308277Y-13397984D01*
X12308277Y-13397984D02*
X12289229Y-13407508D01*
X12289229Y-13407508D02*
X12279706Y-13417031D01*
X12279706Y-13417031D02*
X12270182Y-13436079D01*
X12270182Y-13436079D02*
X12270182Y-13483698D01*
X12270182Y-13483698D02*
X12279706Y-13502746D01*
X12279706Y-13502746D02*
X12289229Y-13512269D01*
X12289229Y-13512269D02*
X12308277Y-13521793D01*
X12308277Y-13521793D02*
X12346372Y-13521793D01*
X12346372Y-13521793D02*
X12365420Y-13512269D01*
X12365420Y-13512269D02*
X12374944Y-13502746D01*
X12374944Y-13502746D02*
X12384467Y-13483698D01*
X12565420Y-13397984D02*
X12470182Y-13397984D01*
X12470182Y-13397984D02*
X12460658Y-13493222D01*
X12460658Y-13493222D02*
X12470182Y-13483698D01*
X12470182Y-13483698D02*
X12489229Y-13474174D01*
X12489229Y-13474174D02*
X12536848Y-13474174D01*
X12536848Y-13474174D02*
X12555896Y-13483698D01*
X12555896Y-13483698D02*
X12565420Y-13493222D01*
X12565420Y-13493222D02*
X12574944Y-13512269D01*
X12574944Y-13512269D02*
X12574944Y-13559888D01*
X12574944Y-13559888D02*
X12565420Y-13578936D01*
X12565420Y-13578936D02*
X12555896Y-13588460D01*
X12555896Y-13588460D02*
X12536848Y-13597984D01*
X12536848Y-13597984D02*
X12489229Y-13597984D01*
X12489229Y-13597984D02*
X12470182Y-13588460D01*
X12470182Y-13588460D02*
X12460658Y-13578936D01*
X12651134Y-13397984D02*
X12651134Y-13436079D01*
X12727325Y-13397984D02*
X12727325Y-13436079D01*
X13022563Y-13674174D02*
X13013039Y-13664650D01*
X13013039Y-13664650D02*
X12993991Y-13636079D01*
X12993991Y-13636079D02*
X12984468Y-13617031D01*
X12984468Y-13617031D02*
X12974944Y-13588460D01*
X12974944Y-13588460D02*
X12965420Y-13540841D01*
X12965420Y-13540841D02*
X12965420Y-13502746D01*
X12965420Y-13502746D02*
X12974944Y-13455127D01*
X12974944Y-13455127D02*
X12984468Y-13426555D01*
X12984468Y-13426555D02*
X12993991Y-13407508D01*
X12993991Y-13407508D02*
X13013039Y-13378936D01*
X13013039Y-13378936D02*
X13022563Y-13369412D01*
X13079706Y-13397984D02*
X13203515Y-13397984D01*
X13203515Y-13397984D02*
X13136848Y-13474174D01*
X13136848Y-13474174D02*
X13165420Y-13474174D01*
X13165420Y-13474174D02*
X13184468Y-13483698D01*
X13184468Y-13483698D02*
X13193991Y-13493222D01*
X13193991Y-13493222D02*
X13203515Y-13512269D01*
X13203515Y-13512269D02*
X13203515Y-13559888D01*
X13203515Y-13559888D02*
X13193991Y-13578936D01*
X13193991Y-13578936D02*
X13184468Y-13588460D01*
X13184468Y-13588460D02*
X13165420Y-13597984D01*
X13165420Y-13597984D02*
X13108277Y-13597984D01*
X13108277Y-13597984D02*
X13089229Y-13588460D01*
X13089229Y-13588460D02*
X13079706Y-13578936D01*
X13441610Y-13597984D02*
X13441610Y-13397984D01*
X13527325Y-13597984D02*
X13527325Y-13493222D01*
X13527325Y-13493222D02*
X13517801Y-13474174D01*
X13517801Y-13474174D02*
X13498753Y-13464650D01*
X13498753Y-13464650D02*
X13470182Y-13464650D01*
X13470182Y-13464650D02*
X13451134Y-13474174D01*
X13451134Y-13474174D02*
X13441610Y-13483698D01*
X13651134Y-13597984D02*
X13632087Y-13588460D01*
X13632087Y-13588460D02*
X13622563Y-13578936D01*
X13622563Y-13578936D02*
X13613039Y-13559888D01*
X13613039Y-13559888D02*
X13613039Y-13502746D01*
X13613039Y-13502746D02*
X13622563Y-13483698D01*
X13622563Y-13483698D02*
X13632087Y-13474174D01*
X13632087Y-13474174D02*
X13651134Y-13464650D01*
X13651134Y-13464650D02*
X13679706Y-13464650D01*
X13679706Y-13464650D02*
X13698753Y-13474174D01*
X13698753Y-13474174D02*
X13708277Y-13483698D01*
X13708277Y-13483698D02*
X13717801Y-13502746D01*
X13717801Y-13502746D02*
X13717801Y-13559888D01*
X13717801Y-13559888D02*
X13708277Y-13578936D01*
X13708277Y-13578936D02*
X13698753Y-13588460D01*
X13698753Y-13588460D02*
X13679706Y-13597984D01*
X13679706Y-13597984D02*
X13651134Y-13597984D01*
X13832087Y-13597984D02*
X13813039Y-13588460D01*
X13813039Y-13588460D02*
X13803515Y-13569412D01*
X13803515Y-13569412D02*
X13803515Y-13397984D01*
X13984468Y-13588460D02*
X13965420Y-13597984D01*
X13965420Y-13597984D02*
X13927325Y-13597984D01*
X13927325Y-13597984D02*
X13908277Y-13588460D01*
X13908277Y-13588460D02*
X13898753Y-13569412D01*
X13898753Y-13569412D02*
X13898753Y-13493222D01*
X13898753Y-13493222D02*
X13908277Y-13474174D01*
X13908277Y-13474174D02*
X13927325Y-13464650D01*
X13927325Y-13464650D02*
X13965420Y-13464650D01*
X13965420Y-13464650D02*
X13984468Y-13474174D01*
X13984468Y-13474174D02*
X13993991Y-13493222D01*
X13993991Y-13493222D02*
X13993991Y-13512269D01*
X13993991Y-13512269D02*
X13898753Y-13531317D01*
X14070182Y-13588460D02*
X14089230Y-13597984D01*
X14089230Y-13597984D02*
X14127325Y-13597984D01*
X14127325Y-13597984D02*
X14146372Y-13588460D01*
X14146372Y-13588460D02*
X14155896Y-13569412D01*
X14155896Y-13569412D02*
X14155896Y-13559888D01*
X14155896Y-13559888D02*
X14146372Y-13540841D01*
X14146372Y-13540841D02*
X14127325Y-13531317D01*
X14127325Y-13531317D02*
X14098753Y-13531317D01*
X14098753Y-13531317D02*
X14079706Y-13521793D01*
X14079706Y-13521793D02*
X14070182Y-13502746D01*
X14070182Y-13502746D02*
X14070182Y-13493222D01*
X14070182Y-13493222D02*
X14079706Y-13474174D01*
X14079706Y-13474174D02*
X14098753Y-13464650D01*
X14098753Y-13464650D02*
X14127325Y-13464650D01*
X14127325Y-13464650D02*
X14146372Y-13474174D01*
X14222563Y-13674174D02*
X14232087Y-13664650D01*
X14232087Y-13664650D02*
X14251134Y-13636079D01*
X14251134Y-13636079D02*
X14260658Y-13617031D01*
X14260658Y-13617031D02*
X14270182Y-13588460D01*
X14270182Y-13588460D02*
X14279706Y-13540841D01*
X14279706Y-13540841D02*
X14279706Y-13502746D01*
X14279706Y-13502746D02*
X14270182Y-13455127D01*
X14270182Y-13455127D02*
X14260658Y-13426555D01*
X14260658Y-13426555D02*
X14251134Y-13407508D01*
X14251134Y-13407508D02*
X14232087Y-13378936D01*
X14232087Y-13378936D02*
X14222563Y-13369412D01*
D12*
X9407500Y-13730500D02*
X9407500Y-13810500D01*
X9367500Y-13770500D02*
X9447500Y-13770500D01*
D11*
X9746372Y-13661984D02*
X9765420Y-13661984D01*
X9765420Y-13661984D02*
X9784467Y-13671508D01*
X9784467Y-13671508D02*
X9793991Y-13681031D01*
X9793991Y-13681031D02*
X9803515Y-13700079D01*
X9803515Y-13700079D02*
X9813039Y-13738174D01*
X9813039Y-13738174D02*
X9813039Y-13785793D01*
X9813039Y-13785793D02*
X9803515Y-13823888D01*
X9803515Y-13823888D02*
X9793991Y-13842936D01*
X9793991Y-13842936D02*
X9784467Y-13852460D01*
X9784467Y-13852460D02*
X9765420Y-13861984D01*
X9765420Y-13861984D02*
X9746372Y-13861984D01*
X9746372Y-13861984D02*
X9727324Y-13852460D01*
X9727324Y-13852460D02*
X9717801Y-13842936D01*
X9717801Y-13842936D02*
X9708277Y-13823888D01*
X9708277Y-13823888D02*
X9698753Y-13785793D01*
X9698753Y-13785793D02*
X9698753Y-13738174D01*
X9698753Y-13738174D02*
X9708277Y-13700079D01*
X9708277Y-13700079D02*
X9717801Y-13681031D01*
X9717801Y-13681031D02*
X9727324Y-13671508D01*
X9727324Y-13671508D02*
X9746372Y-13661984D01*
X9898753Y-13842936D02*
X9908277Y-13852460D01*
X9908277Y-13852460D02*
X9898753Y-13861984D01*
X9898753Y-13861984D02*
X9889229Y-13852460D01*
X9889229Y-13852460D02*
X9898753Y-13842936D01*
X9898753Y-13842936D02*
X9898753Y-13861984D01*
X10022563Y-13747698D02*
X10003515Y-13738174D01*
X10003515Y-13738174D02*
X9993991Y-13728650D01*
X9993991Y-13728650D02*
X9984467Y-13709603D01*
X9984467Y-13709603D02*
X9984467Y-13700079D01*
X9984467Y-13700079D02*
X9993991Y-13681031D01*
X9993991Y-13681031D02*
X10003515Y-13671508D01*
X10003515Y-13671508D02*
X10022563Y-13661984D01*
X10022563Y-13661984D02*
X10060658Y-13661984D01*
X10060658Y-13661984D02*
X10079705Y-13671508D01*
X10079705Y-13671508D02*
X10089229Y-13681031D01*
X10089229Y-13681031D02*
X10098753Y-13700079D01*
X10098753Y-13700079D02*
X10098753Y-13709603D01*
X10098753Y-13709603D02*
X10089229Y-13728650D01*
X10089229Y-13728650D02*
X10079705Y-13738174D01*
X10079705Y-13738174D02*
X10060658Y-13747698D01*
X10060658Y-13747698D02*
X10022563Y-13747698D01*
X10022563Y-13747698D02*
X10003515Y-13757222D01*
X10003515Y-13757222D02*
X9993991Y-13766746D01*
X9993991Y-13766746D02*
X9984467Y-13785793D01*
X9984467Y-13785793D02*
X9984467Y-13823888D01*
X9984467Y-13823888D02*
X9993991Y-13842936D01*
X9993991Y-13842936D02*
X10003515Y-13852460D01*
X10003515Y-13852460D02*
X10022563Y-13861984D01*
X10022563Y-13861984D02*
X10060658Y-13861984D01*
X10060658Y-13861984D02*
X10079705Y-13852460D01*
X10079705Y-13852460D02*
X10089229Y-13842936D01*
X10089229Y-13842936D02*
X10098753Y-13823888D01*
X10098753Y-13823888D02*
X10098753Y-13785793D01*
X10098753Y-13785793D02*
X10089229Y-13766746D01*
X10089229Y-13766746D02*
X10079705Y-13757222D01*
X10079705Y-13757222D02*
X10060658Y-13747698D01*
X10222563Y-13661984D02*
X10241610Y-13661984D01*
X10241610Y-13661984D02*
X10260658Y-13671508D01*
X10260658Y-13671508D02*
X10270182Y-13681031D01*
X10270182Y-13681031D02*
X10279705Y-13700079D01*
X10279705Y-13700079D02*
X10289229Y-13738174D01*
X10289229Y-13738174D02*
X10289229Y-13785793D01*
X10289229Y-13785793D02*
X10279705Y-13823888D01*
X10279705Y-13823888D02*
X10270182Y-13842936D01*
X10270182Y-13842936D02*
X10260658Y-13852460D01*
X10260658Y-13852460D02*
X10241610Y-13861984D01*
X10241610Y-13861984D02*
X10222563Y-13861984D01*
X10222563Y-13861984D02*
X10203515Y-13852460D01*
X10203515Y-13852460D02*
X10193991Y-13842936D01*
X10193991Y-13842936D02*
X10184467Y-13823888D01*
X10184467Y-13823888D02*
X10174944Y-13785793D01*
X10174944Y-13785793D02*
X10174944Y-13738174D01*
X10174944Y-13738174D02*
X10184467Y-13700079D01*
X10184467Y-13700079D02*
X10193991Y-13681031D01*
X10193991Y-13681031D02*
X10203515Y-13671508D01*
X10203515Y-13671508D02*
X10222563Y-13661984D01*
X10413039Y-13661984D02*
X10432086Y-13661984D01*
X10432086Y-13661984D02*
X10451134Y-13671508D01*
X10451134Y-13671508D02*
X10460658Y-13681031D01*
X10460658Y-13681031D02*
X10470182Y-13700079D01*
X10470182Y-13700079D02*
X10479705Y-13738174D01*
X10479705Y-13738174D02*
X10479705Y-13785793D01*
X10479705Y-13785793D02*
X10470182Y-13823888D01*
X10470182Y-13823888D02*
X10460658Y-13842936D01*
X10460658Y-13842936D02*
X10451134Y-13852460D01*
X10451134Y-13852460D02*
X10432086Y-13861984D01*
X10432086Y-13861984D02*
X10413039Y-13861984D01*
X10413039Y-13861984D02*
X10393991Y-13852460D01*
X10393991Y-13852460D02*
X10384467Y-13842936D01*
X10384467Y-13842936D02*
X10374944Y-13823888D01*
X10374944Y-13823888D02*
X10365420Y-13785793D01*
X10365420Y-13785793D02*
X10365420Y-13738174D01*
X10365420Y-13738174D02*
X10374944Y-13700079D01*
X10374944Y-13700079D02*
X10384467Y-13681031D01*
X10384467Y-13681031D02*
X10393991Y-13671508D01*
X10393991Y-13671508D02*
X10413039Y-13661984D01*
X10565420Y-13861984D02*
X10565420Y-13728650D01*
X10565420Y-13747698D02*
X10574944Y-13738174D01*
X10574944Y-13738174D02*
X10593991Y-13728650D01*
X10593991Y-13728650D02*
X10622563Y-13728650D01*
X10622563Y-13728650D02*
X10641610Y-13738174D01*
X10641610Y-13738174D02*
X10651134Y-13757222D01*
X10651134Y-13757222D02*
X10651134Y-13861984D01*
X10651134Y-13757222D02*
X10660658Y-13738174D01*
X10660658Y-13738174D02*
X10679705Y-13728650D01*
X10679705Y-13728650D02*
X10708277Y-13728650D01*
X10708277Y-13728650D02*
X10727325Y-13738174D01*
X10727325Y-13738174D02*
X10736848Y-13757222D01*
X10736848Y-13757222D02*
X10736848Y-13861984D01*
X10832086Y-13861984D02*
X10832086Y-13728650D01*
X10832086Y-13747698D02*
X10841610Y-13738174D01*
X10841610Y-13738174D02*
X10860658Y-13728650D01*
X10860658Y-13728650D02*
X10889229Y-13728650D01*
X10889229Y-13728650D02*
X10908277Y-13738174D01*
X10908277Y-13738174D02*
X10917801Y-13757222D01*
X10917801Y-13757222D02*
X10917801Y-13861984D01*
X10917801Y-13757222D02*
X10927325Y-13738174D01*
X10927325Y-13738174D02*
X10946372Y-13728650D01*
X10946372Y-13728650D02*
X10974944Y-13728650D01*
X10974944Y-13728650D02*
X10993991Y-13738174D01*
X10993991Y-13738174D02*
X11003515Y-13757222D01*
X11003515Y-13757222D02*
X11003515Y-13861984D01*
X11393991Y-13652460D02*
X11222563Y-13909603D01*
X11651134Y-13661984D02*
X11670182Y-13661984D01*
X11670182Y-13661984D02*
X11689229Y-13671508D01*
X11689229Y-13671508D02*
X11698753Y-13681031D01*
X11698753Y-13681031D02*
X11708277Y-13700079D01*
X11708277Y-13700079D02*
X11717801Y-13738174D01*
X11717801Y-13738174D02*
X11717801Y-13785793D01*
X11717801Y-13785793D02*
X11708277Y-13823888D01*
X11708277Y-13823888D02*
X11698753Y-13842936D01*
X11698753Y-13842936D02*
X11689229Y-13852460D01*
X11689229Y-13852460D02*
X11670182Y-13861984D01*
X11670182Y-13861984D02*
X11651134Y-13861984D01*
X11651134Y-13861984D02*
X11632086Y-13852460D01*
X11632086Y-13852460D02*
X11622563Y-13842936D01*
X11622563Y-13842936D02*
X11613039Y-13823888D01*
X11613039Y-13823888D02*
X11603515Y-13785793D01*
X11603515Y-13785793D02*
X11603515Y-13738174D01*
X11603515Y-13738174D02*
X11613039Y-13700079D01*
X11613039Y-13700079D02*
X11622563Y-13681031D01*
X11622563Y-13681031D02*
X11632086Y-13671508D01*
X11632086Y-13671508D02*
X11651134Y-13661984D01*
X11803515Y-13842936D02*
X11813039Y-13852460D01*
X11813039Y-13852460D02*
X11803515Y-13861984D01*
X11803515Y-13861984D02*
X11793991Y-13852460D01*
X11793991Y-13852460D02*
X11803515Y-13842936D01*
X11803515Y-13842936D02*
X11803515Y-13861984D01*
X11936848Y-13661984D02*
X11955896Y-13661984D01*
X11955896Y-13661984D02*
X11974944Y-13671508D01*
X11974944Y-13671508D02*
X11984467Y-13681031D01*
X11984467Y-13681031D02*
X11993991Y-13700079D01*
X11993991Y-13700079D02*
X12003515Y-13738174D01*
X12003515Y-13738174D02*
X12003515Y-13785793D01*
X12003515Y-13785793D02*
X11993991Y-13823888D01*
X11993991Y-13823888D02*
X11984467Y-13842936D01*
X11984467Y-13842936D02*
X11974944Y-13852460D01*
X11974944Y-13852460D02*
X11955896Y-13861984D01*
X11955896Y-13861984D02*
X11936848Y-13861984D01*
X11936848Y-13861984D02*
X11917801Y-13852460D01*
X11917801Y-13852460D02*
X11908277Y-13842936D01*
X11908277Y-13842936D02*
X11898753Y-13823888D01*
X11898753Y-13823888D02*
X11889229Y-13785793D01*
X11889229Y-13785793D02*
X11889229Y-13738174D01*
X11889229Y-13738174D02*
X11898753Y-13700079D01*
X11898753Y-13700079D02*
X11908277Y-13681031D01*
X11908277Y-13681031D02*
X11917801Y-13671508D01*
X11917801Y-13671508D02*
X11936848Y-13661984D01*
X12070182Y-13661984D02*
X12193991Y-13661984D01*
X12193991Y-13661984D02*
X12127325Y-13738174D01*
X12127325Y-13738174D02*
X12155896Y-13738174D01*
X12155896Y-13738174D02*
X12174944Y-13747698D01*
X12174944Y-13747698D02*
X12184467Y-13757222D01*
X12184467Y-13757222D02*
X12193991Y-13776269D01*
X12193991Y-13776269D02*
X12193991Y-13823888D01*
X12193991Y-13823888D02*
X12184467Y-13842936D01*
X12184467Y-13842936D02*
X12174944Y-13852460D01*
X12174944Y-13852460D02*
X12155896Y-13861984D01*
X12155896Y-13861984D02*
X12098753Y-13861984D01*
X12098753Y-13861984D02*
X12079706Y-13852460D01*
X12079706Y-13852460D02*
X12070182Y-13842936D01*
X12384467Y-13861984D02*
X12270182Y-13861984D01*
X12327325Y-13861984D02*
X12327325Y-13661984D01*
X12327325Y-13661984D02*
X12308277Y-13690555D01*
X12308277Y-13690555D02*
X12289229Y-13709603D01*
X12289229Y-13709603D02*
X12270182Y-13719127D01*
X12565420Y-13661984D02*
X12470182Y-13661984D01*
X12470182Y-13661984D02*
X12460658Y-13757222D01*
X12460658Y-13757222D02*
X12470182Y-13747698D01*
X12470182Y-13747698D02*
X12489229Y-13738174D01*
X12489229Y-13738174D02*
X12536848Y-13738174D01*
X12536848Y-13738174D02*
X12555896Y-13747698D01*
X12555896Y-13747698D02*
X12565420Y-13757222D01*
X12565420Y-13757222D02*
X12574944Y-13776269D01*
X12574944Y-13776269D02*
X12574944Y-13823888D01*
X12574944Y-13823888D02*
X12565420Y-13842936D01*
X12565420Y-13842936D02*
X12555896Y-13852460D01*
X12555896Y-13852460D02*
X12536848Y-13861984D01*
X12536848Y-13861984D02*
X12489229Y-13861984D01*
X12489229Y-13861984D02*
X12470182Y-13852460D01*
X12470182Y-13852460D02*
X12460658Y-13842936D01*
X12651134Y-13661984D02*
X12651134Y-13700079D01*
X12727325Y-13661984D02*
X12727325Y-13700079D01*
X13022563Y-13938174D02*
X13013039Y-13928650D01*
X13013039Y-13928650D02*
X12993991Y-13900079D01*
X12993991Y-13900079D02*
X12984468Y-13881031D01*
X12984468Y-13881031D02*
X12974944Y-13852460D01*
X12974944Y-13852460D02*
X12965420Y-13804841D01*
X12965420Y-13804841D02*
X12965420Y-13766746D01*
X12965420Y-13766746D02*
X12974944Y-13719127D01*
X12974944Y-13719127D02*
X12984468Y-13690555D01*
X12984468Y-13690555D02*
X12993991Y-13671508D01*
X12993991Y-13671508D02*
X13013039Y-13642936D01*
X13013039Y-13642936D02*
X13022563Y-13633412D01*
X13089229Y-13681031D02*
X13098753Y-13671508D01*
X13098753Y-13671508D02*
X13117801Y-13661984D01*
X13117801Y-13661984D02*
X13165420Y-13661984D01*
X13165420Y-13661984D02*
X13184468Y-13671508D01*
X13184468Y-13671508D02*
X13193991Y-13681031D01*
X13193991Y-13681031D02*
X13203515Y-13700079D01*
X13203515Y-13700079D02*
X13203515Y-13719127D01*
X13203515Y-13719127D02*
X13193991Y-13747698D01*
X13193991Y-13747698D02*
X13079706Y-13861984D01*
X13079706Y-13861984D02*
X13203515Y-13861984D01*
X13441610Y-13861984D02*
X13441610Y-13661984D01*
X13527325Y-13861984D02*
X13527325Y-13757222D01*
X13527325Y-13757222D02*
X13517801Y-13738174D01*
X13517801Y-13738174D02*
X13498753Y-13728650D01*
X13498753Y-13728650D02*
X13470182Y-13728650D01*
X13470182Y-13728650D02*
X13451134Y-13738174D01*
X13451134Y-13738174D02*
X13441610Y-13747698D01*
X13651134Y-13861984D02*
X13632087Y-13852460D01*
X13632087Y-13852460D02*
X13622563Y-13842936D01*
X13622563Y-13842936D02*
X13613039Y-13823888D01*
X13613039Y-13823888D02*
X13613039Y-13766746D01*
X13613039Y-13766746D02*
X13622563Y-13747698D01*
X13622563Y-13747698D02*
X13632087Y-13738174D01*
X13632087Y-13738174D02*
X13651134Y-13728650D01*
X13651134Y-13728650D02*
X13679706Y-13728650D01*
X13679706Y-13728650D02*
X13698753Y-13738174D01*
X13698753Y-13738174D02*
X13708277Y-13747698D01*
X13708277Y-13747698D02*
X13717801Y-13766746D01*
X13717801Y-13766746D02*
X13717801Y-13823888D01*
X13717801Y-13823888D02*
X13708277Y-13842936D01*
X13708277Y-13842936D02*
X13698753Y-13852460D01*
X13698753Y-13852460D02*
X13679706Y-13861984D01*
X13679706Y-13861984D02*
X13651134Y-13861984D01*
X13832087Y-13861984D02*
X13813039Y-13852460D01*
X13813039Y-13852460D02*
X13803515Y-13833412D01*
X13803515Y-13833412D02*
X13803515Y-13661984D01*
X13984468Y-13852460D02*
X13965420Y-13861984D01*
X13965420Y-13861984D02*
X13927325Y-13861984D01*
X13927325Y-13861984D02*
X13908277Y-13852460D01*
X13908277Y-13852460D02*
X13898753Y-13833412D01*
X13898753Y-13833412D02*
X13898753Y-13757222D01*
X13898753Y-13757222D02*
X13908277Y-13738174D01*
X13908277Y-13738174D02*
X13927325Y-13728650D01*
X13927325Y-13728650D02*
X13965420Y-13728650D01*
X13965420Y-13728650D02*
X13984468Y-13738174D01*
X13984468Y-13738174D02*
X13993991Y-13757222D01*
X13993991Y-13757222D02*
X13993991Y-13776269D01*
X13993991Y-13776269D02*
X13898753Y-13795317D01*
X14070182Y-13852460D02*
X14089230Y-13861984D01*
X14089230Y-13861984D02*
X14127325Y-13861984D01*
X14127325Y-13861984D02*
X14146372Y-13852460D01*
X14146372Y-13852460D02*
X14155896Y-13833412D01*
X14155896Y-13833412D02*
X14155896Y-13823888D01*
X14155896Y-13823888D02*
X14146372Y-13804841D01*
X14146372Y-13804841D02*
X14127325Y-13795317D01*
X14127325Y-13795317D02*
X14098753Y-13795317D01*
X14098753Y-13795317D02*
X14079706Y-13785793D01*
X14079706Y-13785793D02*
X14070182Y-13766746D01*
X14070182Y-13766746D02*
X14070182Y-13757222D01*
X14070182Y-13757222D02*
X14079706Y-13738174D01*
X14079706Y-13738174D02*
X14098753Y-13728650D01*
X14098753Y-13728650D02*
X14127325Y-13728650D01*
X14127325Y-13728650D02*
X14146372Y-13738174D01*
X14222563Y-13938174D02*
X14232087Y-13928650D01*
X14232087Y-13928650D02*
X14251134Y-13900079D01*
X14251134Y-13900079D02*
X14260658Y-13881031D01*
X14260658Y-13881031D02*
X14270182Y-13852460D01*
X14270182Y-13852460D02*
X14279706Y-13804841D01*
X14279706Y-13804841D02*
X14279706Y-13766746D01*
X14279706Y-13766746D02*
X14270182Y-13719127D01*
X14270182Y-13719127D02*
X14260658Y-13690555D01*
X14260658Y-13690555D02*
X14251134Y-13671508D01*
X14251134Y-13671508D02*
X14232087Y-13642936D01*
X14232087Y-13642936D02*
X14222563Y-13633412D01*
D12*
X9432856Y-14069856D02*
X9432856Y-13999144D01*
X9362144Y-13999144D01*
X9362144Y-14069856D01*
X9432856Y-14069856D01*
D11*
X9813039Y-14125984D02*
X9698753Y-14125984D01*
X9755896Y-14125984D02*
X9755896Y-13925984D01*
X9755896Y-13925984D02*
X9736848Y-13954555D01*
X9736848Y-13954555D02*
X9717801Y-13973603D01*
X9717801Y-13973603D02*
X9698753Y-13983127D01*
X9898753Y-14106936D02*
X9908277Y-14116460D01*
X9908277Y-14116460D02*
X9898753Y-14125984D01*
X9898753Y-14125984D02*
X9889229Y-14116460D01*
X9889229Y-14116460D02*
X9898753Y-14106936D01*
X9898753Y-14106936D02*
X9898753Y-14125984D01*
X10032086Y-13925984D02*
X10051134Y-13925984D01*
X10051134Y-13925984D02*
X10070182Y-13935508D01*
X10070182Y-13935508D02*
X10079705Y-13945031D01*
X10079705Y-13945031D02*
X10089229Y-13964079D01*
X10089229Y-13964079D02*
X10098753Y-14002174D01*
X10098753Y-14002174D02*
X10098753Y-14049793D01*
X10098753Y-14049793D02*
X10089229Y-14087888D01*
X10089229Y-14087888D02*
X10079705Y-14106936D01*
X10079705Y-14106936D02*
X10070182Y-14116460D01*
X10070182Y-14116460D02*
X10051134Y-14125984D01*
X10051134Y-14125984D02*
X10032086Y-14125984D01*
X10032086Y-14125984D02*
X10013039Y-14116460D01*
X10013039Y-14116460D02*
X10003515Y-14106936D01*
X10003515Y-14106936D02*
X9993991Y-14087888D01*
X9993991Y-14087888D02*
X9984467Y-14049793D01*
X9984467Y-14049793D02*
X9984467Y-14002174D01*
X9984467Y-14002174D02*
X9993991Y-13964079D01*
X9993991Y-13964079D02*
X10003515Y-13945031D01*
X10003515Y-13945031D02*
X10013039Y-13935508D01*
X10013039Y-13935508D02*
X10032086Y-13925984D01*
X10222563Y-13925984D02*
X10241610Y-13925984D01*
X10241610Y-13925984D02*
X10260658Y-13935508D01*
X10260658Y-13935508D02*
X10270182Y-13945031D01*
X10270182Y-13945031D02*
X10279705Y-13964079D01*
X10279705Y-13964079D02*
X10289229Y-14002174D01*
X10289229Y-14002174D02*
X10289229Y-14049793D01*
X10289229Y-14049793D02*
X10279705Y-14087888D01*
X10279705Y-14087888D02*
X10270182Y-14106936D01*
X10270182Y-14106936D02*
X10260658Y-14116460D01*
X10260658Y-14116460D02*
X10241610Y-14125984D01*
X10241610Y-14125984D02*
X10222563Y-14125984D01*
X10222563Y-14125984D02*
X10203515Y-14116460D01*
X10203515Y-14116460D02*
X10193991Y-14106936D01*
X10193991Y-14106936D02*
X10184467Y-14087888D01*
X10184467Y-14087888D02*
X10174944Y-14049793D01*
X10174944Y-14049793D02*
X10174944Y-14002174D01*
X10174944Y-14002174D02*
X10184467Y-13964079D01*
X10184467Y-13964079D02*
X10193991Y-13945031D01*
X10193991Y-13945031D02*
X10203515Y-13935508D01*
X10203515Y-13935508D02*
X10222563Y-13925984D01*
X10413039Y-13925984D02*
X10432086Y-13925984D01*
X10432086Y-13925984D02*
X10451134Y-13935508D01*
X10451134Y-13935508D02*
X10460658Y-13945031D01*
X10460658Y-13945031D02*
X10470182Y-13964079D01*
X10470182Y-13964079D02*
X10479705Y-14002174D01*
X10479705Y-14002174D02*
X10479705Y-14049793D01*
X10479705Y-14049793D02*
X10470182Y-14087888D01*
X10470182Y-14087888D02*
X10460658Y-14106936D01*
X10460658Y-14106936D02*
X10451134Y-14116460D01*
X10451134Y-14116460D02*
X10432086Y-14125984D01*
X10432086Y-14125984D02*
X10413039Y-14125984D01*
X10413039Y-14125984D02*
X10393991Y-14116460D01*
X10393991Y-14116460D02*
X10384467Y-14106936D01*
X10384467Y-14106936D02*
X10374944Y-14087888D01*
X10374944Y-14087888D02*
X10365420Y-14049793D01*
X10365420Y-14049793D02*
X10365420Y-14002174D01*
X10365420Y-14002174D02*
X10374944Y-13964079D01*
X10374944Y-13964079D02*
X10384467Y-13945031D01*
X10384467Y-13945031D02*
X10393991Y-13935508D01*
X10393991Y-13935508D02*
X10413039Y-13925984D01*
X10565420Y-14125984D02*
X10565420Y-13992650D01*
X10565420Y-14011698D02*
X10574944Y-14002174D01*
X10574944Y-14002174D02*
X10593991Y-13992650D01*
X10593991Y-13992650D02*
X10622563Y-13992650D01*
X10622563Y-13992650D02*
X10641610Y-14002174D01*
X10641610Y-14002174D02*
X10651134Y-14021222D01*
X10651134Y-14021222D02*
X10651134Y-14125984D01*
X10651134Y-14021222D02*
X10660658Y-14002174D01*
X10660658Y-14002174D02*
X10679705Y-13992650D01*
X10679705Y-13992650D02*
X10708277Y-13992650D01*
X10708277Y-13992650D02*
X10727325Y-14002174D01*
X10727325Y-14002174D02*
X10736848Y-14021222D01*
X10736848Y-14021222D02*
X10736848Y-14125984D01*
X10832086Y-14125984D02*
X10832086Y-13992650D01*
X10832086Y-14011698D02*
X10841610Y-14002174D01*
X10841610Y-14002174D02*
X10860658Y-13992650D01*
X10860658Y-13992650D02*
X10889229Y-13992650D01*
X10889229Y-13992650D02*
X10908277Y-14002174D01*
X10908277Y-14002174D02*
X10917801Y-14021222D01*
X10917801Y-14021222D02*
X10917801Y-14125984D01*
X10917801Y-14021222D02*
X10927325Y-14002174D01*
X10927325Y-14002174D02*
X10946372Y-13992650D01*
X10946372Y-13992650D02*
X10974944Y-13992650D01*
X10974944Y-13992650D02*
X10993991Y-14002174D01*
X10993991Y-14002174D02*
X11003515Y-14021222D01*
X11003515Y-14021222D02*
X11003515Y-14125984D01*
X11393991Y-13916460D02*
X11222563Y-14173603D01*
X11651134Y-13925984D02*
X11670182Y-13925984D01*
X11670182Y-13925984D02*
X11689229Y-13935508D01*
X11689229Y-13935508D02*
X11698753Y-13945031D01*
X11698753Y-13945031D02*
X11708277Y-13964079D01*
X11708277Y-13964079D02*
X11717801Y-14002174D01*
X11717801Y-14002174D02*
X11717801Y-14049793D01*
X11717801Y-14049793D02*
X11708277Y-14087888D01*
X11708277Y-14087888D02*
X11698753Y-14106936D01*
X11698753Y-14106936D02*
X11689229Y-14116460D01*
X11689229Y-14116460D02*
X11670182Y-14125984D01*
X11670182Y-14125984D02*
X11651134Y-14125984D01*
X11651134Y-14125984D02*
X11632086Y-14116460D01*
X11632086Y-14116460D02*
X11622563Y-14106936D01*
X11622563Y-14106936D02*
X11613039Y-14087888D01*
X11613039Y-14087888D02*
X11603515Y-14049793D01*
X11603515Y-14049793D02*
X11603515Y-14002174D01*
X11603515Y-14002174D02*
X11613039Y-13964079D01*
X11613039Y-13964079D02*
X11622563Y-13945031D01*
X11622563Y-13945031D02*
X11632086Y-13935508D01*
X11632086Y-13935508D02*
X11651134Y-13925984D01*
X11803515Y-14106936D02*
X11813039Y-14116460D01*
X11813039Y-14116460D02*
X11803515Y-14125984D01*
X11803515Y-14125984D02*
X11793991Y-14116460D01*
X11793991Y-14116460D02*
X11803515Y-14106936D01*
X11803515Y-14106936D02*
X11803515Y-14125984D01*
X11936848Y-13925984D02*
X11955896Y-13925984D01*
X11955896Y-13925984D02*
X11974944Y-13935508D01*
X11974944Y-13935508D02*
X11984467Y-13945031D01*
X11984467Y-13945031D02*
X11993991Y-13964079D01*
X11993991Y-13964079D02*
X12003515Y-14002174D01*
X12003515Y-14002174D02*
X12003515Y-14049793D01*
X12003515Y-14049793D02*
X11993991Y-14087888D01*
X11993991Y-14087888D02*
X11984467Y-14106936D01*
X11984467Y-14106936D02*
X11974944Y-14116460D01*
X11974944Y-14116460D02*
X11955896Y-14125984D01*
X11955896Y-14125984D02*
X11936848Y-14125984D01*
X11936848Y-14125984D02*
X11917801Y-14116460D01*
X11917801Y-14116460D02*
X11908277Y-14106936D01*
X11908277Y-14106936D02*
X11898753Y-14087888D01*
X11898753Y-14087888D02*
X11889229Y-14049793D01*
X11889229Y-14049793D02*
X11889229Y-14002174D01*
X11889229Y-14002174D02*
X11898753Y-13964079D01*
X11898753Y-13964079D02*
X11908277Y-13945031D01*
X11908277Y-13945031D02*
X11917801Y-13935508D01*
X11917801Y-13935508D02*
X11936848Y-13925984D01*
X12070182Y-13925984D02*
X12193991Y-13925984D01*
X12193991Y-13925984D02*
X12127325Y-14002174D01*
X12127325Y-14002174D02*
X12155896Y-14002174D01*
X12155896Y-14002174D02*
X12174944Y-14011698D01*
X12174944Y-14011698D02*
X12184467Y-14021222D01*
X12184467Y-14021222D02*
X12193991Y-14040269D01*
X12193991Y-14040269D02*
X12193991Y-14087888D01*
X12193991Y-14087888D02*
X12184467Y-14106936D01*
X12184467Y-14106936D02*
X12174944Y-14116460D01*
X12174944Y-14116460D02*
X12155896Y-14125984D01*
X12155896Y-14125984D02*
X12098753Y-14125984D01*
X12098753Y-14125984D02*
X12079706Y-14116460D01*
X12079706Y-14116460D02*
X12070182Y-14106936D01*
X12289229Y-14125984D02*
X12327325Y-14125984D01*
X12327325Y-14125984D02*
X12346372Y-14116460D01*
X12346372Y-14116460D02*
X12355896Y-14106936D01*
X12355896Y-14106936D02*
X12374944Y-14078365D01*
X12374944Y-14078365D02*
X12384467Y-14040269D01*
X12384467Y-14040269D02*
X12384467Y-13964079D01*
X12384467Y-13964079D02*
X12374944Y-13945031D01*
X12374944Y-13945031D02*
X12365420Y-13935508D01*
X12365420Y-13935508D02*
X12346372Y-13925984D01*
X12346372Y-13925984D02*
X12308277Y-13925984D01*
X12308277Y-13925984D02*
X12289229Y-13935508D01*
X12289229Y-13935508D02*
X12279706Y-13945031D01*
X12279706Y-13945031D02*
X12270182Y-13964079D01*
X12270182Y-13964079D02*
X12270182Y-14011698D01*
X12270182Y-14011698D02*
X12279706Y-14030746D01*
X12279706Y-14030746D02*
X12289229Y-14040269D01*
X12289229Y-14040269D02*
X12308277Y-14049793D01*
X12308277Y-14049793D02*
X12346372Y-14049793D01*
X12346372Y-14049793D02*
X12365420Y-14040269D01*
X12365420Y-14040269D02*
X12374944Y-14030746D01*
X12374944Y-14030746D02*
X12384467Y-14011698D01*
X12555896Y-13992650D02*
X12555896Y-14125984D01*
X12508277Y-13916460D02*
X12460658Y-14059317D01*
X12460658Y-14059317D02*
X12584467Y-14059317D01*
X12651134Y-13925984D02*
X12651134Y-13964079D01*
X12727325Y-13925984D02*
X12727325Y-13964079D01*
X13022563Y-14202174D02*
X13013039Y-14192650D01*
X13013039Y-14192650D02*
X12993991Y-14164079D01*
X12993991Y-14164079D02*
X12984468Y-14145031D01*
X12984468Y-14145031D02*
X12974944Y-14116460D01*
X12974944Y-14116460D02*
X12965420Y-14068841D01*
X12965420Y-14068841D02*
X12965420Y-14030746D01*
X12965420Y-14030746D02*
X12974944Y-13983127D01*
X12974944Y-13983127D02*
X12984468Y-13954555D01*
X12984468Y-13954555D02*
X12993991Y-13935508D01*
X12993991Y-13935508D02*
X13013039Y-13906936D01*
X13013039Y-13906936D02*
X13022563Y-13897412D01*
X13079706Y-13925984D02*
X13203515Y-13925984D01*
X13203515Y-13925984D02*
X13136848Y-14002174D01*
X13136848Y-14002174D02*
X13165420Y-14002174D01*
X13165420Y-14002174D02*
X13184468Y-14011698D01*
X13184468Y-14011698D02*
X13193991Y-14021222D01*
X13193991Y-14021222D02*
X13203515Y-14040269D01*
X13203515Y-14040269D02*
X13203515Y-14087888D01*
X13203515Y-14087888D02*
X13193991Y-14106936D01*
X13193991Y-14106936D02*
X13184468Y-14116460D01*
X13184468Y-14116460D02*
X13165420Y-14125984D01*
X13165420Y-14125984D02*
X13108277Y-14125984D01*
X13108277Y-14125984D02*
X13089229Y-14116460D01*
X13089229Y-14116460D02*
X13079706Y-14106936D01*
X13317801Y-14011698D02*
X13298753Y-14002174D01*
X13298753Y-14002174D02*
X13289229Y-13992650D01*
X13289229Y-13992650D02*
X13279706Y-13973603D01*
X13279706Y-13973603D02*
X13279706Y-13964079D01*
X13279706Y-13964079D02*
X13289229Y-13945031D01*
X13289229Y-13945031D02*
X13298753Y-13935508D01*
X13298753Y-13935508D02*
X13317801Y-13925984D01*
X13317801Y-13925984D02*
X13355896Y-13925984D01*
X13355896Y-13925984D02*
X13374944Y-13935508D01*
X13374944Y-13935508D02*
X13384468Y-13945031D01*
X13384468Y-13945031D02*
X13393991Y-13964079D01*
X13393991Y-13964079D02*
X13393991Y-13973603D01*
X13393991Y-13973603D02*
X13384468Y-13992650D01*
X13384468Y-13992650D02*
X13374944Y-14002174D01*
X13374944Y-14002174D02*
X13355896Y-14011698D01*
X13355896Y-14011698D02*
X13317801Y-14011698D01*
X13317801Y-14011698D02*
X13298753Y-14021222D01*
X13298753Y-14021222D02*
X13289229Y-14030746D01*
X13289229Y-14030746D02*
X13279706Y-14049793D01*
X13279706Y-14049793D02*
X13279706Y-14087888D01*
X13279706Y-14087888D02*
X13289229Y-14106936D01*
X13289229Y-14106936D02*
X13298753Y-14116460D01*
X13298753Y-14116460D02*
X13317801Y-14125984D01*
X13317801Y-14125984D02*
X13355896Y-14125984D01*
X13355896Y-14125984D02*
X13374944Y-14116460D01*
X13374944Y-14116460D02*
X13384468Y-14106936D01*
X13384468Y-14106936D02*
X13393991Y-14087888D01*
X13393991Y-14087888D02*
X13393991Y-14049793D01*
X13393991Y-14049793D02*
X13384468Y-14030746D01*
X13384468Y-14030746D02*
X13374944Y-14021222D01*
X13374944Y-14021222D02*
X13355896Y-14011698D01*
X13632087Y-14125984D02*
X13632087Y-13925984D01*
X13717801Y-14125984D02*
X13717801Y-14021222D01*
X13717801Y-14021222D02*
X13708277Y-14002174D01*
X13708277Y-14002174D02*
X13689230Y-13992650D01*
X13689230Y-13992650D02*
X13660658Y-13992650D01*
X13660658Y-13992650D02*
X13641610Y-14002174D01*
X13641610Y-14002174D02*
X13632087Y-14011698D01*
X13841610Y-14125984D02*
X13822563Y-14116460D01*
X13822563Y-14116460D02*
X13813039Y-14106936D01*
X13813039Y-14106936D02*
X13803515Y-14087888D01*
X13803515Y-14087888D02*
X13803515Y-14030746D01*
X13803515Y-14030746D02*
X13813039Y-14011698D01*
X13813039Y-14011698D02*
X13822563Y-14002174D01*
X13822563Y-14002174D02*
X13841610Y-13992650D01*
X13841610Y-13992650D02*
X13870182Y-13992650D01*
X13870182Y-13992650D02*
X13889230Y-14002174D01*
X13889230Y-14002174D02*
X13898753Y-14011698D01*
X13898753Y-14011698D02*
X13908277Y-14030746D01*
X13908277Y-14030746D02*
X13908277Y-14087888D01*
X13908277Y-14087888D02*
X13898753Y-14106936D01*
X13898753Y-14106936D02*
X13889230Y-14116460D01*
X13889230Y-14116460D02*
X13870182Y-14125984D01*
X13870182Y-14125984D02*
X13841610Y-14125984D01*
X14022563Y-14125984D02*
X14003515Y-14116460D01*
X14003515Y-14116460D02*
X13993991Y-14097412D01*
X13993991Y-14097412D02*
X13993991Y-13925984D01*
X14174944Y-14116460D02*
X14155896Y-14125984D01*
X14155896Y-14125984D02*
X14117801Y-14125984D01*
X14117801Y-14125984D02*
X14098753Y-14116460D01*
X14098753Y-14116460D02*
X14089230Y-14097412D01*
X14089230Y-14097412D02*
X14089230Y-14021222D01*
X14089230Y-14021222D02*
X14098753Y-14002174D01*
X14098753Y-14002174D02*
X14117801Y-13992650D01*
X14117801Y-13992650D02*
X14155896Y-13992650D01*
X14155896Y-13992650D02*
X14174944Y-14002174D01*
X14174944Y-14002174D02*
X14184468Y-14021222D01*
X14184468Y-14021222D02*
X14184468Y-14040269D01*
X14184468Y-14040269D02*
X14089230Y-14059317D01*
X14260658Y-14116460D02*
X14279706Y-14125984D01*
X14279706Y-14125984D02*
X14317801Y-14125984D01*
X14317801Y-14125984D02*
X14336849Y-14116460D01*
X14336849Y-14116460D02*
X14346372Y-14097412D01*
X14346372Y-14097412D02*
X14346372Y-14087888D01*
X14346372Y-14087888D02*
X14336849Y-14068841D01*
X14336849Y-14068841D02*
X14317801Y-14059317D01*
X14317801Y-14059317D02*
X14289230Y-14059317D01*
X14289230Y-14059317D02*
X14270182Y-14049793D01*
X14270182Y-14049793D02*
X14260658Y-14030746D01*
X14260658Y-14030746D02*
X14260658Y-14021222D01*
X14260658Y-14021222D02*
X14270182Y-14002174D01*
X14270182Y-14002174D02*
X14289230Y-13992650D01*
X14289230Y-13992650D02*
X14317801Y-13992650D01*
X14317801Y-13992650D02*
X14336849Y-14002174D01*
X14413039Y-14202174D02*
X14422563Y-14192650D01*
X14422563Y-14192650D02*
X14441611Y-14164079D01*
X14441611Y-14164079D02*
X14451134Y-14145031D01*
X14451134Y-14145031D02*
X14460658Y-14116460D01*
X14460658Y-14116460D02*
X14470182Y-14068841D01*
X14470182Y-14068841D02*
X14470182Y-14030746D01*
X14470182Y-14030746D02*
X14460658Y-13983127D01*
X14460658Y-13983127D02*
X14451134Y-13954555D01*
X14451134Y-13954555D02*
X14441611Y-13935508D01*
X14441611Y-13935508D02*
X14422563Y-13906936D01*
X14422563Y-13906936D02*
X14413039Y-13897412D01*
D13*
X9395000Y-14351000D02*
X9447500Y-14298500D01*
X9395000Y-14246000D01*
X9342500Y-14298500D01*
X9395000Y-14351000D01*
D11*
X9813039Y-14389984D02*
X9698753Y-14389984D01*
X9755896Y-14389984D02*
X9755896Y-14189984D01*
X9755896Y-14189984D02*
X9736848Y-14218555D01*
X9736848Y-14218555D02*
X9717801Y-14237603D01*
X9717801Y-14237603D02*
X9698753Y-14247127D01*
X9898753Y-14370936D02*
X9908277Y-14380460D01*
X9908277Y-14380460D02*
X9898753Y-14389984D01*
X9898753Y-14389984D02*
X9889229Y-14380460D01*
X9889229Y-14380460D02*
X9898753Y-14370936D01*
X9898753Y-14370936D02*
X9898753Y-14389984D01*
X10032086Y-14189984D02*
X10051134Y-14189984D01*
X10051134Y-14189984D02*
X10070182Y-14199508D01*
X10070182Y-14199508D02*
X10079705Y-14209031D01*
X10079705Y-14209031D02*
X10089229Y-14228079D01*
X10089229Y-14228079D02*
X10098753Y-14266174D01*
X10098753Y-14266174D02*
X10098753Y-14313793D01*
X10098753Y-14313793D02*
X10089229Y-14351888D01*
X10089229Y-14351888D02*
X10079705Y-14370936D01*
X10079705Y-14370936D02*
X10070182Y-14380460D01*
X10070182Y-14380460D02*
X10051134Y-14389984D01*
X10051134Y-14389984D02*
X10032086Y-14389984D01*
X10032086Y-14389984D02*
X10013039Y-14380460D01*
X10013039Y-14380460D02*
X10003515Y-14370936D01*
X10003515Y-14370936D02*
X9993991Y-14351888D01*
X9993991Y-14351888D02*
X9984467Y-14313793D01*
X9984467Y-14313793D02*
X9984467Y-14266174D01*
X9984467Y-14266174D02*
X9993991Y-14228079D01*
X9993991Y-14228079D02*
X10003515Y-14209031D01*
X10003515Y-14209031D02*
X10013039Y-14199508D01*
X10013039Y-14199508D02*
X10032086Y-14189984D01*
X10279705Y-14189984D02*
X10184467Y-14189984D01*
X10184467Y-14189984D02*
X10174944Y-14285222D01*
X10174944Y-14285222D02*
X10184467Y-14275698D01*
X10184467Y-14275698D02*
X10203515Y-14266174D01*
X10203515Y-14266174D02*
X10251134Y-14266174D01*
X10251134Y-14266174D02*
X10270182Y-14275698D01*
X10270182Y-14275698D02*
X10279705Y-14285222D01*
X10279705Y-14285222D02*
X10289229Y-14304269D01*
X10289229Y-14304269D02*
X10289229Y-14351888D01*
X10289229Y-14351888D02*
X10279705Y-14370936D01*
X10279705Y-14370936D02*
X10270182Y-14380460D01*
X10270182Y-14380460D02*
X10251134Y-14389984D01*
X10251134Y-14389984D02*
X10203515Y-14389984D01*
X10203515Y-14389984D02*
X10184467Y-14380460D01*
X10184467Y-14380460D02*
X10174944Y-14370936D01*
X10413039Y-14189984D02*
X10432086Y-14189984D01*
X10432086Y-14189984D02*
X10451134Y-14199508D01*
X10451134Y-14199508D02*
X10460658Y-14209031D01*
X10460658Y-14209031D02*
X10470182Y-14228079D01*
X10470182Y-14228079D02*
X10479705Y-14266174D01*
X10479705Y-14266174D02*
X10479705Y-14313793D01*
X10479705Y-14313793D02*
X10470182Y-14351888D01*
X10470182Y-14351888D02*
X10460658Y-14370936D01*
X10460658Y-14370936D02*
X10451134Y-14380460D01*
X10451134Y-14380460D02*
X10432086Y-14389984D01*
X10432086Y-14389984D02*
X10413039Y-14389984D01*
X10413039Y-14389984D02*
X10393991Y-14380460D01*
X10393991Y-14380460D02*
X10384467Y-14370936D01*
X10384467Y-14370936D02*
X10374944Y-14351888D01*
X10374944Y-14351888D02*
X10365420Y-14313793D01*
X10365420Y-14313793D02*
X10365420Y-14266174D01*
X10365420Y-14266174D02*
X10374944Y-14228079D01*
X10374944Y-14228079D02*
X10384467Y-14209031D01*
X10384467Y-14209031D02*
X10393991Y-14199508D01*
X10393991Y-14199508D02*
X10413039Y-14189984D01*
X10565420Y-14389984D02*
X10565420Y-14256650D01*
X10565420Y-14275698D02*
X10574944Y-14266174D01*
X10574944Y-14266174D02*
X10593991Y-14256650D01*
X10593991Y-14256650D02*
X10622563Y-14256650D01*
X10622563Y-14256650D02*
X10641610Y-14266174D01*
X10641610Y-14266174D02*
X10651134Y-14285222D01*
X10651134Y-14285222D02*
X10651134Y-14389984D01*
X10651134Y-14285222D02*
X10660658Y-14266174D01*
X10660658Y-14266174D02*
X10679705Y-14256650D01*
X10679705Y-14256650D02*
X10708277Y-14256650D01*
X10708277Y-14256650D02*
X10727325Y-14266174D01*
X10727325Y-14266174D02*
X10736848Y-14285222D01*
X10736848Y-14285222D02*
X10736848Y-14389984D01*
X10832086Y-14389984D02*
X10832086Y-14256650D01*
X10832086Y-14275698D02*
X10841610Y-14266174D01*
X10841610Y-14266174D02*
X10860658Y-14256650D01*
X10860658Y-14256650D02*
X10889229Y-14256650D01*
X10889229Y-14256650D02*
X10908277Y-14266174D01*
X10908277Y-14266174D02*
X10917801Y-14285222D01*
X10917801Y-14285222D02*
X10917801Y-14389984D01*
X10917801Y-14285222D02*
X10927325Y-14266174D01*
X10927325Y-14266174D02*
X10946372Y-14256650D01*
X10946372Y-14256650D02*
X10974944Y-14256650D01*
X10974944Y-14256650D02*
X10993991Y-14266174D01*
X10993991Y-14266174D02*
X11003515Y-14285222D01*
X11003515Y-14285222D02*
X11003515Y-14389984D01*
X11393991Y-14180460D02*
X11222563Y-14437603D01*
X11651134Y-14189984D02*
X11670182Y-14189984D01*
X11670182Y-14189984D02*
X11689229Y-14199508D01*
X11689229Y-14199508D02*
X11698753Y-14209031D01*
X11698753Y-14209031D02*
X11708277Y-14228079D01*
X11708277Y-14228079D02*
X11717801Y-14266174D01*
X11717801Y-14266174D02*
X11717801Y-14313793D01*
X11717801Y-14313793D02*
X11708277Y-14351888D01*
X11708277Y-14351888D02*
X11698753Y-14370936D01*
X11698753Y-14370936D02*
X11689229Y-14380460D01*
X11689229Y-14380460D02*
X11670182Y-14389984D01*
X11670182Y-14389984D02*
X11651134Y-14389984D01*
X11651134Y-14389984D02*
X11632086Y-14380460D01*
X11632086Y-14380460D02*
X11622563Y-14370936D01*
X11622563Y-14370936D02*
X11613039Y-14351888D01*
X11613039Y-14351888D02*
X11603515Y-14313793D01*
X11603515Y-14313793D02*
X11603515Y-14266174D01*
X11603515Y-14266174D02*
X11613039Y-14228079D01*
X11613039Y-14228079D02*
X11622563Y-14209031D01*
X11622563Y-14209031D02*
X11632086Y-14199508D01*
X11632086Y-14199508D02*
X11651134Y-14189984D01*
X11803515Y-14370936D02*
X11813039Y-14380460D01*
X11813039Y-14380460D02*
X11803515Y-14389984D01*
X11803515Y-14389984D02*
X11793991Y-14380460D01*
X11793991Y-14380460D02*
X11803515Y-14370936D01*
X11803515Y-14370936D02*
X11803515Y-14389984D01*
X11936848Y-14189984D02*
X11955896Y-14189984D01*
X11955896Y-14189984D02*
X11974944Y-14199508D01*
X11974944Y-14199508D02*
X11984467Y-14209031D01*
X11984467Y-14209031D02*
X11993991Y-14228079D01*
X11993991Y-14228079D02*
X12003515Y-14266174D01*
X12003515Y-14266174D02*
X12003515Y-14313793D01*
X12003515Y-14313793D02*
X11993991Y-14351888D01*
X11993991Y-14351888D02*
X11984467Y-14370936D01*
X11984467Y-14370936D02*
X11974944Y-14380460D01*
X11974944Y-14380460D02*
X11955896Y-14389984D01*
X11955896Y-14389984D02*
X11936848Y-14389984D01*
X11936848Y-14389984D02*
X11917801Y-14380460D01*
X11917801Y-14380460D02*
X11908277Y-14370936D01*
X11908277Y-14370936D02*
X11898753Y-14351888D01*
X11898753Y-14351888D02*
X11889229Y-14313793D01*
X11889229Y-14313793D02*
X11889229Y-14266174D01*
X11889229Y-14266174D02*
X11898753Y-14228079D01*
X11898753Y-14228079D02*
X11908277Y-14209031D01*
X11908277Y-14209031D02*
X11917801Y-14199508D01*
X11917801Y-14199508D02*
X11936848Y-14189984D01*
X12174944Y-14256650D02*
X12174944Y-14389984D01*
X12127325Y-14180460D02*
X12079706Y-14323317D01*
X12079706Y-14323317D02*
X12203515Y-14323317D01*
X12384467Y-14389984D02*
X12270182Y-14389984D01*
X12327325Y-14389984D02*
X12327325Y-14189984D01*
X12327325Y-14189984D02*
X12308277Y-14218555D01*
X12308277Y-14218555D02*
X12289229Y-14237603D01*
X12289229Y-14237603D02*
X12270182Y-14247127D01*
X12451134Y-14189984D02*
X12574944Y-14189984D01*
X12574944Y-14189984D02*
X12508277Y-14266174D01*
X12508277Y-14266174D02*
X12536848Y-14266174D01*
X12536848Y-14266174D02*
X12555896Y-14275698D01*
X12555896Y-14275698D02*
X12565420Y-14285222D01*
X12565420Y-14285222D02*
X12574944Y-14304269D01*
X12574944Y-14304269D02*
X12574944Y-14351888D01*
X12574944Y-14351888D02*
X12565420Y-14370936D01*
X12565420Y-14370936D02*
X12555896Y-14380460D01*
X12555896Y-14380460D02*
X12536848Y-14389984D01*
X12536848Y-14389984D02*
X12479706Y-14389984D01*
X12479706Y-14389984D02*
X12460658Y-14380460D01*
X12460658Y-14380460D02*
X12451134Y-14370936D01*
X12651134Y-14189984D02*
X12651134Y-14228079D01*
X12727325Y-14189984D02*
X12727325Y-14228079D01*
X13022563Y-14466174D02*
X13013039Y-14456650D01*
X13013039Y-14456650D02*
X12993991Y-14428079D01*
X12993991Y-14428079D02*
X12984468Y-14409031D01*
X12984468Y-14409031D02*
X12974944Y-14380460D01*
X12974944Y-14380460D02*
X12965420Y-14332841D01*
X12965420Y-14332841D02*
X12965420Y-14294746D01*
X12965420Y-14294746D02*
X12974944Y-14247127D01*
X12974944Y-14247127D02*
X12984468Y-14218555D01*
X12984468Y-14218555D02*
X12993991Y-14199508D01*
X12993991Y-14199508D02*
X13013039Y-14170936D01*
X13013039Y-14170936D02*
X13022563Y-14161412D01*
X13136848Y-14189984D02*
X13155896Y-14189984D01*
X13155896Y-14189984D02*
X13174944Y-14199508D01*
X13174944Y-14199508D02*
X13184468Y-14209031D01*
X13184468Y-14209031D02*
X13193991Y-14228079D01*
X13193991Y-14228079D02*
X13203515Y-14266174D01*
X13203515Y-14266174D02*
X13203515Y-14313793D01*
X13203515Y-14313793D02*
X13193991Y-14351888D01*
X13193991Y-14351888D02*
X13184468Y-14370936D01*
X13184468Y-14370936D02*
X13174944Y-14380460D01*
X13174944Y-14380460D02*
X13155896Y-14389984D01*
X13155896Y-14389984D02*
X13136848Y-14389984D01*
X13136848Y-14389984D02*
X13117801Y-14380460D01*
X13117801Y-14380460D02*
X13108277Y-14370936D01*
X13108277Y-14370936D02*
X13098753Y-14351888D01*
X13098753Y-14351888D02*
X13089229Y-14313793D01*
X13089229Y-14313793D02*
X13089229Y-14266174D01*
X13089229Y-14266174D02*
X13098753Y-14228079D01*
X13098753Y-14228079D02*
X13108277Y-14209031D01*
X13108277Y-14209031D02*
X13117801Y-14199508D01*
X13117801Y-14199508D02*
X13136848Y-14189984D01*
X13441610Y-14389984D02*
X13441610Y-14189984D01*
X13527325Y-14389984D02*
X13527325Y-14285222D01*
X13527325Y-14285222D02*
X13517801Y-14266174D01*
X13517801Y-14266174D02*
X13498753Y-14256650D01*
X13498753Y-14256650D02*
X13470182Y-14256650D01*
X13470182Y-14256650D02*
X13451134Y-14266174D01*
X13451134Y-14266174D02*
X13441610Y-14275698D01*
X13651134Y-14389984D02*
X13632087Y-14380460D01*
X13632087Y-14380460D02*
X13622563Y-14370936D01*
X13622563Y-14370936D02*
X13613039Y-14351888D01*
X13613039Y-14351888D02*
X13613039Y-14294746D01*
X13613039Y-14294746D02*
X13622563Y-14275698D01*
X13622563Y-14275698D02*
X13632087Y-14266174D01*
X13632087Y-14266174D02*
X13651134Y-14256650D01*
X13651134Y-14256650D02*
X13679706Y-14256650D01*
X13679706Y-14256650D02*
X13698753Y-14266174D01*
X13698753Y-14266174D02*
X13708277Y-14275698D01*
X13708277Y-14275698D02*
X13717801Y-14294746D01*
X13717801Y-14294746D02*
X13717801Y-14351888D01*
X13717801Y-14351888D02*
X13708277Y-14370936D01*
X13708277Y-14370936D02*
X13698753Y-14380460D01*
X13698753Y-14380460D02*
X13679706Y-14389984D01*
X13679706Y-14389984D02*
X13651134Y-14389984D01*
X13832087Y-14389984D02*
X13813039Y-14380460D01*
X13813039Y-14380460D02*
X13803515Y-14361412D01*
X13803515Y-14361412D02*
X13803515Y-14189984D01*
X13984468Y-14380460D02*
X13965420Y-14389984D01*
X13965420Y-14389984D02*
X13927325Y-14389984D01*
X13927325Y-14389984D02*
X13908277Y-14380460D01*
X13908277Y-14380460D02*
X13898753Y-14361412D01*
X13898753Y-14361412D02*
X13898753Y-14285222D01*
X13898753Y-14285222D02*
X13908277Y-14266174D01*
X13908277Y-14266174D02*
X13927325Y-14256650D01*
X13927325Y-14256650D02*
X13965420Y-14256650D01*
X13965420Y-14256650D02*
X13984468Y-14266174D01*
X13984468Y-14266174D02*
X13993991Y-14285222D01*
X13993991Y-14285222D02*
X13993991Y-14304269D01*
X13993991Y-14304269D02*
X13898753Y-14323317D01*
X14070182Y-14380460D02*
X14089230Y-14389984D01*
X14089230Y-14389984D02*
X14127325Y-14389984D01*
X14127325Y-14389984D02*
X14146372Y-14380460D01*
X14146372Y-14380460D02*
X14155896Y-14361412D01*
X14155896Y-14361412D02*
X14155896Y-14351888D01*
X14155896Y-14351888D02*
X14146372Y-14332841D01*
X14146372Y-14332841D02*
X14127325Y-14323317D01*
X14127325Y-14323317D02*
X14098753Y-14323317D01*
X14098753Y-14323317D02*
X14079706Y-14313793D01*
X14079706Y-14313793D02*
X14070182Y-14294746D01*
X14070182Y-14294746D02*
X14070182Y-14285222D01*
X14070182Y-14285222D02*
X14079706Y-14266174D01*
X14079706Y-14266174D02*
X14098753Y-14256650D01*
X14098753Y-14256650D02*
X14127325Y-14256650D01*
X14127325Y-14256650D02*
X14146372Y-14266174D01*
X14393992Y-14313793D02*
X14546373Y-14313793D01*
X14470182Y-14389984D02*
X14470182Y-14237603D01*
X14774944Y-14189984D02*
X14898753Y-14189984D01*
X14898753Y-14189984D02*
X14832087Y-14266174D01*
X14832087Y-14266174D02*
X14860658Y-14266174D01*
X14860658Y-14266174D02*
X14879706Y-14275698D01*
X14879706Y-14275698D02*
X14889230Y-14285222D01*
X14889230Y-14285222D02*
X14898753Y-14304269D01*
X14898753Y-14304269D02*
X14898753Y-14351888D01*
X14898753Y-14351888D02*
X14889230Y-14370936D01*
X14889230Y-14370936D02*
X14879706Y-14380460D01*
X14879706Y-14380460D02*
X14860658Y-14389984D01*
X14860658Y-14389984D02*
X14803515Y-14389984D01*
X14803515Y-14389984D02*
X14784468Y-14380460D01*
X14784468Y-14380460D02*
X14774944Y-14370936D01*
X15127325Y-14380460D02*
X15146373Y-14389984D01*
X15146373Y-14389984D02*
X15184468Y-14389984D01*
X15184468Y-14389984D02*
X15203515Y-14380460D01*
X15203515Y-14380460D02*
X15213039Y-14361412D01*
X15213039Y-14361412D02*
X15213039Y-14351888D01*
X15213039Y-14351888D02*
X15203515Y-14332841D01*
X15203515Y-14332841D02*
X15184468Y-14323317D01*
X15184468Y-14323317D02*
X15155896Y-14323317D01*
X15155896Y-14323317D02*
X15136849Y-14313793D01*
X15136849Y-14313793D02*
X15127325Y-14294746D01*
X15127325Y-14294746D02*
X15127325Y-14285222D01*
X15127325Y-14285222D02*
X15136849Y-14266174D01*
X15136849Y-14266174D02*
X15155896Y-14256650D01*
X15155896Y-14256650D02*
X15184468Y-14256650D01*
X15184468Y-14256650D02*
X15203515Y-14266174D01*
X15327325Y-14389984D02*
X15308277Y-14380460D01*
X15308277Y-14380460D02*
X15298754Y-14361412D01*
X15298754Y-14361412D02*
X15298754Y-14189984D01*
X15432087Y-14389984D02*
X15413039Y-14380460D01*
X15413039Y-14380460D02*
X15403515Y-14370936D01*
X15403515Y-14370936D02*
X15393992Y-14351888D01*
X15393992Y-14351888D02*
X15393992Y-14294746D01*
X15393992Y-14294746D02*
X15403515Y-14275698D01*
X15403515Y-14275698D02*
X15413039Y-14266174D01*
X15413039Y-14266174D02*
X15432087Y-14256650D01*
X15432087Y-14256650D02*
X15460658Y-14256650D01*
X15460658Y-14256650D02*
X15479706Y-14266174D01*
X15479706Y-14266174D02*
X15489230Y-14275698D01*
X15489230Y-14275698D02*
X15498754Y-14294746D01*
X15498754Y-14294746D02*
X15498754Y-14351888D01*
X15498754Y-14351888D02*
X15489230Y-14370936D01*
X15489230Y-14370936D02*
X15479706Y-14380460D01*
X15479706Y-14380460D02*
X15460658Y-14389984D01*
X15460658Y-14389984D02*
X15432087Y-14389984D01*
X15555896Y-14256650D02*
X15632087Y-14256650D01*
X15584468Y-14189984D02*
X15584468Y-14361412D01*
X15584468Y-14361412D02*
X15593992Y-14380460D01*
X15593992Y-14380460D02*
X15613039Y-14389984D01*
X15613039Y-14389984D02*
X15632087Y-14389984D01*
X15689230Y-14380460D02*
X15708277Y-14389984D01*
X15708277Y-14389984D02*
X15746373Y-14389984D01*
X15746373Y-14389984D02*
X15765420Y-14380460D01*
X15765420Y-14380460D02*
X15774944Y-14361412D01*
X15774944Y-14361412D02*
X15774944Y-14351888D01*
X15774944Y-14351888D02*
X15765420Y-14332841D01*
X15765420Y-14332841D02*
X15746373Y-14323317D01*
X15746373Y-14323317D02*
X15717801Y-14323317D01*
X15717801Y-14323317D02*
X15698754Y-14313793D01*
X15698754Y-14313793D02*
X15689230Y-14294746D01*
X15689230Y-14294746D02*
X15689230Y-14285222D01*
X15689230Y-14285222D02*
X15698754Y-14266174D01*
X15698754Y-14266174D02*
X15717801Y-14256650D01*
X15717801Y-14256650D02*
X15746373Y-14256650D01*
X15746373Y-14256650D02*
X15765420Y-14266174D01*
X15841611Y-14466174D02*
X15851135Y-14456650D01*
X15851135Y-14456650D02*
X15870182Y-14428079D01*
X15870182Y-14428079D02*
X15879706Y-14409031D01*
X15879706Y-14409031D02*
X15889230Y-14380460D01*
X15889230Y-14380460D02*
X15898754Y-14332841D01*
X15898754Y-14332841D02*
X15898754Y-14294746D01*
X15898754Y-14294746D02*
X15889230Y-14247127D01*
X15889230Y-14247127D02*
X15879706Y-14218555D01*
X15879706Y-14218555D02*
X15870182Y-14199508D01*
X15870182Y-14199508D02*
X15851135Y-14170936D01*
X15851135Y-14170936D02*
X15841611Y-14161412D01*
D14*
X9327500Y-14502500D02*
X9447500Y-14622500D01*
X9447500Y-14502500D02*
X9327500Y-14622500D01*
X9447500Y-14562500D02*
G75*
G02*
X9327500Y-14562500I-60000J0D01*
G01*
X9327500Y-14562500D02*
G75*
G02*
X9447500Y-14562500I60000J0D01*
G01*
D11*
X9813039Y-14653984D02*
X9698753Y-14653984D01*
X9755896Y-14653984D02*
X9755896Y-14453984D01*
X9755896Y-14453984D02*
X9736848Y-14482555D01*
X9736848Y-14482555D02*
X9717801Y-14501603D01*
X9717801Y-14501603D02*
X9698753Y-14511127D01*
X9898753Y-14634936D02*
X9908277Y-14644460D01*
X9908277Y-14644460D02*
X9898753Y-14653984D01*
X9898753Y-14653984D02*
X9889229Y-14644460D01*
X9889229Y-14644460D02*
X9898753Y-14634936D01*
X9898753Y-14634936D02*
X9898753Y-14653984D01*
X9984467Y-14473031D02*
X9993991Y-14463508D01*
X9993991Y-14463508D02*
X10013039Y-14453984D01*
X10013039Y-14453984D02*
X10060658Y-14453984D01*
X10060658Y-14453984D02*
X10079705Y-14463508D01*
X10079705Y-14463508D02*
X10089229Y-14473031D01*
X10089229Y-14473031D02*
X10098753Y-14492079D01*
X10098753Y-14492079D02*
X10098753Y-14511127D01*
X10098753Y-14511127D02*
X10089229Y-14539698D01*
X10089229Y-14539698D02*
X9974944Y-14653984D01*
X9974944Y-14653984D02*
X10098753Y-14653984D01*
X10222563Y-14453984D02*
X10241610Y-14453984D01*
X10241610Y-14453984D02*
X10260658Y-14463508D01*
X10260658Y-14463508D02*
X10270182Y-14473031D01*
X10270182Y-14473031D02*
X10279705Y-14492079D01*
X10279705Y-14492079D02*
X10289229Y-14530174D01*
X10289229Y-14530174D02*
X10289229Y-14577793D01*
X10289229Y-14577793D02*
X10279705Y-14615888D01*
X10279705Y-14615888D02*
X10270182Y-14634936D01*
X10270182Y-14634936D02*
X10260658Y-14644460D01*
X10260658Y-14644460D02*
X10241610Y-14653984D01*
X10241610Y-14653984D02*
X10222563Y-14653984D01*
X10222563Y-14653984D02*
X10203515Y-14644460D01*
X10203515Y-14644460D02*
X10193991Y-14634936D01*
X10193991Y-14634936D02*
X10184467Y-14615888D01*
X10184467Y-14615888D02*
X10174944Y-14577793D01*
X10174944Y-14577793D02*
X10174944Y-14530174D01*
X10174944Y-14530174D02*
X10184467Y-14492079D01*
X10184467Y-14492079D02*
X10193991Y-14473031D01*
X10193991Y-14473031D02*
X10203515Y-14463508D01*
X10203515Y-14463508D02*
X10222563Y-14453984D01*
X10413039Y-14453984D02*
X10432086Y-14453984D01*
X10432086Y-14453984D02*
X10451134Y-14463508D01*
X10451134Y-14463508D02*
X10460658Y-14473031D01*
X10460658Y-14473031D02*
X10470182Y-14492079D01*
X10470182Y-14492079D02*
X10479705Y-14530174D01*
X10479705Y-14530174D02*
X10479705Y-14577793D01*
X10479705Y-14577793D02*
X10470182Y-14615888D01*
X10470182Y-14615888D02*
X10460658Y-14634936D01*
X10460658Y-14634936D02*
X10451134Y-14644460D01*
X10451134Y-14644460D02*
X10432086Y-14653984D01*
X10432086Y-14653984D02*
X10413039Y-14653984D01*
X10413039Y-14653984D02*
X10393991Y-14644460D01*
X10393991Y-14644460D02*
X10384467Y-14634936D01*
X10384467Y-14634936D02*
X10374944Y-14615888D01*
X10374944Y-14615888D02*
X10365420Y-14577793D01*
X10365420Y-14577793D02*
X10365420Y-14530174D01*
X10365420Y-14530174D02*
X10374944Y-14492079D01*
X10374944Y-14492079D02*
X10384467Y-14473031D01*
X10384467Y-14473031D02*
X10393991Y-14463508D01*
X10393991Y-14463508D02*
X10413039Y-14453984D01*
X10565420Y-14653984D02*
X10565420Y-14520650D01*
X10565420Y-14539698D02*
X10574944Y-14530174D01*
X10574944Y-14530174D02*
X10593991Y-14520650D01*
X10593991Y-14520650D02*
X10622563Y-14520650D01*
X10622563Y-14520650D02*
X10641610Y-14530174D01*
X10641610Y-14530174D02*
X10651134Y-14549222D01*
X10651134Y-14549222D02*
X10651134Y-14653984D01*
X10651134Y-14549222D02*
X10660658Y-14530174D01*
X10660658Y-14530174D02*
X10679705Y-14520650D01*
X10679705Y-14520650D02*
X10708277Y-14520650D01*
X10708277Y-14520650D02*
X10727325Y-14530174D01*
X10727325Y-14530174D02*
X10736848Y-14549222D01*
X10736848Y-14549222D02*
X10736848Y-14653984D01*
X10832086Y-14653984D02*
X10832086Y-14520650D01*
X10832086Y-14539698D02*
X10841610Y-14530174D01*
X10841610Y-14530174D02*
X10860658Y-14520650D01*
X10860658Y-14520650D02*
X10889229Y-14520650D01*
X10889229Y-14520650D02*
X10908277Y-14530174D01*
X10908277Y-14530174D02*
X10917801Y-14549222D01*
X10917801Y-14549222D02*
X10917801Y-14653984D01*
X10917801Y-14549222D02*
X10927325Y-14530174D01*
X10927325Y-14530174D02*
X10946372Y-14520650D01*
X10946372Y-14520650D02*
X10974944Y-14520650D01*
X10974944Y-14520650D02*
X10993991Y-14530174D01*
X10993991Y-14530174D02*
X11003515Y-14549222D01*
X11003515Y-14549222D02*
X11003515Y-14653984D01*
X11393991Y-14444460D02*
X11222563Y-14701603D01*
X11651134Y-14453984D02*
X11670182Y-14453984D01*
X11670182Y-14453984D02*
X11689229Y-14463508D01*
X11689229Y-14463508D02*
X11698753Y-14473031D01*
X11698753Y-14473031D02*
X11708277Y-14492079D01*
X11708277Y-14492079D02*
X11717801Y-14530174D01*
X11717801Y-14530174D02*
X11717801Y-14577793D01*
X11717801Y-14577793D02*
X11708277Y-14615888D01*
X11708277Y-14615888D02*
X11698753Y-14634936D01*
X11698753Y-14634936D02*
X11689229Y-14644460D01*
X11689229Y-14644460D02*
X11670182Y-14653984D01*
X11670182Y-14653984D02*
X11651134Y-14653984D01*
X11651134Y-14653984D02*
X11632086Y-14644460D01*
X11632086Y-14644460D02*
X11622563Y-14634936D01*
X11622563Y-14634936D02*
X11613039Y-14615888D01*
X11613039Y-14615888D02*
X11603515Y-14577793D01*
X11603515Y-14577793D02*
X11603515Y-14530174D01*
X11603515Y-14530174D02*
X11613039Y-14492079D01*
X11613039Y-14492079D02*
X11622563Y-14473031D01*
X11622563Y-14473031D02*
X11632086Y-14463508D01*
X11632086Y-14463508D02*
X11651134Y-14453984D01*
X11803515Y-14634936D02*
X11813039Y-14644460D01*
X11813039Y-14644460D02*
X11803515Y-14653984D01*
X11803515Y-14653984D02*
X11793991Y-14644460D01*
X11793991Y-14644460D02*
X11803515Y-14634936D01*
X11803515Y-14634936D02*
X11803515Y-14653984D01*
X11936848Y-14453984D02*
X11955896Y-14453984D01*
X11955896Y-14453984D02*
X11974944Y-14463508D01*
X11974944Y-14463508D02*
X11984467Y-14473031D01*
X11984467Y-14473031D02*
X11993991Y-14492079D01*
X11993991Y-14492079D02*
X12003515Y-14530174D01*
X12003515Y-14530174D02*
X12003515Y-14577793D01*
X12003515Y-14577793D02*
X11993991Y-14615888D01*
X11993991Y-14615888D02*
X11984467Y-14634936D01*
X11984467Y-14634936D02*
X11974944Y-14644460D01*
X11974944Y-14644460D02*
X11955896Y-14653984D01*
X11955896Y-14653984D02*
X11936848Y-14653984D01*
X11936848Y-14653984D02*
X11917801Y-14644460D01*
X11917801Y-14644460D02*
X11908277Y-14634936D01*
X11908277Y-14634936D02*
X11898753Y-14615888D01*
X11898753Y-14615888D02*
X11889229Y-14577793D01*
X11889229Y-14577793D02*
X11889229Y-14530174D01*
X11889229Y-14530174D02*
X11898753Y-14492079D01*
X11898753Y-14492079D02*
X11908277Y-14473031D01*
X11908277Y-14473031D02*
X11917801Y-14463508D01*
X11917801Y-14463508D02*
X11936848Y-14453984D01*
X12174944Y-14520650D02*
X12174944Y-14653984D01*
X12127325Y-14444460D02*
X12079706Y-14587317D01*
X12079706Y-14587317D02*
X12203515Y-14587317D01*
X12260658Y-14453984D02*
X12393991Y-14453984D01*
X12393991Y-14453984D02*
X12308277Y-14653984D01*
X12460658Y-14473031D02*
X12470182Y-14463508D01*
X12470182Y-14463508D02*
X12489229Y-14453984D01*
X12489229Y-14453984D02*
X12536848Y-14453984D01*
X12536848Y-14453984D02*
X12555896Y-14463508D01*
X12555896Y-14463508D02*
X12565420Y-14473031D01*
X12565420Y-14473031D02*
X12574944Y-14492079D01*
X12574944Y-14492079D02*
X12574944Y-14511127D01*
X12574944Y-14511127D02*
X12565420Y-14539698D01*
X12565420Y-14539698D02*
X12451134Y-14653984D01*
X12451134Y-14653984D02*
X12574944Y-14653984D01*
X12651134Y-14453984D02*
X12651134Y-14492079D01*
X12727325Y-14453984D02*
X12727325Y-14492079D01*
X13022563Y-14730174D02*
X13013039Y-14720650D01*
X13013039Y-14720650D02*
X12993991Y-14692079D01*
X12993991Y-14692079D02*
X12984468Y-14673031D01*
X12984468Y-14673031D02*
X12974944Y-14644460D01*
X12974944Y-14644460D02*
X12965420Y-14596841D01*
X12965420Y-14596841D02*
X12965420Y-14558746D01*
X12965420Y-14558746D02*
X12974944Y-14511127D01*
X12974944Y-14511127D02*
X12984468Y-14482555D01*
X12984468Y-14482555D02*
X12993991Y-14463508D01*
X12993991Y-14463508D02*
X13013039Y-14434936D01*
X13013039Y-14434936D02*
X13022563Y-14425412D01*
X13184468Y-14520650D02*
X13184468Y-14653984D01*
X13136848Y-14444460D02*
X13089229Y-14587317D01*
X13089229Y-14587317D02*
X13213039Y-14587317D01*
X13441610Y-14653984D02*
X13441610Y-14453984D01*
X13527325Y-14653984D02*
X13527325Y-14549222D01*
X13527325Y-14549222D02*
X13517801Y-14530174D01*
X13517801Y-14530174D02*
X13498753Y-14520650D01*
X13498753Y-14520650D02*
X13470182Y-14520650D01*
X13470182Y-14520650D02*
X13451134Y-14530174D01*
X13451134Y-14530174D02*
X13441610Y-14539698D01*
X13651134Y-14653984D02*
X13632087Y-14644460D01*
X13632087Y-14644460D02*
X13622563Y-14634936D01*
X13622563Y-14634936D02*
X13613039Y-14615888D01*
X13613039Y-14615888D02*
X13613039Y-14558746D01*
X13613039Y-14558746D02*
X13622563Y-14539698D01*
X13622563Y-14539698D02*
X13632087Y-14530174D01*
X13632087Y-14530174D02*
X13651134Y-14520650D01*
X13651134Y-14520650D02*
X13679706Y-14520650D01*
X13679706Y-14520650D02*
X13698753Y-14530174D01*
X13698753Y-14530174D02*
X13708277Y-14539698D01*
X13708277Y-14539698D02*
X13717801Y-14558746D01*
X13717801Y-14558746D02*
X13717801Y-14615888D01*
X13717801Y-14615888D02*
X13708277Y-14634936D01*
X13708277Y-14634936D02*
X13698753Y-14644460D01*
X13698753Y-14644460D02*
X13679706Y-14653984D01*
X13679706Y-14653984D02*
X13651134Y-14653984D01*
X13832087Y-14653984D02*
X13813039Y-14644460D01*
X13813039Y-14644460D02*
X13803515Y-14625412D01*
X13803515Y-14625412D02*
X13803515Y-14453984D01*
X13984468Y-14644460D02*
X13965420Y-14653984D01*
X13965420Y-14653984D02*
X13927325Y-14653984D01*
X13927325Y-14653984D02*
X13908277Y-14644460D01*
X13908277Y-14644460D02*
X13898753Y-14625412D01*
X13898753Y-14625412D02*
X13898753Y-14549222D01*
X13898753Y-14549222D02*
X13908277Y-14530174D01*
X13908277Y-14530174D02*
X13927325Y-14520650D01*
X13927325Y-14520650D02*
X13965420Y-14520650D01*
X13965420Y-14520650D02*
X13984468Y-14530174D01*
X13984468Y-14530174D02*
X13993991Y-14549222D01*
X13993991Y-14549222D02*
X13993991Y-14568269D01*
X13993991Y-14568269D02*
X13898753Y-14587317D01*
X14070182Y-14644460D02*
X14089230Y-14653984D01*
X14089230Y-14653984D02*
X14127325Y-14653984D01*
X14127325Y-14653984D02*
X14146372Y-14644460D01*
X14146372Y-14644460D02*
X14155896Y-14625412D01*
X14155896Y-14625412D02*
X14155896Y-14615888D01*
X14155896Y-14615888D02*
X14146372Y-14596841D01*
X14146372Y-14596841D02*
X14127325Y-14587317D01*
X14127325Y-14587317D02*
X14098753Y-14587317D01*
X14098753Y-14587317D02*
X14079706Y-14577793D01*
X14079706Y-14577793D02*
X14070182Y-14558746D01*
X14070182Y-14558746D02*
X14070182Y-14549222D01*
X14070182Y-14549222D02*
X14079706Y-14530174D01*
X14079706Y-14530174D02*
X14098753Y-14520650D01*
X14098753Y-14520650D02*
X14127325Y-14520650D01*
X14127325Y-14520650D02*
X14146372Y-14530174D01*
X14222563Y-14730174D02*
X14232087Y-14720650D01*
X14232087Y-14720650D02*
X14251134Y-14692079D01*
X14251134Y-14692079D02*
X14260658Y-14673031D01*
X14260658Y-14673031D02*
X14270182Y-14644460D01*
X14270182Y-14644460D02*
X14279706Y-14596841D01*
X14279706Y-14596841D02*
X14279706Y-14558746D01*
X14279706Y-14558746D02*
X14270182Y-14511127D01*
X14270182Y-14511127D02*
X14260658Y-14482555D01*
X14260658Y-14482555D02*
X14251134Y-14463508D01*
X14251134Y-14463508D02*
X14232087Y-14434936D01*
X14232087Y-14434936D02*
X14222563Y-14425412D01*
D15*
X9322500Y-14764000D02*
X9447500Y-14889000D01*
X9447500Y-14764000D02*
X9322500Y-14889000D01*
X9385000Y-14764000D02*
X9385000Y-14889000D01*
X9322500Y-14826500D02*
X9447500Y-14826500D01*
D11*
X9813039Y-14917984D02*
X9698753Y-14917984D01*
X9755896Y-14917984D02*
X9755896Y-14717984D01*
X9755896Y-14717984D02*
X9736848Y-14746555D01*
X9736848Y-14746555D02*
X9717801Y-14765603D01*
X9717801Y-14765603D02*
X9698753Y-14775127D01*
X9898753Y-14898936D02*
X9908277Y-14908460D01*
X9908277Y-14908460D02*
X9898753Y-14917984D01*
X9898753Y-14917984D02*
X9889229Y-14908460D01*
X9889229Y-14908460D02*
X9898753Y-14898936D01*
X9898753Y-14898936D02*
X9898753Y-14917984D01*
X9984467Y-14737031D02*
X9993991Y-14727508D01*
X9993991Y-14727508D02*
X10013039Y-14717984D01*
X10013039Y-14717984D02*
X10060658Y-14717984D01*
X10060658Y-14717984D02*
X10079705Y-14727508D01*
X10079705Y-14727508D02*
X10089229Y-14737031D01*
X10089229Y-14737031D02*
X10098753Y-14756079D01*
X10098753Y-14756079D02*
X10098753Y-14775127D01*
X10098753Y-14775127D02*
X10089229Y-14803698D01*
X10089229Y-14803698D02*
X9974944Y-14917984D01*
X9974944Y-14917984D02*
X10098753Y-14917984D01*
X10279705Y-14717984D02*
X10184467Y-14717984D01*
X10184467Y-14717984D02*
X10174944Y-14813222D01*
X10174944Y-14813222D02*
X10184467Y-14803698D01*
X10184467Y-14803698D02*
X10203515Y-14794174D01*
X10203515Y-14794174D02*
X10251134Y-14794174D01*
X10251134Y-14794174D02*
X10270182Y-14803698D01*
X10270182Y-14803698D02*
X10279705Y-14813222D01*
X10279705Y-14813222D02*
X10289229Y-14832269D01*
X10289229Y-14832269D02*
X10289229Y-14879888D01*
X10289229Y-14879888D02*
X10279705Y-14898936D01*
X10279705Y-14898936D02*
X10270182Y-14908460D01*
X10270182Y-14908460D02*
X10251134Y-14917984D01*
X10251134Y-14917984D02*
X10203515Y-14917984D01*
X10203515Y-14917984D02*
X10184467Y-14908460D01*
X10184467Y-14908460D02*
X10174944Y-14898936D01*
X10413039Y-14717984D02*
X10432086Y-14717984D01*
X10432086Y-14717984D02*
X10451134Y-14727508D01*
X10451134Y-14727508D02*
X10460658Y-14737031D01*
X10460658Y-14737031D02*
X10470182Y-14756079D01*
X10470182Y-14756079D02*
X10479705Y-14794174D01*
X10479705Y-14794174D02*
X10479705Y-14841793D01*
X10479705Y-14841793D02*
X10470182Y-14879888D01*
X10470182Y-14879888D02*
X10460658Y-14898936D01*
X10460658Y-14898936D02*
X10451134Y-14908460D01*
X10451134Y-14908460D02*
X10432086Y-14917984D01*
X10432086Y-14917984D02*
X10413039Y-14917984D01*
X10413039Y-14917984D02*
X10393991Y-14908460D01*
X10393991Y-14908460D02*
X10384467Y-14898936D01*
X10384467Y-14898936D02*
X10374944Y-14879888D01*
X10374944Y-14879888D02*
X10365420Y-14841793D01*
X10365420Y-14841793D02*
X10365420Y-14794174D01*
X10365420Y-14794174D02*
X10374944Y-14756079D01*
X10374944Y-14756079D02*
X10384467Y-14737031D01*
X10384467Y-14737031D02*
X10393991Y-14727508D01*
X10393991Y-14727508D02*
X10413039Y-14717984D01*
X10565420Y-14917984D02*
X10565420Y-14784650D01*
X10565420Y-14803698D02*
X10574944Y-14794174D01*
X10574944Y-14794174D02*
X10593991Y-14784650D01*
X10593991Y-14784650D02*
X10622563Y-14784650D01*
X10622563Y-14784650D02*
X10641610Y-14794174D01*
X10641610Y-14794174D02*
X10651134Y-14813222D01*
X10651134Y-14813222D02*
X10651134Y-14917984D01*
X10651134Y-14813222D02*
X10660658Y-14794174D01*
X10660658Y-14794174D02*
X10679705Y-14784650D01*
X10679705Y-14784650D02*
X10708277Y-14784650D01*
X10708277Y-14784650D02*
X10727325Y-14794174D01*
X10727325Y-14794174D02*
X10736848Y-14813222D01*
X10736848Y-14813222D02*
X10736848Y-14917984D01*
X10832086Y-14917984D02*
X10832086Y-14784650D01*
X10832086Y-14803698D02*
X10841610Y-14794174D01*
X10841610Y-14794174D02*
X10860658Y-14784650D01*
X10860658Y-14784650D02*
X10889229Y-14784650D01*
X10889229Y-14784650D02*
X10908277Y-14794174D01*
X10908277Y-14794174D02*
X10917801Y-14813222D01*
X10917801Y-14813222D02*
X10917801Y-14917984D01*
X10917801Y-14813222D02*
X10927325Y-14794174D01*
X10927325Y-14794174D02*
X10946372Y-14784650D01*
X10946372Y-14784650D02*
X10974944Y-14784650D01*
X10974944Y-14784650D02*
X10993991Y-14794174D01*
X10993991Y-14794174D02*
X11003515Y-14813222D01*
X11003515Y-14813222D02*
X11003515Y-14917984D01*
X11393991Y-14708460D02*
X11222563Y-14965603D01*
X11651134Y-14717984D02*
X11670182Y-14717984D01*
X11670182Y-14717984D02*
X11689229Y-14727508D01*
X11689229Y-14727508D02*
X11698753Y-14737031D01*
X11698753Y-14737031D02*
X11708277Y-14756079D01*
X11708277Y-14756079D02*
X11717801Y-14794174D01*
X11717801Y-14794174D02*
X11717801Y-14841793D01*
X11717801Y-14841793D02*
X11708277Y-14879888D01*
X11708277Y-14879888D02*
X11698753Y-14898936D01*
X11698753Y-14898936D02*
X11689229Y-14908460D01*
X11689229Y-14908460D02*
X11670182Y-14917984D01*
X11670182Y-14917984D02*
X11651134Y-14917984D01*
X11651134Y-14917984D02*
X11632086Y-14908460D01*
X11632086Y-14908460D02*
X11622563Y-14898936D01*
X11622563Y-14898936D02*
X11613039Y-14879888D01*
X11613039Y-14879888D02*
X11603515Y-14841793D01*
X11603515Y-14841793D02*
X11603515Y-14794174D01*
X11603515Y-14794174D02*
X11613039Y-14756079D01*
X11613039Y-14756079D02*
X11622563Y-14737031D01*
X11622563Y-14737031D02*
X11632086Y-14727508D01*
X11632086Y-14727508D02*
X11651134Y-14717984D01*
X11803515Y-14898936D02*
X11813039Y-14908460D01*
X11813039Y-14908460D02*
X11803515Y-14917984D01*
X11803515Y-14917984D02*
X11793991Y-14908460D01*
X11793991Y-14908460D02*
X11803515Y-14898936D01*
X11803515Y-14898936D02*
X11803515Y-14917984D01*
X11936848Y-14717984D02*
X11955896Y-14717984D01*
X11955896Y-14717984D02*
X11974944Y-14727508D01*
X11974944Y-14727508D02*
X11984467Y-14737031D01*
X11984467Y-14737031D02*
X11993991Y-14756079D01*
X11993991Y-14756079D02*
X12003515Y-14794174D01*
X12003515Y-14794174D02*
X12003515Y-14841793D01*
X12003515Y-14841793D02*
X11993991Y-14879888D01*
X11993991Y-14879888D02*
X11984467Y-14898936D01*
X11984467Y-14898936D02*
X11974944Y-14908460D01*
X11974944Y-14908460D02*
X11955896Y-14917984D01*
X11955896Y-14917984D02*
X11936848Y-14917984D01*
X11936848Y-14917984D02*
X11917801Y-14908460D01*
X11917801Y-14908460D02*
X11908277Y-14898936D01*
X11908277Y-14898936D02*
X11898753Y-14879888D01*
X11898753Y-14879888D02*
X11889229Y-14841793D01*
X11889229Y-14841793D02*
X11889229Y-14794174D01*
X11889229Y-14794174D02*
X11898753Y-14756079D01*
X11898753Y-14756079D02*
X11908277Y-14737031D01*
X11908277Y-14737031D02*
X11917801Y-14727508D01*
X11917801Y-14727508D02*
X11936848Y-14717984D01*
X12174944Y-14784650D02*
X12174944Y-14917984D01*
X12127325Y-14708460D02*
X12079706Y-14851317D01*
X12079706Y-14851317D02*
X12203515Y-14851317D01*
X12289229Y-14917984D02*
X12327325Y-14917984D01*
X12327325Y-14917984D02*
X12346372Y-14908460D01*
X12346372Y-14908460D02*
X12355896Y-14898936D01*
X12355896Y-14898936D02*
X12374944Y-14870365D01*
X12374944Y-14870365D02*
X12384467Y-14832269D01*
X12384467Y-14832269D02*
X12384467Y-14756079D01*
X12384467Y-14756079D02*
X12374944Y-14737031D01*
X12374944Y-14737031D02*
X12365420Y-14727508D01*
X12365420Y-14727508D02*
X12346372Y-14717984D01*
X12346372Y-14717984D02*
X12308277Y-14717984D01*
X12308277Y-14717984D02*
X12289229Y-14727508D01*
X12289229Y-14727508D02*
X12279706Y-14737031D01*
X12279706Y-14737031D02*
X12270182Y-14756079D01*
X12270182Y-14756079D02*
X12270182Y-14803698D01*
X12270182Y-14803698D02*
X12279706Y-14822746D01*
X12279706Y-14822746D02*
X12289229Y-14832269D01*
X12289229Y-14832269D02*
X12308277Y-14841793D01*
X12308277Y-14841793D02*
X12346372Y-14841793D01*
X12346372Y-14841793D02*
X12365420Y-14832269D01*
X12365420Y-14832269D02*
X12374944Y-14822746D01*
X12374944Y-14822746D02*
X12384467Y-14803698D01*
X12460658Y-14737031D02*
X12470182Y-14727508D01*
X12470182Y-14727508D02*
X12489229Y-14717984D01*
X12489229Y-14717984D02*
X12536848Y-14717984D01*
X12536848Y-14717984D02*
X12555896Y-14727508D01*
X12555896Y-14727508D02*
X12565420Y-14737031D01*
X12565420Y-14737031D02*
X12574944Y-14756079D01*
X12574944Y-14756079D02*
X12574944Y-14775127D01*
X12574944Y-14775127D02*
X12565420Y-14803698D01*
X12565420Y-14803698D02*
X12451134Y-14917984D01*
X12451134Y-14917984D02*
X12574944Y-14917984D01*
X12651134Y-14717984D02*
X12651134Y-14756079D01*
X12727325Y-14717984D02*
X12727325Y-14756079D01*
X13022563Y-14994174D02*
X13013039Y-14984650D01*
X13013039Y-14984650D02*
X12993991Y-14956079D01*
X12993991Y-14956079D02*
X12984468Y-14937031D01*
X12984468Y-14937031D02*
X12974944Y-14908460D01*
X12974944Y-14908460D02*
X12965420Y-14860841D01*
X12965420Y-14860841D02*
X12965420Y-14822746D01*
X12965420Y-14822746D02*
X12974944Y-14775127D01*
X12974944Y-14775127D02*
X12984468Y-14746555D01*
X12984468Y-14746555D02*
X12993991Y-14727508D01*
X12993991Y-14727508D02*
X13013039Y-14698936D01*
X13013039Y-14698936D02*
X13022563Y-14689412D01*
X13136848Y-14717984D02*
X13155896Y-14717984D01*
X13155896Y-14717984D02*
X13174944Y-14727508D01*
X13174944Y-14727508D02*
X13184468Y-14737031D01*
X13184468Y-14737031D02*
X13193991Y-14756079D01*
X13193991Y-14756079D02*
X13203515Y-14794174D01*
X13203515Y-14794174D02*
X13203515Y-14841793D01*
X13203515Y-14841793D02*
X13193991Y-14879888D01*
X13193991Y-14879888D02*
X13184468Y-14898936D01*
X13184468Y-14898936D02*
X13174944Y-14908460D01*
X13174944Y-14908460D02*
X13155896Y-14917984D01*
X13155896Y-14917984D02*
X13136848Y-14917984D01*
X13136848Y-14917984D02*
X13117801Y-14908460D01*
X13117801Y-14908460D02*
X13108277Y-14898936D01*
X13108277Y-14898936D02*
X13098753Y-14879888D01*
X13098753Y-14879888D02*
X13089229Y-14841793D01*
X13089229Y-14841793D02*
X13089229Y-14794174D01*
X13089229Y-14794174D02*
X13098753Y-14756079D01*
X13098753Y-14756079D02*
X13108277Y-14737031D01*
X13108277Y-14737031D02*
X13117801Y-14727508D01*
X13117801Y-14727508D02*
X13136848Y-14717984D01*
X13441610Y-14917984D02*
X13441610Y-14717984D01*
X13527325Y-14917984D02*
X13527325Y-14813222D01*
X13527325Y-14813222D02*
X13517801Y-14794174D01*
X13517801Y-14794174D02*
X13498753Y-14784650D01*
X13498753Y-14784650D02*
X13470182Y-14784650D01*
X13470182Y-14784650D02*
X13451134Y-14794174D01*
X13451134Y-14794174D02*
X13441610Y-14803698D01*
X13651134Y-14917984D02*
X13632087Y-14908460D01*
X13632087Y-14908460D02*
X13622563Y-14898936D01*
X13622563Y-14898936D02*
X13613039Y-14879888D01*
X13613039Y-14879888D02*
X13613039Y-14822746D01*
X13613039Y-14822746D02*
X13622563Y-14803698D01*
X13622563Y-14803698D02*
X13632087Y-14794174D01*
X13632087Y-14794174D02*
X13651134Y-14784650D01*
X13651134Y-14784650D02*
X13679706Y-14784650D01*
X13679706Y-14784650D02*
X13698753Y-14794174D01*
X13698753Y-14794174D02*
X13708277Y-14803698D01*
X13708277Y-14803698D02*
X13717801Y-14822746D01*
X13717801Y-14822746D02*
X13717801Y-14879888D01*
X13717801Y-14879888D02*
X13708277Y-14898936D01*
X13708277Y-14898936D02*
X13698753Y-14908460D01*
X13698753Y-14908460D02*
X13679706Y-14917984D01*
X13679706Y-14917984D02*
X13651134Y-14917984D01*
X13832087Y-14917984D02*
X13813039Y-14908460D01*
X13813039Y-14908460D02*
X13803515Y-14889412D01*
X13803515Y-14889412D02*
X13803515Y-14717984D01*
X13984468Y-14908460D02*
X13965420Y-14917984D01*
X13965420Y-14917984D02*
X13927325Y-14917984D01*
X13927325Y-14917984D02*
X13908277Y-14908460D01*
X13908277Y-14908460D02*
X13898753Y-14889412D01*
X13898753Y-14889412D02*
X13898753Y-14813222D01*
X13898753Y-14813222D02*
X13908277Y-14794174D01*
X13908277Y-14794174D02*
X13927325Y-14784650D01*
X13927325Y-14784650D02*
X13965420Y-14784650D01*
X13965420Y-14784650D02*
X13984468Y-14794174D01*
X13984468Y-14794174D02*
X13993991Y-14813222D01*
X13993991Y-14813222D02*
X13993991Y-14832269D01*
X13993991Y-14832269D02*
X13898753Y-14851317D01*
X14070182Y-14908460D02*
X14089230Y-14917984D01*
X14089230Y-14917984D02*
X14127325Y-14917984D01*
X14127325Y-14917984D02*
X14146372Y-14908460D01*
X14146372Y-14908460D02*
X14155896Y-14889412D01*
X14155896Y-14889412D02*
X14155896Y-14879888D01*
X14155896Y-14879888D02*
X14146372Y-14860841D01*
X14146372Y-14860841D02*
X14127325Y-14851317D01*
X14127325Y-14851317D02*
X14098753Y-14851317D01*
X14098753Y-14851317D02*
X14079706Y-14841793D01*
X14079706Y-14841793D02*
X14070182Y-14822746D01*
X14070182Y-14822746D02*
X14070182Y-14813222D01*
X14070182Y-14813222D02*
X14079706Y-14794174D01*
X14079706Y-14794174D02*
X14098753Y-14784650D01*
X14098753Y-14784650D02*
X14127325Y-14784650D01*
X14127325Y-14784650D02*
X14146372Y-14794174D01*
X14393992Y-14841793D02*
X14546373Y-14841793D01*
X14470182Y-14917984D02*
X14470182Y-14765603D01*
X14774944Y-14717984D02*
X14898753Y-14717984D01*
X14898753Y-14717984D02*
X14832087Y-14794174D01*
X14832087Y-14794174D02*
X14860658Y-14794174D01*
X14860658Y-14794174D02*
X14879706Y-14803698D01*
X14879706Y-14803698D02*
X14889230Y-14813222D01*
X14889230Y-14813222D02*
X14898753Y-14832269D01*
X14898753Y-14832269D02*
X14898753Y-14879888D01*
X14898753Y-14879888D02*
X14889230Y-14898936D01*
X14889230Y-14898936D02*
X14879706Y-14908460D01*
X14879706Y-14908460D02*
X14860658Y-14917984D01*
X14860658Y-14917984D02*
X14803515Y-14917984D01*
X14803515Y-14917984D02*
X14784468Y-14908460D01*
X14784468Y-14908460D02*
X14774944Y-14898936D01*
X15127325Y-14908460D02*
X15146373Y-14917984D01*
X15146373Y-14917984D02*
X15184468Y-14917984D01*
X15184468Y-14917984D02*
X15203515Y-14908460D01*
X15203515Y-14908460D02*
X15213039Y-14889412D01*
X15213039Y-14889412D02*
X15213039Y-14879888D01*
X15213039Y-14879888D02*
X15203515Y-14860841D01*
X15203515Y-14860841D02*
X15184468Y-14851317D01*
X15184468Y-14851317D02*
X15155896Y-14851317D01*
X15155896Y-14851317D02*
X15136849Y-14841793D01*
X15136849Y-14841793D02*
X15127325Y-14822746D01*
X15127325Y-14822746D02*
X15127325Y-14813222D01*
X15127325Y-14813222D02*
X15136849Y-14794174D01*
X15136849Y-14794174D02*
X15155896Y-14784650D01*
X15155896Y-14784650D02*
X15184468Y-14784650D01*
X15184468Y-14784650D02*
X15203515Y-14794174D01*
X15327325Y-14917984D02*
X15308277Y-14908460D01*
X15308277Y-14908460D02*
X15298754Y-14889412D01*
X15298754Y-14889412D02*
X15298754Y-14717984D01*
X15432087Y-14917984D02*
X15413039Y-14908460D01*
X15413039Y-14908460D02*
X15403515Y-14898936D01*
X15403515Y-14898936D02*
X15393992Y-14879888D01*
X15393992Y-14879888D02*
X15393992Y-14822746D01*
X15393992Y-14822746D02*
X15403515Y-14803698D01*
X15403515Y-14803698D02*
X15413039Y-14794174D01*
X15413039Y-14794174D02*
X15432087Y-14784650D01*
X15432087Y-14784650D02*
X15460658Y-14784650D01*
X15460658Y-14784650D02*
X15479706Y-14794174D01*
X15479706Y-14794174D02*
X15489230Y-14803698D01*
X15489230Y-14803698D02*
X15498754Y-14822746D01*
X15498754Y-14822746D02*
X15498754Y-14879888D01*
X15498754Y-14879888D02*
X15489230Y-14898936D01*
X15489230Y-14898936D02*
X15479706Y-14908460D01*
X15479706Y-14908460D02*
X15460658Y-14917984D01*
X15460658Y-14917984D02*
X15432087Y-14917984D01*
X15555896Y-14784650D02*
X15632087Y-14784650D01*
X15584468Y-14717984D02*
X15584468Y-14889412D01*
X15584468Y-14889412D02*
X15593992Y-14908460D01*
X15593992Y-14908460D02*
X15613039Y-14917984D01*
X15613039Y-14917984D02*
X15632087Y-14917984D01*
X15689230Y-14908460D02*
X15708277Y-14917984D01*
X15708277Y-14917984D02*
X15746373Y-14917984D01*
X15746373Y-14917984D02*
X15765420Y-14908460D01*
X15765420Y-14908460D02*
X15774944Y-14889412D01*
X15774944Y-14889412D02*
X15774944Y-14879888D01*
X15774944Y-14879888D02*
X15765420Y-14860841D01*
X15765420Y-14860841D02*
X15746373Y-14851317D01*
X15746373Y-14851317D02*
X15717801Y-14851317D01*
X15717801Y-14851317D02*
X15698754Y-14841793D01*
X15698754Y-14841793D02*
X15689230Y-14822746D01*
X15689230Y-14822746D02*
X15689230Y-14813222D01*
X15689230Y-14813222D02*
X15698754Y-14794174D01*
X15698754Y-14794174D02*
X15717801Y-14784650D01*
X15717801Y-14784650D02*
X15746373Y-14784650D01*
X15746373Y-14784650D02*
X15765420Y-14794174D01*
X15841611Y-14994174D02*
X15851135Y-14984650D01*
X15851135Y-14984650D02*
X15870182Y-14956079D01*
X15870182Y-14956079D02*
X15879706Y-14937031D01*
X15879706Y-14937031D02*
X15889230Y-14908460D01*
X15889230Y-14908460D02*
X15898754Y-14860841D01*
X15898754Y-14860841D02*
X15898754Y-14822746D01*
X15898754Y-14822746D02*
X15889230Y-14775127D01*
X15889230Y-14775127D02*
X15879706Y-14746555D01*
X15879706Y-14746555D02*
X15870182Y-14727508D01*
X15870182Y-14727508D02*
X15851135Y-14698936D01*
X15851135Y-14698936D02*
X15841611Y-14689412D01*
M02*
